<svg width="1200" height="1200" version="1.1" viewBox="0 0 1200 1200" xmlns="http://www.w3.org/2000/svg">
 <path d="m452.46 9.8361c-245.21 0-442.62 283.73-442.62 636.17v544.16h1180.3v-1180.3z" fill="#e6e6e6" stroke="#4d4d4d" stroke-width="19.672"/>
 <g transform="matrix(.70973 0 0 .70973 205.79 194.44)">
  <circle cx="600" cy="600" r="575.41" fill="#fff" stroke="#000080" stroke-linecap="round" stroke-linejoin="round" stroke-width="49.17"/>
  <g transform="matrix(5.2461,0,0,5.2461,-241.18,1270.3)">
   <g transform="translate(-17.373)">
    <g transform="matrix(.28965 0 0 .28965 205.9 -252.26)" shape-rendering="auto">
     <g transform="translate(25.88)">
      <path d="m-394.69 699.25c0 38.487 32.396 70.884 70.884 70.884 38.487 0 70.875-32.396 70.875-70.884v-538.9c0-38.487-32.386-70.875-70.875-70.875s-70.884 32.386-70.884 70.875z" color="#000000" color-rendering="auto" dominant-baseline="auto" fill="#002b00" image-rendering="auto" opacity=".99" solid-color="#000000" stop-color="#000000" stroke-width="4.8708" style="font-feature-settings:normal;font-variant-alternates:normal;font-variant-caps:normal;font-variant-east-asian:normal;font-variant-ligatures:normal;font-variant-numeric:normal;font-variant-position:normal;font-variation-settings:normal;inline-size:0;isolation:auto;mix-blend-mode:normal;shape-margin:0;shape-padding:0;text-decoration-color:#000000;text-decoration-line:none;text-decoration-style:solid;text-indent:0;text-orientation:mixed;text-transform:none;white-space:normal"/>
      <g transform="translate(0,13.162)" stroke-width="4.6178">
       <path d="m-379.7 343.75c-36.488 0-67.202 30.713-67.202 67.202 0 36.488 30.713 67.193 67.202 67.193h510.91c36.488 0 67.193-30.704 67.193-67.193s-30.704-67.202-67.193-67.202z" color="#000000" color-rendering="auto" dominant-baseline="auto" fill="#000080" image-rendering="auto" opacity=".99" solid-color="#000000" stop-color="#000000" style="font-feature-settings:normal;font-variant-alternates:normal;font-variant-caps:normal;font-variant-east-asian:normal;font-variant-ligatures:normal;font-variant-numeric:normal;font-variant-position:normal;font-variation-settings:normal;inline-size:0;isolation:auto;mix-blend-mode:normal;shape-margin:0;shape-padding:0;text-decoration-color:#000000;text-decoration-line:none;text-decoration-style:solid;text-indent:0;text-orientation:mixed;text-transform:none;white-space:normal"/>
       <path d="m-377.57 355.14c-36.488 0-67.202 30.713-67.202 67.202 0 36.488 30.713 67.193 67.202 67.193h510.91c36.488 0 67.193-30.704 67.193-67.193s-30.704-67.202-67.193-67.202z" color="#000000" color-rendering="auto" dominant-baseline="auto" fill="#0f0" image-rendering="auto" opacity=".99" solid-color="#000000" stop-color="#000000" style="font-feature-settings:normal;font-variant-alternates:normal;font-variant-caps:normal;font-variant-east-asian:normal;font-variant-ligatures:normal;font-variant-numeric:normal;font-variant-position:normal;font-variation-settings:normal;inline-size:0;isolation:auto;mix-blend-mode:normal;shape-margin:0;shape-padding:0;text-decoration-color:#000000;text-decoration-line:none;text-decoration-style:solid;text-indent:0;text-orientation:mixed;text-transform:none;white-space:normal"/>
      </g>
      <path d="m6.5583 699.25c0 38.487 32.396 70.884 70.884 70.884 38.487 0 70.875-32.396 70.875-70.884v-538.9c0-38.487-32.386-70.875-70.875-70.875-38.488 0-70.884 32.386-70.884 70.875z" color="#000000" color-rendering="auto" dominant-baseline="auto" fill="#00f" image-rendering="auto" opacity=".99" solid-color="#000000" stop-color="#000000" stroke-width="4.8708" style="font-feature-settings:normal;font-variant-alternates:normal;font-variant-caps:normal;font-variant-east-asian:normal;font-variant-ligatures:normal;font-variant-numeric:normal;font-variant-position:normal;font-variation-settings:normal;inline-size:0;isolation:auto;mix-blend-mode:normal;shape-margin:0;shape-padding:0;text-decoration-color:#000000;text-decoration-line:none;text-decoration-style:solid;text-indent:0;text-orientation:mixed;text-transform:none;white-space:normal"/>
     </g>
     <path d="m81.145 188.74c-8.0454 0-14.815 6.6491-14.815 14.551 0 7.9017 6.7701 14.553 14.815 14.553h118.54c8.0454 0 14.815-6.6511 14.815-14.553 0-7.9017-6.7701-14.551-14.815-14.551z" color="#000000" color-rendering="auto" dominant-baseline="auto" fill="#00002b" image-rendering="auto" opacity=".99" solid-color="#000000" stop-color="#000000" style="font-feature-settings:normal;font-variant-alternates:normal;font-variant-caps:normal;font-variant-east-asian:normal;font-variant-ligatures:normal;font-variant-numeric:normal;font-variant-position:normal;font-variation-settings:normal;inline-size:0;isolation:auto;mix-blend-mode:normal;shape-margin:0;shape-padding:0;text-decoration-color:#000000;text-decoration-line:none;text-decoration-style:solid;text-indent:0;text-orientation:mixed;text-transform:none;white-space:normal"/>
     <path d="m117.98 240.87c-8.3489 0-15.376 6.6511-15.376 14.553 0 7.9017 7.0275 14.551 15.376 14.551h117.42c8.3489 0 15.376-6.6491 15.376-14.551 0-7.9017-7.0275-14.553-15.376-14.553z" color="#000000" color-rendering="auto" dominant-baseline="auto" fill="#002b00" image-rendering="auto" opacity=".99" solid-color="#000000" stop-color="#000000" style="font-feature-settings:normal;font-variant-alternates:normal;font-variant-caps:normal;font-variant-east-asian:normal;font-variant-ligatures:normal;font-variant-numeric:normal;font-variant-position:normal;font-variation-settings:normal;inline-size:0;isolation:auto;mix-blend-mode:normal;shape-margin:0;shape-padding:0;text-decoration-color:#000000;text-decoration-line:none;text-decoration-style:solid;text-indent:0;text-orientation:mixed;text-transform:none;white-space:normal"/>
     <path d="m210.21 51.287c-6.0852-5.1999-15.343-4.0676-20.327 1.7728l-120.08 140.74c-4.9831 5.8405-4.6485 15.167 1.4366 20.367 6.0852 5.1999 15.344 4.0704 20.327-1.7701l120.08-140.74c4.9831-5.8405 4.6483-15.17-1.4368-20.37z" color="#000000" color-rendering="auto" dominant-baseline="auto" fill="#000080" image-rendering="auto" opacity=".99" solid-color="#000000" stop-color="#000000" style="font-feature-settings:normal;font-variant-alternates:normal;font-variant-caps:normal;font-variant-east-asian:normal;font-variant-ligatures:normal;font-variant-numeric:normal;font-variant-position:normal;font-variation-settings:normal;inline-size:0;isolation:auto;mix-blend-mode:normal;shape-margin:0;shape-padding:0;text-decoration-color:#000000;text-decoration-line:none;text-decoration-style:solid;text-indent:0;text-orientation:mixed;text-transform:none;white-space:normal"/>
     <path d="m90.003 47.53c-7.9017 0-14.553 6.6511-14.553 14.553 0 7.9017 6.6511 14.551 14.553 14.551h110.64c7.9017 0 14.551-6.6491 14.551-14.551s-6.6491-14.553-14.551-14.553z" color="#000000" color-rendering="auto" dominant-baseline="auto" fill="#00f" image-rendering="auto" opacity=".99" solid-color="#000000" stop-color="#000000" style="font-feature-settings:normal;font-variant-alternates:normal;font-variant-caps:normal;font-variant-east-asian:normal;font-variant-ligatures:normal;font-variant-numeric:normal;font-variant-position:normal;font-variation-settings:normal;inline-size:0;isolation:auto;mix-blend-mode:normal;shape-margin:0;shape-padding:0;text-decoration-color:#000000;text-decoration-line:none;text-decoration-style:solid;text-indent:0;text-orientation:mixed;text-transform:none;white-space:normal"/>
     <path d="m246.28 103.71c-6.0852-5.1999-15.343-4.0676-20.327 1.7728l-120.08 140.74c-4.9831 5.8405-4.6486 15.167 1.4366 20.367 6.0852 5.1999 15.344 4.0704 20.327-1.7701l120.08-140.74c4.9831-5.8405 4.6483-15.17-1.4368-20.37z" color="#000000" color-rendering="auto" dominant-baseline="auto" fill="#0f0" image-rendering="auto" opacity=".99" solid-color="#000000" stop-color="#000000" style="font-feature-settings:normal;font-variant-alternates:normal;font-variant-caps:normal;font-variant-east-asian:normal;font-variant-ligatures:normal;font-variant-numeric:normal;font-variant-position:normal;font-variation-settings:normal;inline-size:0;isolation:auto;mix-blend-mode:normal;shape-margin:0;shape-padding:0;text-decoration-color:#000000;text-decoration-line:none;text-decoration-style:solid;text-indent:0;text-orientation:mixed;text-transform:none;white-space:normal"/>
    </g>
   </g>
  </g>
  <text font-family="FreeSerif" font-size="10.583px" style="line-height:1.25;shape-inside:url(#rect1483);white-space:pre" xml:space="preserve"/>
  <text font-family="FreeSerif" font-size="10.583px" style="line-height:1.25;shape-inside:url(#rect1489);white-space:pre" xml:space="preserve"/>
 </g>
</svg>
