<svg width="600" height="600" version="1.1" viewBox="0 0 158.75 158.75" xmlns="http://www.w3.org/2000/svg">
 <circle cx="79.375" cy="79.375" r="76.729" fill="#00002b"/>
 <g fill="#fff" shape-rendering="auto">
  <path d="m79.375 25.258c-29.857 0-54.117 24.261-54.117 54.117 1e-6 29.857 24.261 54.117 54.117 54.117s54.117-24.261 54.117-54.117c0-29.857-24.261-54.117-54.117-54.117zm0 5.291c26.997 0 48.826 21.829 48.826 48.826 0 26.997-21.829 48.826-48.826 48.826-26.997 0-48.826-21.829-48.826-48.826 0-26.997 21.829-48.826 48.826-48.826z" color="#000000" color-rendering="auto" dominant-baseline="auto" image-rendering="auto" solid-color="#000000" stop-color="#000000" style="font-feature-settings:normal;font-variant-alternates:normal;font-variant-caps:normal;font-variant-east-asian:normal;font-variant-ligatures:normal;font-variant-numeric:normal;font-variant-position:normal;font-variation-settings:normal;inline-size:0;isolation:auto;mix-blend-mode:normal;shape-margin:0;shape-padding:0;text-decoration-color:#000000;text-decoration-line:none;text-decoration-style:solid;text-indent:0;text-orientation:mixed;text-transform:none;white-space:normal"/>
  <path d="m79.375 25.275c-10.859 0-20.537 6.3818-27.334 16.211-6.7966 9.8291-10.891 23.186-10.891 37.889s4.0941 28.06 10.891 37.889c6.7966 9.8291 16.475 16.211 27.334 16.211s20.537-6.3818 27.334-16.211c6.7966-9.8291 10.891-23.186 10.891-37.889s-4.0941-28.06-10.891-37.889c-6.7966-9.8291-16.475-16.211-27.334-16.211zm0 5.291c8.7909 0 16.902 5.1362 22.982 13.93 6.0804 8.7935 9.9512 21.165 9.9512 34.879s-3.8707 26.085-9.9512 34.879c-6.0804 8.7935-14.192 13.93-22.982 13.93s-16.902-5.1362-22.982-13.93c-6.0804-8.7935-9.9512-21.165-9.9512-34.879s3.8707-26.085 9.9512-34.879 14.192-13.93 22.982-13.93z" color="#000000" color-rendering="auto" dominant-baseline="auto" image-rendering="auto" solid-color="#000000" stop-color="#000000" style="font-feature-settings:normal;font-variant-alternates:normal;font-variant-caps:normal;font-variant-east-asian:normal;font-variant-ligatures:normal;font-variant-numeric:normal;font-variant-position:normal;font-variation-settings:normal;inline-size:0;isolation:auto;mix-blend-mode:normal;shape-margin:0;shape-padding:0;text-decoration-color:#000000;text-decoration-line:none;text-decoration-style:solid;text-indent:0;text-orientation:mixed;text-transform:none;white-space:normal"/>
  <path d="m79.375 25.275c-10.859 0-20.537 6.3818-27.334 16.211-6.7966 9.8291-10.891 23.186-10.891 37.889s4.0941 28.06 10.891 37.889c6.7966 9.8291 16.475 16.211 27.334 16.211s20.537-6.3818 27.334-16.211c6.7966-9.8291 10.891-23.186 10.891-37.889s-4.0941-28.06-10.891-37.889c-6.7966-9.8291-16.475-16.211-27.334-16.211zm0 5.291c8.7909 0 16.902 5.1362 22.982 13.93 6.0804 8.7935 9.9512 21.165 9.9512 34.879s-3.8707 26.085-9.9512 34.879c-6.0804 8.7935-14.192 13.93-22.982 13.93s-16.902-5.1362-22.982-13.93c-6.0804-8.7935-9.9512-21.165-9.9512-34.879s3.8707-26.085 9.9512-34.879 14.192-13.93 22.982-13.93z" color="#000000" color-rendering="auto" dominant-baseline="auto" image-rendering="auto" solid-color="#000000" stop-color="#000000" style="font-feature-settings:normal;font-variant-alternates:normal;font-variant-caps:normal;font-variant-east-asian:normal;font-variant-ligatures:normal;font-variant-numeric:normal;font-variant-position:normal;font-variation-settings:normal;inline-size:0;isolation:auto;mix-blend-mode:normal;shape-margin:0;shape-padding:0;text-decoration-color:#000000;text-decoration-line:none;text-decoration-style:solid;text-indent:0;text-orientation:mixed;text-transform:none;white-space:normal"/>
  <path d="m79.375 25.275c-3.2662 0-5.8472 2.2548-7.8164 5.2285s-3.5707 6.9495-4.9219 11.773c-2.7024 9.6479-4.3203 22.689-4.3203 37.098s1.618 27.45 4.3203 37.098c1.3512 4.8239 2.9526 8.7998 4.9219 11.773 1.9692 2.9737 4.5502 5.2285 7.8164 5.2285s5.8472-2.2548 7.8164-5.2285c1.9692-2.9737 3.5707-6.9495 4.9219-11.773 2.7024-9.6479 4.3203-22.689 4.3203-37.098s-1.618-27.45-4.3203-37.098c-1.3512-4.8239-2.9526-8.7998-4.9219-11.773s-4.5502-5.2285-7.8164-5.2285zm0 5.291c0.71364 0 1.925 0.62563 3.4043 2.8594s2.9814 5.7919 4.2383 10.279c2.5138 8.9747 4.123 21.662 4.123 35.67s-1.6092 26.695-4.123 35.67c-1.2569 4.4874-2.759 8.0456-4.2383 10.279-1.4792 2.2337-2.6907 2.8594-3.4043 2.8594s-1.925-0.62563-3.4043-2.8594c-1.4792-2.2338-2.9814-5.7919-4.2383-10.279-2.5138-8.9747-4.123-21.662-4.123-35.67s1.6092-26.695 4.123-35.67c1.2569-4.4874 2.759-8.0456 4.2383-10.279s2.6907-2.8594 3.4043-2.8594z" color="#000000" color-rendering="auto" dominant-baseline="auto" image-rendering="auto" solid-color="#000000" stop-color="#000000" style="font-feature-settings:normal;font-variant-alternates:normal;font-variant-caps:normal;font-variant-east-asian:normal;font-variant-ligatures:normal;font-variant-numeric:normal;font-variant-position:normal;font-variation-settings:normal;inline-size:0;isolation:auto;mix-blend-mode:normal;shape-margin:0;shape-padding:0;text-decoration-color:#000000;text-decoration-line:none;text-decoration-style:solid;text-indent:0;text-orientation:mixed;text-transform:none;white-space:normal"/>
  <path d="m27.959 78.053a2.6461 2.6461 0 0 0-0.27148 0.01758 2.6461 2.6461 0 0 0-0.13672 0.01953 2.6461 2.6461 0 0 0-0.39648 0.09961 2.6461 2.6461 0 0 0-0.12891 0.04687 2.6461 2.6461 0 0 0-0.125 0.05469 2.6461 2.6461 0 0 0-0.12305 0.05859 2.6461 2.6461 0 0 0-0.23633 0.13867 2.6461 2.6461 0 0 0-0.2207 0.16211 2.6461 2.6461 0 0 0-0.10352 0.08984 2.6461 2.6461 0 0 0-0.28125 0.29883 2.6461 2.6461 0 0 0-0.08203 0.10742 2.6461 2.6461 0 0 0-0.14844 0.23047 2.6461 2.6461 0 0 0-0.125 0.24414 2.6461 2.6461 0 0 0-0.05273 0.125 2.6461 2.6461 0 0 0-0.11719 0.39258 2.6461 2.6461 0 0 0-0.02539 0.13477 2.6461 2.6461 0 0 0-0.01758 0.13672 2.6461 2.6461 0 0 0-0.01172 0.13477 2.6461 2.6461 0 0 0-0.0039 0.13672 2.6461 2.6461 0 0 0 2e-3 0.13672 2.6461 2.6461 0 0 0 0.16406 0.80274 2.6461 2.6461 0 0 0 0.05078 0.12695 2.6461 2.6461 0 0 0 0.05664 0.12305 2.6461 2.6461 0 0 0 0.06445 0.12109 2.6461 2.6461 0 0 0 0.07031 0.11719 2.6461 2.6461 0 0 0 0.24414 0.33008 2.6461 2.6461 0 0 0 0.0918 0.09961 2.6461 2.6461 0 0 0 0.20117 0.18555 2.6461 2.6461 0 0 0 0.69922 0.42383 2.6461 2.6461 0 0 0 0.39062 0.125 2.6461 2.6461 0 0 0 0.26953 0.04883 2.6461 2.6461 0 0 0 0.13672 0.01367 2.6461 2.6461 0 0 0 0.16602 0.0078h102.83a2.6461 2.6461 0 0 0 0.13671-0.0059 2.6461 2.6461 0 0 0 0.13477-0.01172 2.6461 2.6461 0 0 0 0.5332-0.11914 2.6461 2.6461 0 0 0 0.25391-0.10156 2.6461 2.6461 0 0 0 0.12305-0.06055 2.6461 2.6461 0 0 0 0.12109-0.06445 2.6461 2.6461 0 0 0 0.11523-0.07227 2.6461 2.6461 0 0 0 0.11329-0.08008 2.6461 2.6461 0 0 0 0.10742-0.08203 2.6461 2.6461 0 0 0 0.46679-0.49805 2.6461 2.6461 0 0 0 0.41016-0.85938 2.6461 2.6461 0 0 0 0.0332-0.13281 2.6461 2.6461 0 0 0 0.0254-0.13476 2.6461 2.6461 0 0 0 0.0293-0.27148 2.6461 2.6461 0 0 0 2e-3 -0.27344 2.6461 2.6461 0 0 0-0.0273-0.27148 2.6461 2.6461 0 0 0-0.0918-0.40039 2.6461 2.6461 0 0 0-0.0449-0.12891 2.6461 2.6461 0 0 0-0.24219-0.49024 2.6461 2.6461 0 0 0-0.0742-0.11328 2.6461 2.6461 0 0 0-0.082-0.10938 2.6461 2.6461 0 0 0-0.0879-0.10547 2.6461 2.6461 0 0 0-0.0918-0.09961 2.6461 2.6461 0 0 0-0.0977-0.0957 2.6461 2.6461 0 0 0-0.55675-0.39642 2.6461 2.6461 0 0 0-0.63672-0.24219 2.6461 2.6461 0 0 0-0.13476-0.02734 2.6461 2.6461 0 0 0-0.40625-0.04297 2.6461 2.6461 0 0 0-0.0312 0z" color="#000000" color-rendering="auto" dominant-baseline="auto" image-rendering="auto" solid-color="#000000" stop-color="#000000" style="font-feature-settings:normal;font-variant-alternates:normal;font-variant-caps:normal;font-variant-east-asian:normal;font-variant-ligatures:normal;font-variant-numeric:normal;font-variant-position:normal;font-variation-settings:normal;inline-size:0;isolation:auto;mix-blend-mode:normal;shape-margin:0;shape-padding:0;text-decoration-color:#000000;text-decoration-line:none;text-decoration-style:solid;text-indent:0;text-orientation:mixed;text-transform:none;white-space:normal"/>
  <path d="m41.133 111.17a2.6461 2.6461 0 0 0-0.27344 0.0176 2.6461 2.6461 0 0 0-0.13477 0.0215 2.6461 2.6461 0 0 0-0.39648 0.0996 2.6461 2.6461 0 0 0-0.12891 0.0469 2.6461 2.6461 0 0 0-0.12695 0.0527 2.6461 2.6461 0 0 0-0.12305 0.0606 2.6461 2.6461 0 0 0-0.23438 0.13867 2.6461 2.6461 0 0 0-0.2207 0.16211 2.6461 2.6461 0 0 0-0.10352 0.0898 2.6461 2.6461 0 0 0-0.28125 0.29688 2.6461 2.6461 0 0 0-0.08398 0.10937 2.6461 2.6461 0 0 0-0.14844 0.23047 2.6461 2.6461 0 0 0-0.12305 0.24219 2.6461 2.6461 0 0 0-0.05273 0.12695 2.6461 2.6461 0 0 0-0.11719 0.39258 2.6461 2.6461 0 0 0-0.02539 0.13476 2.6461 2.6461 0 0 0-0.01758 0.13477 2.6461 2.6461 0 0 0-0.01172 0.13672 2.6461 2.6461 0 0 0-0.0059 0.13672 2.6461 2.6461 0 0 0 0.0039 0.13672 2.6461 2.6461 0 0 0 0.16211 0.80078 2.6461 2.6461 0 0 0 0.05273 0.12695 2.6461 2.6461 0 0 0 0.05664 0.125 2.6461 2.6461 0 0 0 0.06445 0.12109 2.6461 2.6461 0 0 0 0.06836 0.11719 2.6461 2.6461 0 0 0 0.24609 0.32813 2.6461 2.6461 0 0 0 0.0918 0.10156 2.6461 2.6461 0 0 0 0.20117 0.18555 2.6461 2.6461 0 0 0 0.69922 0.42187 2.6461 2.6461 0 0 0 0.39062 0.125 2.6461 2.6461 0 0 0 0.26953 0.0488 2.6461 2.6461 0 0 0 0.13477 0.0156 2.6461 2.6461 0 0 0 0.13672 6e-3 2.6461 2.6461 0 0 0 0.03125 2e-3h76.559a2.6461 2.6461 0 0 0 0.13671-6e-3 2.6461 2.6461 0 0 0 0.13672-0.0137 2.6461 2.6461 0 0 0 0.53125-0.11915 2.6461 2.6461 0 0 0 0.25586-0.0996 2.6461 2.6461 0 0 0 0.12305-0.0606 2.6461 2.6461 0 0 0 0.11914-0.0664 2.6461 2.6461 0 0 0 0.11524-0.0723 2.6461 2.6461 0 0 0 0.11328-0.0781 2.6461 2.6461 0 0 0 0.10742-0.084 2.6461 2.6461 0 0 0 0.4668-0.4961 2.6461 2.6461 0 0 0 0.41015-0.85937 2.6461 2.6461 0 0 0 0.0332-0.13281 2.6461 2.6461 0 0 0 0.0254-0.13477 2.6461 2.6461 0 0 0 0.0293-0.27148 2.6461 2.6461 0 0 0 2e-3 -0.27344 2.6461 2.6461 0 0 0-0.0273-0.27149 2.6461 2.6461 0 0 0-0.0918-0.40039 2.6461 2.6461 0 0 0-0.043-0.1289 2.6461 2.6461 0 0 0-0.24219-0.49024 2.6461 2.6461 0 0 0-0.0762-0.11328 2.6461 2.6461 0 0 0-0.082-0.10937 2.6461 2.6461 0 0 0-0.0879-0.10547 2.6461 2.6461 0 0 0-0.0918-0.10156 2.6461 2.6461 0 0 0-0.0977-0.0957 2.6461 2.6461 0 0 0-0.55469-0.39648 2.6461 2.6461 0 0 0-0.63867-0.24024 2.6461 2.6461 0 0 0-0.13476-0.0293 2.6461 2.6461 0 0 0-0.4375-0.043z" color="#000000" color-rendering="auto" dominant-baseline="auto" image-rendering="auto" solid-color="#000000" stop-color="#000000" style="font-feature-settings:normal;font-variant-alternates:normal;font-variant-caps:normal;font-variant-east-asian:normal;font-variant-ligatures:normal;font-variant-numeric:normal;font-variant-position:normal;font-variation-settings:normal;inline-size:0;isolation:auto;mix-blend-mode:normal;shape-margin:0;shape-padding:0;text-decoration-color:#000000;text-decoration-line:none;text-decoration-style:solid;text-indent:0;text-orientation:mixed;text-transform:none;white-space:normal"/>
  <path d="m40.012 43.734a2.6461 2.6461 0 0 0-0.27148 0.01758 2.6461 2.6461 0 0 0-0.13672 0.01953 2.6461 2.6461 0 0 0-0.39648 0.09961 2.6461 2.6461 0 0 0-0.12891 0.04687 2.6461 2.6461 0 0 0-0.125 0.05469 2.6461 2.6461 0 0 0-0.12305 0.05859 2.6461 2.6461 0 0 0-0.23633 0.13867 2.6461 2.6461 0 0 0-0.2207 0.16211 2.6461 2.6461 0 0 0-0.10352 0.08984 2.6461 2.6461 0 0 0-0.28125 0.29883 2.6461 2.6461 0 0 0-0.08203 0.10742 2.6461 2.6461 0 0 0-0.14844 0.23047 2.6461 2.6461 0 0 0-0.125 0.24414 2.6461 2.6461 0 0 0-0.05273 0.125 2.6461 2.6461 0 0 0-0.11719 0.39258 2.6461 2.6461 0 0 0-0.02539 0.13477 2.6461 2.6461 0 0 0-0.01758 0.13672 2.6461 2.6461 0 0 0-0.01172 0.13476 2.6461 2.6461 0 0 0-0.0039 0.13672 2.6461 2.6461 0 0 0 2e-3 0.13672 2.6461 2.6461 0 0 0 0.16406 0.80273 2.6461 2.6461 0 0 0 0.05078 0.12695 2.6461 2.6461 0 0 0 0.05664 0.12305 2.6461 2.6461 0 0 0 0.06445 0.12109 2.6461 2.6461 0 0 0 0.07031 0.11719 2.6461 2.6461 0 0 0 0.24414 0.32812 2.6461 2.6461 0 0 0 0.0918 0.10156 2.6461 2.6461 0 0 0 0.20117 0.18555 2.6461 2.6461 0 0 0 0.69922 0.42383 2.6461 2.6461 0 0 0 0.39062 0.125 2.6461 2.6461 0 0 0 0.26953 0.04883 2.6461 2.6461 0 0 0 0.13672 0.01367 2.6461 2.6461 0 0 0 0.16602 0.0078h78.801a2.6461 2.6461 0 0 0 0.13672-0.0059 2.6461 2.6461 0 0 0 0.13476-0.01172 2.6461 2.6461 0 0 0 0.53321-0.12109 2.6461 2.6461 0 0 0 0.2539-0.09961 2.6461 2.6461 0 0 0 0.12305-0.06055 2.6461 2.6461 0 0 0 0.12109-0.06445 2.6461 2.6461 0 0 0 0.11524-0.07422 2.6461 2.6461 0 0 0 0.11133-0.07813 2.6461 2.6461 0 0 0 0.10937-0.08203 2.6461 2.6461 0 0 0 0.4668-0.49805 2.6461 2.6461 0 0 0 0.41015-0.85938 2.6461 2.6461 0 0 0 0.0332-0.13281 2.6461 2.6461 0 0 0 0.0254-0.13477 2.6461 2.6461 0 0 0 0.0293-0.27148 2.6461 2.6461 0 0 0 2e-3 -0.27344 2.6461 2.6461 0 0 0-0.0273-0.27148 2.6461 2.6461 0 0 0-0.0918-0.40039 2.6461 2.6461 0 0 0-0.0449-0.12891 2.6461 2.6461 0 0 0-0.24219-0.49023 2.6461 2.6461 0 0 0-0.0762-0.11328 2.6461 2.6461 0 0 0-0.082-0.10938 2.6461 2.6461 0 0 0-0.0859-0.10547 2.6461 2.6461 0 0 0-0.0937-0.09961 2.6461 2.6461 0 0 0-0.0977-0.0957 2.6461 2.6461 0 0 0-0.55469-0.39648 2.6461 2.6461 0 0 0-0.63671-0.24219 2.6461 2.6461 0 0 0-0.13477-0.02734 2.6461 2.6461 0 0 0-0.4082-0.04297 2.6461 2.6461 0 0 0-0.0293 0z" color="#000000" color-rendering="auto" dominant-baseline="auto" image-rendering="auto" solid-color="#000000" stop-color="#000000" style="font-feature-settings:normal;font-variant-alternates:normal;font-variant-caps:normal;font-variant-east-asian:normal;font-variant-ligatures:normal;font-variant-numeric:normal;font-variant-position:normal;font-variation-settings:normal;inline-size:0;isolation:auto;mix-blend-mode:normal;shape-margin:0;shape-padding:0;text-decoration-color:#000000;text-decoration-line:none;text-decoration-style:solid;text-indent:0;text-orientation:mixed;text-transform:none;white-space:normal"/>
 </g>
 <rect x="15.875" y="57.645" width="127" height="43.46" rx="1.3229" ry="1.3229" fill="#80a" stroke="#fff" stroke-linecap="round" stroke-linejoin="round" stroke-width="5.2917"/>
 <g fill="#fff" stroke-width=".26458" aria-label="JSON">
  <path d="m29.554 99.589q-1.0936 0-1.905-0.10583-0.84667-0.10583-1.4111-0.24694v-4.8331q0.52917 0.10583 1.1642 0.21167 0.59972 0.14111 1.3406 0.14111 1.5875 0 2.3989-0.98778 0.81139-0.98778 0.81139-3.5278v-23.46h6.0325v23.178q0 3.4925-1.0936 5.6092-1.0583 2.1167-2.9633 3.0692-1.905 0.9525-4.3744 0.9525z"/>
  <path d="m63.474 84.667q0 2.1519-1.0583 3.9158-1.0583 1.7286-3.175 2.7517-2.1167 0.98778-5.3269 0.98778-2.2225 0-3.9864-0.38806-1.7639-0.38806-3.4219-1.1642v-5.4681q1.905 0.88194 3.8806 1.4817 2.0108 0.59972 3.8453 0.59972 1.7286 0 2.5047-0.635 0.77611-0.67028 0.77611-1.6581 0-1.1994-1.2347-1.9403-1.2347-0.77611-3.4925-1.8344-1.4817-0.67028-2.8928-1.5875-1.3758-0.9525-2.2578-2.3636-0.88194-1.4464-0.88194-3.6689 0-3.5278 2.4342-5.3975 2.4694-1.8697 6.5264-1.8697 2.1872 0 4.0569 0.52917 1.8697 0.49389 3.6689 1.2347l-1.905 4.6919q-1.6933-0.74083-3.175-1.1289-1.4464-0.42333-2.8222-0.42333-1.4464 0-2.1519 0.59972t-0.70556 1.5169q0 0.74083 0.49389 1.3053 0.49389 0.52917 1.5522 1.0936t2.7869 1.3758q1.8697 0.84667 3.2103 1.8344 1.3406 0.98778 2.0461 2.3283 0.70556 1.3053 0.70556 3.2808z"/>
  <path d="m94.888 79.34q0 3.9158-1.27 6.8439-1.27 2.8928-3.9511 4.5156-2.6811 1.6228-6.8792 1.6228-4.1628 0-6.8439-1.6228-2.6811-1.6228-3.9864-4.5508-1.27-2.9281-1.27-6.8439 0-3.9158 1.27-6.8086 1.3053-2.8928 3.9864-4.4803 2.6811-1.6228 6.8792-1.6228 4.1981 0 6.8439 1.6228 2.6811 1.5875 3.9511 4.5156 1.27 2.8928 1.27 6.8086zm-17.886 0q0 3.7042 1.3406 5.8208 1.3758 2.1167 4.445 2.1167 3.1397 0 4.445-2.1167 1.3406-2.1167 1.3406-5.8208t-1.3406-5.8208q-1.3053-2.1519-4.4097-2.1519-3.1044 0-4.4803 2.1519-1.3406 2.1167-1.3406 5.8208z"/>
  <path d="m126.87 91.969h-7.7611l-10.16-18.45h-0.14111q0.0706 1.5169 0.14111 3.3867 0.10584 1.8344 0.17639 3.4219v11.642h-5.3622v-25.188h7.7258l10.125 18.239h0.10584q-0.0706-1.5169-0.14111-3.2456-0.0706-1.7639-0.10584-3.3161v-11.677h5.3975z"/>
 </g>
</svg>
