<svg width="600" height="600" version="1.1" viewBox="0 0 600 600" xmlns="http://www.w3.org/2000/svg">
 <g transform="matrix(5.7416 0 0 5.7416 -107.94 -107.37)" fill="#2b1100">
  <path d="m71.05 23.68c-26.06 0-47.27 21.22-47.27 47.27s21.22 47.27 47.27 47.27 47.27-21.22 47.27-47.27-21.22-47.27-47.27-47.27zm-0.07 4.2a3.1 3.11 0 0 1 3.02 3.11 3.11 3.11 0 0 1-6.22 0 3.11 3.11 0 0 1 3.2-3.11zm7.12 5.12a38.27 38.27 0 0 1 26.2 18.66l-3.67 8.28c-0.63 1.43 0.02 3.11 1.44 3.75l7.06 3.13a38.27 38.27 0 0 1 0.08 6.64h-3.93c-0.39 0-0.55 0.26-0.55 0.64v1.8c0 4.24-2.39 5.17-4.49 5.4-2 0.23-4.21-0.84-4.49-2.06-1.18-6.63-3.14-8.04-6.24-10.49 3.85-2.44 7.85-6.05 7.85-10.87 0-5.21-3.57-8.49-6-10.1-3.42-2.25-7.2-2.7-8.22-2.7h-40.6a38.27 38.27 0 0 1 21.41-12.08l4.79 5.02c1.08 1.13 2.87 1.18 4 0.09zm-44.2 23.02a3.11 3.11 0 0 1 3.02 3.11 3.11 3.11 0 0 1-6.22 0 3.11 3.11 0 0 1 3.2-3.11zm74.15 0.14a3.11 3.11 0 0 1 3.02 3.11 3.11 3.11 0 0 1-6.22 0 3.11 3.11 0 0 1 3.2-3.11zm-68.29 0.5h5.42v24.44h-10.94a38.27 38.27 0 0 1-1.24-14.61l6.7-2.98c1.43-0.64 2.08-2.31 1.44-3.74zm22.62 0.26h12.91c0.67 0 4.71 0.77 4.71 3.8 0 2.51-3.1 3.41-5.65 3.41h-11.98zm0 17.56h9.89c0.9 0 4.83 0.26 6.08 5.28 0.39 1.54 1.26 6.56 1.85 8.17 0.59 1.8 2.98 5.4 5.53 5.4h16.14a38.27 38.27 0 0 1-3.54 4.1l-6.57-1.41c-1.53-0.33-3.04 0.65-3.37 2.18l-1.56 7.28a38.27 38.27 0 0 1-31.91-0.15l-1.56-7.28c-0.33-1.53-1.83-2.51-3.36-2.18l-6.43 1.38a38.27 38.27 0 0 1-3.32-3.92h31.27c0.35 0 0.59-0.06 0.59-0.39v-11.06c0-0.32-0.24-0.39-0.59-0.39h-9.15zm-14.43 25.33a3.11 3.11 0 0 1 3.02 3.11 3.11 3.11 0 0 1-6.22 0 3.11 3.11 0 0 1 3.2-3.11zm46.05 0.14a3.11 3.11 0 0 1 3.02 3.11 3.11 3.11 0 0 1-6.22 0 3.11 3.11 0 0 1 3.2-3.11z"/>
  <g fill-rule="evenodd" stroke-linecap="round" stroke-linejoin="round">
   <path d="m115.68 70.95a44.63 44.63 0 0 1-44.63 44.63 44.63 44.63 0 0 1-44.63-44.63 44.63 44.63 0 0 1 44.63-44.63 44.63 44.63 0 0 1 44.63 44.63zm-0.84-4.31 6.96 4.31-6.96 4.31 5.98 5.59-7.66 2.87 4.78 6.65-8.09 1.32 3.4 7.46-8.19-0.29 1.88 7.98-7.98-1.88 0.29 8.19-7.46-3.4-1.32 8.09-6.65-4.78-2.87 7.66-5.59-5.98-4.31 6.96-4.31-6.96-5.59 5.98-2.87-7.66-6.65 4.78-1.32-8.09-7.46 3.4 0.29-8.19-7.98 1.88 1.88-7.98-8.19 0.29 3.4-7.46-8.09-1.32 4.78-6.65-7.66-2.87 5.98-5.59-6.96-4.31 6.96-4.31-5.98-5.59 7.66-2.87-4.78-6.65 8.09-1.32-3.4-7.46 8.19 0.29-1.88-7.98 7.98 1.88-0.29-8.19 7.46 3.4 1.32-8.09 6.65 4.78 2.87-7.66 5.59 5.98 4.31-6.96 4.31 6.96 5.59-5.98 2.87 7.66 6.65-4.78 1.32 8.09 7.46-3.4-0.29 8.19 7.98-1.88-1.88 7.98 8.19-0.29-3.4 7.46 8.09 1.32-4.78 6.65 7.66 2.87z" color="#000000" stroke-width="3" style="-inkscape-stroke:none"/>
   <path d="m71.051 18.699a1.5002 1.5002 0 0 0-1.2754 0.71094l-3.2773 5.293-4.252-4.5469a1.5002 1.5002 0 0 0-2.5 0.49805l-2.1816 5.8223-5.0586-3.6348a1.5002 1.5002 0 0 0-2.3555 0.97656l-1.0039 6.1523-5.6738-2.5859a1.5002 1.5002 0 0 0-2.1211 1.418l0.2207 6.2266-6.0684-1.4297a1.5002 1.5002 0 0 0-1.8047 1.8047l1.4297 6.0664-6.2266-0.2207a1.5002 1.5002 0 0 0-1.418 2.123l2.5859 5.6738-6.1523 1.002a1.5002 1.5002 0 0 0-0.97656 2.3574l3.6367 5.0566-5.8242 2.1816a1.5002 1.5002 0 0 0-0.49805 2.502l4.5469 4.25-5.293 3.2773a1.5002 1.5002 0 0 0 0 2.5508l5.2949 3.2793-4.5488 4.25a1.5002 1.5002 0 0 0 0.49805 2.5l5.8242 2.1836-3.6367 5.0566a1.5002 1.5002 0 0 0 0.97656 2.3555l6.1523 1.0039-2.5859 5.6738a1.5002 1.5002 0 0 0 1.418 2.1211l6.2266-0.22071-1.4297 6.0684a1.5002 1.5002 0 0 0 1.8047 1.8047l6.0684-1.4297-0.2207 6.2266a1.5002 1.5002 0 0 0 2.1211 1.418l5.6738-2.5859 1.0039 6.1523a1.5002 1.5002 0 0 0 2.3555 0.97656l5.0566-3.6367 2.1836 5.8242a1.5002 1.5002 0 0 0 2.5 0.49805l4.25-4.5488 3.2793 5.2949a1.5002 1.5002 0 0 0 2.5508 0l3.2773-5.293 4.25 4.5469a1.5002 1.5002 0 0 0 2.502-0.49805l2.1816-5.8242 5.0566 3.6367a1.5002 1.5002 0 0 0 2.3574-0.97656l1.002-6.1523 5.6738 2.5859a1.5002 1.5002 0 0 0 2.123-1.418l-0.2207-6.2266 6.0664 1.4297a1.5002 1.5002 0 0 0 1.8047-1.8047l-1.4297-6.0684 6.2266 0.22071a1.5002 1.5002 0 0 0 1.418-2.1211l-2.5859-5.6738 6.1523-1.0039a1.5002 1.5002 0 0 0 0.97656-2.3555l-3.6348-5.0586 5.8223-2.1816a1.5002 1.5002 0 0 0 0.49805-2.5l-4.5469-4.252 5.293-3.2773a1.5002 1.5002 0 0 0 0-2.5508l-5.293-3.2754 4.5469-4.252a1.5002 1.5002 0 0 0-0.49805-2.502l-5.8223-2.1816 3.6348-5.0566a1.5002 1.5002 0 0 0-0.97656-2.3574l-6.1523-1.002 2.5859-5.6738a1.5002 1.5002 0 0 0-1.418-2.123l-6.2266 0.2207 1.4297-6.0664a1.5002 1.5002 0 0 0-1.8047-1.8047l-6.0664 1.4297 0.2207-6.2266a1.5002 1.5002 0 0 0-2.123-1.418l-5.6738 2.5859-1.002-6.1523a1.5002 1.5002 0 0 0-2.3574-0.97656l-5.0566 3.6348-2.1816-5.8223a1.5002 1.5002 0 0 0-2.502-0.49805l-4.252 4.5469-3.2754-5.293a1.5002 1.5002 0 0 0-1.2754-0.71094zm0 4.3496 1.1699 1.8887c-0.39826-0.01018-0.76923-0.11719-1.1699-0.11719-0.40061 0-0.77174 0.10701-1.1699 0.11719zm9.3438 0.92188 0.76367 2.041c-0.75565-0.16975-1.5258-0.27024-2.2949-0.40234zm-18.688 2e-3 1.5293 1.6367c-0.7684 0.13199-1.538 0.23279-2.293 0.40234zm27.674 2.7168 0.35156 2.1562c-0.71058-0.31632-1.4449-0.56491-2.1738-0.84575zm-36.66 2e-3 1.8203 1.3085c-0.72839 0.28063-1.4618 0.5297-2.1719 0.8457zm18.33 1.1289c1.155 0 2.2391 0.25094 3.3711 0.33984a1.5002 1.5002 0 0 0 1.6562 0.16602c2.2586 0.26501 4.4484 0.67383 6.5859 1.2734a1.5002 1.5002 0 0 0 1.6719 0.51758c2.1341 0.69409 4.1812 1.5203 6.1543 2.5234a1.5002 1.5002 0 0 0 1.5918 0.86523c1.9398 1.0916 3.7712 2.3037 5.5098 3.6719a1.5002 1.5002 0 0 0 1.3926 1.1484c1.6879 1.4464 3.2431 3.0015 4.6895 4.6895a1.5002 1.5002 0 0 0 1.1484 1.3926c1.3682 1.7386 2.5803 3.57 3.6719 5.5098a1.5002 1.5002 0 0 0 0.86524 1.5918c1.0031 1.9731 1.8294 4.0202 2.5234 6.1543a1.5002 1.5002 0 0 0 0.51758 1.6719c0.59961 2.1376 1.0084 4.3274 1.2734 6.5859a1.5002 1.5002 0 0 0 0.16601 1.6562c0.0889 1.132 0.33985 2.2161 0.33985 3.3711 0 1.1556-0.25084 2.2405-0.33985 3.373a1.5002 1.5002 0 0 0-0.16601 1.6562c-0.26501 2.2577-0.6741 4.4472-1.2734 6.584a1.5002 1.5002 0 0 0-0.51953 1.6719c-0.69375 2.1332-1.5189 4.18-2.5215 6.1523a1.5002 1.5002 0 0 0-0.86524 1.5957c-1.0916 1.9398-2.3037 3.7712-3.6719 5.5098a1.5002 1.5002 0 0 0-1.1484 1.3945c-1.4461 1.6875-3.0019 3.2415-4.6895 4.6875a1.5002 1.5002 0 0 0-1.3926 1.1484c-1.7386 1.3682-3.57 2.5803-5.5098 3.6719a1.5002 1.5002 0 0 0-1.5938 0.86524c-1.9726 1.0028-4.0188 1.8295-6.1523 2.5234a1.5002 1.5002 0 0 0-1.6719 0.51758c-2.137 0.59944-4.3261 1.0084-6.584 1.2734a1.5002 1.5002 0 0 0-1.6582 0.16601c-1.132 0.0889-2.2161 0.33985-3.3711 0.33985-1.1556 0-2.2405-0.25084-3.373-0.33985a1.5002 1.5002 0 0 0-1.6582-0.16601c-2.257-0.26503-4.4459-0.67427-6.582-1.2734a1.5002 1.5002 0 0 0-1.6719-0.51953c-2.1323-0.69348-4.1788-1.5175-6.1504-2.5195a1.5002 1.5002 0 0 0-1.5977-0.86719c-1.915-1.0776-3.7262-2.2697-5.4453-3.6172a1.5002 1.5002 0 0 0-1.5254-1.2578c-1.6407-1.4116-3.1548-2.9257-4.5664-4.5664a1.5002 1.5002 0 0 0-1.2578-1.5254c-1.3298-1.6966-2.509-3.4816-3.5762-5.3691a1.5002 1.5002 0 0 0-0.94726-1.7442c-0.9721-1.9216-1.7735-3.9143-2.4531-5.9883a1.5002 1.5002 0 0 0-0.57422-1.8496c-0.57748-2.0757-0.97182-4.201-1.2344-6.3906a1.5002 1.5002 0 0 0-0.18945-1.8691c-0.08357-1.0979-0.32812-2.1481-0.32812-3.2676 0-1.1188 0.24466-2.1684 0.32812-3.2656a1.5002 1.5002 0 0 0 0.18945-1.8691c0.26248-2.1899 0.6569-4.3147 1.2344-6.3906a1.5002 1.5002 0 0 0 0.57422-1.8516c0.67986-2.0745 1.4826-4.0663 2.4551-5.9883a1.5002 1.5002 0 0 0 0.94531-1.7422c1.0672-1.8875 2.2464-3.6726 3.5762-5.3691a1.5002 1.5002 0 0 0 1.2578-1.5234c1.4119-1.6411 2.9254-3.1564 4.5664-4.5684a1.5002 1.5002 0 0 0 1.5254-1.2578c1.7191-1.3475 3.5303-2.5396 5.4453-3.6172a1.5002 1.5002 0 0 0 1.5957-0.86523c1.9723-1.0025 4.0192-1.8277 6.1523-2.5215a1.5002 1.5002 0 0 0 1.6719-0.51953c2.1368-0.59934 4.3263-1.0084 6.584-1.2734a1.5002 1.5002 0 0 0 1.6562-0.16602c1.1326-0.089 2.2174-0.33984 3.373-0.33984zm-26.615 3.3008 2.0352 0.92773c-0.66123 0.41895-1.3191 0.82431-1.957 1.2754zm53.229 0-0.07813 2.2031c-0.63794-0.45108-1.2958-0.85644-1.957-1.2754zm-60.488 5.9551 2.1719 0.51172c-0.57016 0.54192-1.1182 1.09-1.6602 1.6602zm67.748 0-0.51172 2.1719c-0.54192-0.57016-1.09-1.1182-1.6602-1.6602zm-73.703 7.2598 2.2031 0.07813c-0.45108 0.63794-0.85644 1.2958-1.2754 1.957zm79.658 0-0.92774 2.0352c-0.41895-0.66123-0.82431-1.3191-1.2754-1.957zm-81.934 7.9316c-0.31627 0.71058-0.56486 1.4449-0.8457 2.1738l-1.3086-1.8223zm84.209 0 2.1562 0.35156-1.3106 1.8222c-0.28084-0.72893-0.52943-1.4632-0.8457-2.1738zm-87.043 8.5742c-0.16974 0.75565-0.27024 1.5258-0.40234 2.2949l-1.6387-1.5312zm89.877 0 2.041 0.76367-1.6387 1.5312c-0.13211-0.76912-0.2326-1.5393-0.40235-2.2949zm-90.951 8.9375c-0.01018 0.39826-0.11719 0.76923-0.11719 1.1699 0 0.40061 0.10701 0.77174 0.11719 1.1699l-1.8887-1.1699zm92.025 0 1.8887 1.1699-1.8887 1.1699c0.0102-0.39818 0.11719-0.76931 0.11719-1.1699 0-0.4007-0.10701-0.77166-0.11719-1.1699zm-91.354 8.9844c0.13199 0.7684 0.23279 1.538 0.40234 2.293l-2.0391-0.76367zm90.682 0 1.6367 1.5293-2.0391 0.76367c0.16956-0.75495 0.27036-1.5246 0.40235-2.293zm-88.291 8.6953c0.28052 0.7281 0.52788 1.4621 0.84375 2.1719l-2.1504-0.35156zm85.9 0 1.3086 1.8203-2.1543 0.35156c0.31601-0.71007 0.56507-1.4435 0.8457-2.1719zm-81.852 8.0703c0.41895 0.66123 0.82431 1.3191 1.2754 1.957l-2.2031 0.07813zm77.803 0 0.92774 2.0352-2.2031-0.07813c0.45108-0.63794 0.85644-1.2958 1.2754-1.957zm-72.264 7.1229c0.54192 0.57016 1.09 1.1182 1.6602 1.6602l-2.1719 0.51172zm66.725 0 0.51172 2.1719-2.1719-0.51172c0.57016-0.54192 1.1182-1.09 1.6602-1.6602zm-59.898 5.9238c0.63794 0.45108 1.2958 0.85645 1.957 1.2754l-2.0352 0.92774zm53.072 0 0.07813 2.2031-2.0352-0.92774c0.66123-0.41894 1.3191-0.82431 1.957-1.2754zm-7.8535 4.4785-0.35156 2.1543-1.8223-1.3086c0.72893-0.28084 1.4632-0.52943 2.1738-0.8457zm-37.363 2e-3c0.70979 0.31587 1.4438 0.56323 2.1719 0.84375l-1.8203 1.3066zm8.5742 2.832c0.75495 0.16956 1.5246 0.27036 2.293 0.40235l-1.5293 1.6367zm20.215 0-0.76367 2.041-1.5312-1.6387c0.76912-0.13211 1.5393-0.2326 2.2949-0.40235zm-11.277 1.0742c0.39818 0.0102 0.76931 0.11719 1.1699 0.11719 0.4007 0 0.77166-0.10701 1.1699-0.11719l-1.1699 1.8887z" color="#000000" style="-inkscape-stroke:none"/>
  </g>
 </g>
</svg>
