<svg width="600" height="600" version="1.1" viewBox="0 0 600 600" xmlns="http://www.w3.org/2000/svg">
 <rect width="600" height="600" fill="#800000" stroke-width=".97779"/>
 <g fill="#fff" aria-label="Schema .org">
  <path d="m104.98 159.44v12.825q-7.487-3.5807-14.128-5.3385t-12.825-1.7578q-10.742 0-16.602 4.1667-5.7943 4.1667-5.7943 11.849 0 6.4453 3.8411 9.7656 3.9062 3.2552 14.714 5.2734l7.9427 1.6276q14.714 2.7995 21.68 9.8958 7.0312 7.0312 7.0312 18.88 0 14.128-9.5052 21.419-9.4401 7.2916-27.734 7.2916-6.901 0-14.714-1.5625-7.7474-1.5625-16.081-4.6224v-13.542q8.0078 4.4922 15.69 6.7708t15.104 2.2786q11.263 0 17.383-4.4271 6.1198-4.4271 6.1198-12.63 0-7.1614-4.4271-11.198-4.362-4.0364-14.388-6.0547l-8.0078-1.5625q-14.714-2.9297-21.289-9.1797-6.5755-6.25-6.5755-17.383 0-12.891 9.0495-20.312 9.1146-7.4218 25.065-7.4218 6.8359 0 13.932 1.237 7.0963 1.237 14.518 3.7109z"/>
  <path d="m183.3 183.33v11.198q-5.0781-2.7995-10.221-4.1667-5.0781-1.4323-10.286-1.4323-11.654 0-18.099 7.4219-6.4453 7.3568-6.4453 20.703t6.4453 20.768q6.4453 7.3568 18.099 7.3568 5.2083 0 10.286-1.3672 5.1432-1.4323 10.221-4.2318v11.068q-5.013 2.3437-10.417 3.5156-5.3385 1.1719-11.393 1.1719-16.471 0-26.172-10.352-9.7005-10.352-9.7005-27.93 0-17.838 9.7656-28.06 9.8307-10.221 26.888-10.221 5.5338 0 10.807 1.1719 5.2734 1.1068 10.221 3.3854z"/>
  <path d="m264.75 209.44v44.01h-11.979v-43.62q0-10.352-4.0364-15.495-4.0364-5.1432-12.109-5.1432-9.7005 0-15.299 6.1849-5.5989 6.1849-5.5989 16.862v41.211h-12.044v-101.3h12.044v39.713q4.2969-6.5755 10.091-9.8307 5.8594-3.2552 13.477-3.2552 12.565 0 19.01 7.8125 6.4453 7.7474 6.4453 22.852z"/>
  <path d="m351.01 214v5.8594h-55.078q0.78125 12.37 7.4219 18.88 6.7057 6.4453 18.62 6.4453 6.901 0 13.346-1.6927 6.5104-1.6927 12.891-5.0781v11.328q-6.4453 2.7344-13.216 4.1667-6.7708 1.4323-13.737 1.4323-17.448 0-27.669-10.156-10.156-10.156-10.156-27.474 0-17.904 9.6354-28.385 9.7005-10.547 26.107-10.547 14.714 0 23.242 9.5052 8.5937 9.4401 8.5937 25.716zm-11.979-3.5156q-0.13021-9.8307-5.5338-15.69-5.3385-5.8594-14.193-5.8594-10.026 0-16.081 5.664-5.9896 5.664-6.901 15.95z"/>
  <path d="m427.44 194.53q4.4922-8.0729 10.742-11.914 6.25-3.8411 14.714-3.8411 11.393 0 17.578 8.0078 6.1849 7.9427 6.1849 22.656v44.01h-12.044v-43.62q0-10.482-3.7109-15.56-3.7109-5.0781-11.328-5.0781-9.3099 0-14.714 6.1849-5.4036 6.1849-5.4036 16.862v41.211h-12.044v-43.62q0-10.547-3.7109-15.56-3.7109-5.0781-11.458-5.0781-9.1797 0-14.583 6.25-5.4036 6.1849-5.4036 16.797v41.211h-12.044v-72.916h12.044v11.328q4.1016-6.7057 9.8307-9.8958 5.7292-3.1901 13.607-3.1901 7.9427 0 13.477 4.0364 5.599 4.0364 8.2682 11.719z"/>
  <path d="m533.69 216.8q-14.518 0-20.117 3.3203-5.599 3.3203-5.599 11.328 0 6.3802 4.1667 10.156 4.2318 3.7109 11.458 3.7109 9.9609 0 15.95-7.0312 6.0547-7.0963 6.0547-18.815v-2.6693zm23.893-4.9479v41.601h-11.979v-11.068q-4.1016 6.6406-10.221 9.8307-6.1198 3.125-14.974 3.125-11.198 0-17.838-6.25-6.5755-6.3151-6.5755-16.862 0-12.305 8.2031-18.555 8.2682-6.25 24.609-6.25h16.797v-1.1719q0-8.2682-5.4687-12.76-5.4036-4.5573-15.234-4.5573-6.25 0-12.174 1.4974-5.9245 1.4974-11.393 4.4922v-11.068q6.5755-2.539 12.76-3.776 6.1849-1.3021 12.044-1.3021 15.82 0 23.633 8.2031 7.8125 8.2031 7.8125 24.87z"/>
  <path d="m47.885 403.58h13.737v16.536h-13.737z"/>
  <path d="m116.83 355.6q-9.6354 0-15.234 7.5521-5.5989 7.487-5.5989 20.573 0 13.086 5.5338 20.638 5.599 7.487 15.299 7.487 9.5703 0 15.169-7.5521 5.599-7.5521 5.599-20.573 0-12.956-5.599-20.508-5.5989-7.6172-15.169-7.6172zm0-10.156q15.625 0 24.544 10.156 8.9192 10.156 8.9192 28.125 0 17.904-8.9192 28.125-8.9192 10.156-24.544 10.156-15.69 0-24.609-10.156-8.8541-10.221-8.8541-28.125 0-17.969 8.8541-28.125 8.9193-10.156 24.609-10.156z"/>
  <path d="m212.4 358.4q-2.0182-1.1719-4.4271-1.6927-2.3437-0.58593-5.2083-0.58593-10.156 0-15.625 6.6406-5.4036 6.5755-5.4036 18.945v38.411h-12.044v-72.916h12.044v11.328q3.776-6.6406 9.8307-9.8307 6.0547-3.2552 14.714-3.2552 1.237 0 2.7344 0.19531 1.4974 0.13021 3.3203 0.45573z"/>
  <path d="m270.61 382.81q0-13.021-5.4036-20.182-5.3385-7.1614-15.039-7.1614-9.6354 0-15.039 7.1614-5.3385 7.1614-5.3385 20.182 0 12.956 5.3385 20.117 5.4036 7.1614 15.039 7.1614 9.7005 0 15.039-7.1614 5.4036-7.1614 5.4036-20.117zm11.979 28.255q0 18.62-8.2682 27.669-8.2682 9.1146-25.325 9.1146-6.3151 0-11.914-0.97656-5.599-0.91145-10.872-2.8646v-11.654q5.2734 2.8646 10.417 4.2318 5.1432 1.3672 10.482 1.3672 11.784 0 17.643-6.1849 5.8594-6.1198 5.8594-18.555v-5.9245q-3.7109 6.4453-9.5052 9.6354-5.7942 3.1901-13.867 3.1901-13.411 0-21.615-10.221-8.2031-10.221-8.2031-27.083 0-16.927 8.2031-27.148 8.2031-10.221 21.615-10.221 8.0729 0 13.867 3.1901 5.7943 3.1901 9.5052 9.6354v-11.068h11.979z"/>
 </g>
</svg>
