<svg width="1200" height="1200" version="1.1" viewBox="0 0 1200 1200" xmlns="http://www.w3.org/2000/svg">
 <defs>
  <linearGradient id="cloudflare-pages-logo-gradient" x1="76.765" x2="22.746" y1="1.1266" y2="53.45" gradientTransform="matrix(.80865 0 0 1.2366 448.33 482.45)" gradientUnits="userSpaceOnUse">
   <stop stop-color="#fbb743" offset="0"/>
   <stop stop-color="#f28333" offset="1"/>
   <stop stop-color="#ea6b00" offset="1"/>
  </linearGradient>
 </defs>
 <g transform="matrix(1.1958 0 0 1.1958 -52.506 -141.47)">
  <g transform="matrix(.74943 0 0 .74943 573.16 680.27)">
   <path id="tanuki-head" d="m109.34 11.336a21.87 21.87 0 0 0-8.2793 3.0449 21.464 21.464 0 0 0-8.4043 10.123l-81.824 213.04-0.8125 2.1543a151.65 151.65 0 0 0 50.301 175.27l0.28125 0.21875 0.75 0.53125 124.41 93.164 61.547 46.584 37.49 28.305a25.213 25.213 0 0 0 30.494 0l37.49-28.305 61.547-46.584 125.16-93.727 0.3125-0.25a151.71 151.71 0 0 0 50.238-175.08l-0.84375-2.1543-81.668-213.14a21.276 21.276 0 0 0-8.4043-10.123 21.87 21.87 0 0 0-24.994 1.3438 21.87 21.87 0 0 0-7.248 10.998l-55.143 168.71h-223.29l-55.143-168.71a21.432 21.432 0 0 0-7.248-11.029 21.87 21.87 0 0 0-16.715-4.3887z" fill="#e24329" opacity=".99" stroke-linecap="round" stroke-linejoin="round"/>
   <g id="tanuki-cheek" transform="matrix(.24059 0 0 .24059 172.39 320.12)" fill="#fc6d26" stroke-width="2.602">
    <path d="m1776.8-135.72c2.8622 67.652-5.2041 135.56-23.939 200.88-18.734 65.311-47.877 127.24-86.387 183.18s-85.606 105.38-139.73 146.23l-1.301 1.0408-520.14 389.78s-220.91-166.79-474.87-359.08l745.48-564.12c33.566-25.24 68.693-48.397 104.86-69.734 36.168-21.597 73.637-40.852 111.89-58.025 38.51-17.173 77.8-32.525 117.61-45.275 40.071-13.01 80.662-23.678 122.03-32.265l3.3827 9.107c24.199 63.489 37.989 130.36 41.112 198.27z"/>
    <path d="m530.39 425.79c-254.22 192.29-474.87 359.08-474.87 359.08l-517.02-387.44-3.1224-2.0816-1.0408-1.0408c-54.382-40.852-101.48-90.29-139.99-146.23-38.51-55.943-67.652-117.87-86.387-183.18-18.734-65.311-26.801-133.22-23.939-201.14 3.1224-67.913 16.913-134.78 41.112-198.27l3.3826-9.107c41.372 8.5866 81.963 19.255 122.03 32.265 39.811 13.01 79.101 28.102 117.61 45.535 38.25 17.173 75.719 36.688 111.89 58.025 36.168 21.336 71.035 44.755 104.86 69.994z"/>
   </g>
   <path id="tanuki-snout" d="m300 422.68c61.1 46.138 114.31 86.391 114.31 86.391l-61.538 46.639-37.499 28.296c-2.1911 1.6903-4.6326 2.9423-7.1992 3.8187-2.5667 0.87644-5.3212 1.3146-8.0757 1.3146-2.6919 0-5.4464-0.43821-8.0131-1.3146-2.5667-0.87641-5.0082-2.1285-7.1992-3.8187l-37.499-28.296-61.538-46.639s53.149-40.253 114.25-86.391z" fill="#fca326" stroke-width=".62602"/>
  </g>
  <g transform="matrix(.9714 0 0 .9714 12.114 375.68)">
   <g transform="matrix(9.6448,0,0,9.6448,-4371.2,-4680.9)">
    <path d="m494.27 492.45h14.06l2 2v44l-2 2h-19.16l0.97-1.5h17.57l1.12-1.12v-42.76l-1.12-1.12h-12.12l-1.43 7.39h-1.53l1.37-7.46 0.28-1.43zm-33.94 48-2-2v-44l2-2h19.9l-1.01 1.5h-18.27l-1.12 1.12v42.76l1.12 1.12h14.48l-0.24 1.5zm3-5h8.5l-0.3 1.5h-9.2l-0.5-0.5v-9l1.5 3zm34 0 1.5 1.5h-7.5l1-1.5z" fill="#b7bbbd"/>
    <path d="m481 522.45h-13.67l-1.66-3.12 23-34 3.62 1.5-4.54 23.62h13.58l1.68 3.09-22 34-3.66-1.4zm-17.17-23a1.5 1.5 0 1 1 0-3 1.5 1.5 0 0 1 0 3zm4 0a1.5 1.5 0 1 1 0-3 1.5 1.5 0 0 1 0 3zm4 0a1.5 1.5 0 1 1 0-3 1.5 1.5 0 0 1 0 3z" fill="url(#cloudflare-pages-logo-gradient)" style="fill:url(#cloudflare-pages-logo-gradient)"/>
   </g>
  </g>
  <g transform="matrix(.41946 0 0 .41946 527.94 118.3)">
   <g id="logo-foreground" transform="scale(1.1719)" fill="none">
    <path transform="scale(64)" d="m8 0c-4.42 0-8 3.58-8 8 0 3.54 2.29 6.53 5.47 7.59 0.4 0.07 0.55-0.17 0.55-0.38 0-0.19-0.01-0.82-0.01-1.49-2.01 0.37-2.53-0.49-2.69-0.94-0.09-0.23-0.48-0.94-0.82-1.13-0.28-0.15-0.68-0.52-0.01-0.53 0.63-0.01 1.08 0.58 1.23 0.82 0.72 1.21 1.87 0.87 2.33 0.66 0.07-0.52 0.28-0.87 0.51-1.07-1.78-0.2-3.64-0.89-3.64-3.95 0-0.87 0.31-1.59 0.82-2.15-0.08-0.2-0.36-1.02 0.08-2.12 0 0 0.67-0.21 2.2 0.82 0.64-0.18 1.32-0.27 2-0.27s1.36 0.09 2 0.27c1.53-1.04 2.2-0.82 2.2-0.82 0.44 1.1 0.16 1.92 0.08 2.12 0.51 0.56 0.82 1.27 0.82 2.15 0 3.07-1.87 3.75-3.65 3.95 0.29 0.25 0.54 0.73 0.54 1.48 0 1.07-0.01 1.93-0.01 2.2 0 0.21 0.15 0.46 0.55 0.38 3.16-1.06 5.45-4.06 5.45-7.59 0-4.42-3.58-8-8-8z" clip-rule="evenodd" fill="#1b1f23" fill-rule="evenodd"/>
   </g>
  </g>
 </g>
</svg>
