<svg width="1200" height="1200" version="1.1" viewBox="0 0 1200 1200" xmlns="http://www.w3.org/2000/svg">
 <g transform="matrix(11.723 0 0 11.723 226.79 409.51)" clip-rule="evenodd" stroke-linejoin="round" stroke-miterlimit="1.414" stroke-width=".26458">
  <path d="m73.906 30.733v-32.346c0-4.2063-2.2278-8.0978-5.8542-10.229-7.7832-4.5728-21.534-12.652-29.955-17.6-4.4476-2.612-9.9721-2.5532-14.362 0.15346-7.4533 4.5958-19.082 11.766-26.588 16.395-4.527 2.7914-7.284 7.7285-7.284 13.047v33.118c0 5.2753 2.7993 10.154 7.3528 12.816l27.707 16.196c3.683 2.1537 8.2312 2.2005 11.959 0.12436 8.091-4.5074 22.421-12.487 30.676-17.085 3.9158-2.1828 6.3421-6.313 6.3421-10.795v-3.7941z" fill="#ff4088" fill-rule="evenodd"/>
  <path d="m31.081-34.933h0.07329l0.06535 7.93e-4h0.37412l0.06535 0.0026h0.0079l0.06535 0.0026h0.0071l0.06615 0.0026h0.0053l0.06615 0.0026h0.0079l0.0635 0.0026h0.0079l0.0635 0.0026h0.0053l0.06615 0.0026h0.0079l0.06615 0.0053h0.0079l0.0635 0.0053h0.0053l0.0635 0.0053h0.0079l0.06615 0.0053h0.0053l0.0635 0.0053h0.0079l0.06615 0.0053h0.0079l0.06615 0.0053h0.0079l0.06615 0.0053h0.0079l0.0635 0.0053h0.0079l0.0635 0.0053h0.0079l0.06615 0.0053h0.0079l0.06615 0.0079h0.0079l0.06615 0.0079h0.0053l0.0635 0.0079h0.0079l0.0635 0.0079h0.0079l0.06615 0.0079h0.0079l0.06615 0.0079h0.0053l0.0635 0.0079h0.0079l0.06615 0.0079h0.0079l0.0635 0.01058 0.0079 0.0026 0.06615 0.01058h0.0079l0.0635 0.01058h0.0053l0.06615 0.01058h0.0079l0.0635 0.01058h0.0079l0.0635 0.01058h0.0053l0.06614 0.01058h0.0079l0.0635 0.01058 0.0079 0.0026 0.0635 0.01058 0.0079 0.0026 0.0635 0.01323h0.0079l0.0635 0.01058h0.0079l0.0635 0.01323h0.0079l0.06615 0.01323h0.0053l0.0635 0.01323h0.0079l0.0635 0.01323h0.0053l0.06615 0.01323 0.0079 0.0026 0.06615 0.01323h0.0053l0.0635 0.01588 0.0079 0.0026 0.0635 0.01588h0.0079l0.06615 0.01587 0.0053 0.0026 0.0635 0.01323 0.0079 0.0026 0.0635 0.01323 0.0053 0.0026 0.0635 0.01588h0.0079l0.0635 0.01588 0.0079 0.0026 0.0635 0.01588 0.0053 0.0026 0.06615 0.01588 0.0053 0.0026 0.0635 0.01588 0.0079 0.0026 0.0635 0.01588h0.0053l0.0635 0.01852h0.0079l0.06615 0.01588 0.0079 0.0026 0.0635 0.01588h0.0079l0.0635 0.01852 0.0079 0.0026 0.0635 0.01852 0.0079 0.0026 0.0635 0.01852 0.0079 0.0026 0.0635 0.01852 0.0053 0.0026 0.0635 0.01852 0.0079 0.0026 0.0635 0.01852 0.0079 0.0026 0.0635 0.01852 0.0079 0.0026 0.0635 0.02117 0.0053 0.0026 0.0635 0.02117h0.0079l0.0635 0.02117h0.0079l0.0635 0.02117 0.0079 0.0026 0.0635 0.02117 0.0079 0.0026 0.0635 0.02117 0.0053 0.0026 0.0635 0.02117 0.0079 0.0026 0.0635 0.02117 0.0053 0.0026 0.0635 0.02117 0.0053 0.0026 0.06085 0.02117 0.0079 0.0026 0.06085 0.02117 0.0079 0.0026 0.06086 0.02381 0.0079 0.0026 0.0635 0.02381 0.0079 0.0026 0.06085 0.02381 0.0053 0.0026 0.0635 0.02117 0.0053 0.0026 0.0635 0.02381 0.0079 0.0026 0.0635 0.02381 0.0079 0.0026 0.06085 0.02381 0.0079 0.0026 0.06085 0.02646 0.0053 0.0026 0.0635 0.02381 0.0079 0.0026 0.06085 0.02646 0.0079 0.0026 0.0635 0.02646 0.0079 0.0026 0.0635 0.02646 0.0053 0.0026 0.0635 0.02646 0.0053 0.0026 0.06085 0.02646 0.0053 0.0026 0.06085 0.02646 0.0053 0.0026 0.0635 0.02646 0.0053 0.0026 0.06085 0.02646 0.0079 0.0026 0.06085 0.02646 0.0079 0.0026 0.06085 0.02646 0.0053 0.0026 0.06085 0.0291 0.0079 0.0026 0.06085 0.0291 0.0079 0.0026 0.06085 0.0291 0.0053 0.0026 0.06085 0.0291 0.0053 0.0026 0.06085 0.0291 0.0079 0.0026 0.06085 0.0291 0.0079 0.0026 0.06086 0.0291 0.0079 0.0026 0.06085 0.0291 0.0053 0.0026 0.06085 0.03175 0.0053 0.0053 0.06085 0.0291 0.0053 0.0026 0.05821 0.03175 0.0079 0.0026 0.06085 0.0291 0.0053 0.0026 0.06085 0.03175 0.0079 0.0026 0.05821 0.03175 0.0079 0.0053 0.06085 0.03175 0.0079 0.0026 0.06085 0.03175 0.0053 0.0026 0.05821 0.03175 0.0079 0.0053 0.06085 0.03175 0.0053 0.0053 0.05821 0.0344 0.0053 0.0053 0.05821 0.0344 0.0079 0.0026 0.05821 0.0344 0.0053 0.0026 0.05821 0.0344 0.0053 0.0053 0.05821 0.0344 0.0079 0.0053 0.05556 0.0344h0.0053l29.977 17.613 0.05027 0.0291 0.0053 0.0053 0.05027 0.0291 0.0079 0.0026 0.04762 0.03175 0.0053 0.0053 0.04762 0.0291 0.0053 0.0053 0.04763 0.0291 0.0053 0.0026 0.04762 0.0291 0.0053 0.0026 0.04763 0.0291 0.0053 0.0026 0.04762 0.0291 0.0079 0.0026 0.04762 0.03175 0.0053 0.0026 0.04763 0.03175 0.0079 0.0026 0.04762 0.0291 0.0053 0.0026 0.04763 0.03175 0.0053 0.0053 0.04762 0.03175 0.0053 0.0053 0.04498 0.0291 0.0079 0.0026 0.04762 0.03175 0.0053 0.0026 0.04762 0.03175 0.0053 0.0026 0.04498 0.03175 0.0053 0.0026 0.04498 0.03175 0.0053 0.0026 0.04498 0.03175 0.0053 0.0053 0.04498 0.03175 0.0053 0.0026 0.04498 0.0344 0.0079 0.0053 0.04498 0.03175 0.0053 0.0026 0.04498 0.03175 0.0053 0.0026 0.04498 0.03175 0.0053 0.0053 0.04498 0.03175 0.0053 0.0026 0.04498 0.03175 0.0053 0.0053 0.04498 0.03175 0.0053 0.0053 0.04498 0.0344 0.0079 0.0053 0.04233 0.0344 0.0079 0.0053 0.04498 0.0344 0.0079 0.0026 0.04498 0.0344 0.0053 0.0053 0.04498 0.0344 0.0053 0.0053 0.04233 0.0344 0.0079 0.0053 0.04498 0.03704 0.0079 0.0079 0.08467 0.06879 0.01058 0.0079 0.08467 0.07144 0.01058 0.0079 0.08731 0.07144 0.01058 0.0079 0.08731 0.07144 0.01058 0.0079 0.08467 0.07144 0.01058 0.01058 0.08467 0.07144 0.01058 0.0079 0.08202 0.07408 0.01058 0.0079 0.08202 0.07408 0.01058 0.0079 0.08202 0.07673 0.01058 0.0079 0.07937 0.07408 0.01058 0.0079 0.08202 0.07673 0.01058 0.01058 0.07937 0.07673 0.01058 0.01058 0.07937 0.07673 0.09789 0.09789 0.07673 0.07938 0.01058 0.01058 0.07673 0.07938 0.0079 0.01058 0.07673 0.07937 0.01058 0.01058 0.07408 0.07937 0.01058 0.01058 0.07408 0.07938 0.01058 0.01058 0.07408 0.07938 0.01058 0.01058 0.07408 0.08202 0.01058 0.01058 0.07144 0.08467 0.0079 0.01058 0.07408 0.08202 0.01058 0.01058 0.07144 0.08467 0.01058 0.01058 0.07144 0.08467 0.0079 0.01058 0.07144 0.08467 0.01058 0.01058 0.06879 0.08467 0.0079 0.01058 0.06879 0.08467 0.01058 0.01058 0.06879 0.08731 0.0079 0.01058 0.06615 0.08731 0.0079 0.01058 0.06615 0.08731 0.0079 0.01058 0.06614 0.08731 0.0079 0.01323 0.06615 0.08996 0.0079 0.01058 0.06615 0.08731 0.0079 0.01323 0.0635 0.08996 0.0079 0.01058 0.0635 0.08996 0.0079 0.01058 0.0635 0.08996 0.0079 0.01323 0.06085 0.08996 0.0079 0.01323 0.06085 0.0926 0.0079 0.01323 0.05821 0.08996 0.0079 0.01058 0.05821 0.089958 0.0079 0.010583 0.06085 0.092604 0.0079 0.010583 0.05821 0.092604 0.0079 0.013229 0.05556 0.092604 0.0079 0.013229 0.05821 0.092604 0.0079 0.013229 0.05556 0.092604 0.0079 0.013229 0.05556 0.09525 0.0079 0.010583 0.05292 0.09525 0.0079 0.013229 0.05292 0.09525 0.0079 0.013229 0.05292 0.09525 0.0079 0.013229 0.05292 0.09525 0.0053 0.013229 0.05292 0.097896 0.0053 0.013229 0.05027 0.097896 0.0053 0.013229 0.05027 0.097896 0.0079 0.010583 0.04762 0.10054 0.0053 0.013229 0.05027 0.097896 0.0053 0.013229 0.04762 0.097896 0.0079 0.013229 0.04498 0.10054 0.0053 0.013229 0.04498 0.10054 0.0053 0.013229 0.04498 0.10054 0.0053 0.013229 0.04498 0.10054 0.0053 0.013229 0.04233 0.10054 0.0053 0.013229 0.04233 0.10054 0.0053 0.013229 0.03969 0.10319 0.0053 0.013229 0.03969 0.10054 0.0053 0.013229 0.03969 0.10319 0.0053 0.013229 0.03969 0.10319 0.0053 0.013229 0.03969 0.10319 0.0053 0.013229 0.03704 0.10319 0.0053 0.013229 0.0344 0.10319 0.0053 0.013229 0.0344 0.10319 0.0053 0.013229 0.0344 0.10319 0.0053 0.013229 0.0344 0.10583 0.0026 0.013229 0.03175 0.10319 0.0053 0.013229 0.03175 0.10583 0.0026 0.013229 0.03175 0.10583 0.0053 0.013229 0.03175 0.10583 0.0053 0.013229 0.0291 0.10583 0.0053 0.013229 0.02911 0.10583 0.0026 0.013229 0.02646 0.10583 0.0053 0.015875 0.02911 0.10848 0.0026 0.013229 0.02646 0.10848 0.0053 0.013229 0.02381 0.10848 0.0053 0.013229 0.02646 0.10848 0.0026 0.015875 0.02381 0.10848 0.0026 0.013229 0.02381 0.10848 0.0026 0.013229 0.02117 0.10848 0.0026 0.013229 0.02117 0.10848 0.0026 0.013229 0.02117 0.10848 0.0026 0.013229 0.01852 0.11112 0.0026 0.013229 0.01852 0.10848 0.0026 0.015875 0.01852 0.11112 0.0026 0.015875 0.01587 0.11112 0.0026 0.015875 0.01588 0.10848v0.010583l0.0079 0.058208v0.00529l0.0053 0.055562v0.00794l0.0079 0.055563v0.00529l0.0079 0.055563v0.00794l0.0079 0.055563 0.0026 0.00794 0.0079 0.055563v0.00794l0.0053 0.055562 0.0026 0.00529 0.0053 0.055562 0.0026 0.00794 0.0053 0.055562v0.00794l0.0053 0.055563 0.0026 0.00794 0.0053 0.055563 0.0026 0.00794 0.0053 0.055562v0.00794l0.0053 0.055562v0.00794l0.0053 0.055563v0.00794l0.0053 0.055563v0.00794l0.0053 0.055563v0.00794l0.0026 0.055562v0.00794l0.0026 0.058208v0.00794l0.0053 0.058208v0.00529l0.0026 0.055563v0.00794l0.0026 0.055563v0.00794l0.0026 0.055563v0.00794l0.0026 0.055562v0.00794l0.0026 0.058208v0.00794l0.0026 0.055562v0.00794l0.0026 0.055562v0.00529l0.0026 0.055562v36.94l-0.0026 0.06085v0.07673l-0.0026 0.06085v0.0079l-0.0026 0.05821v0.0053l-0.0026 0.06085v0.0079l-0.0026 0.05821v0.0053l-0.0026 0.05821v0.0079l-0.0026 0.05821-0.0026 0.0079-0.0026 0.05821v0.0079l-0.0026 0.05821v0.0053l-0.0026 0.06085v0.0079l-0.0053 0.06085v0.0053l-0.0053 0.06085v0.0079l-0.0053 0.05821v0.0079l-0.0026 0.05821v0.0079l-0.0053 0.05821v0.0079l-0.0053 0.05821v0.0079l-0.0053 0.05821v0.0079l-0.0053 0.05821-0.0026 0.0053-0.0053 0.06085-0.0026 0.0079-0.0053 0.05821v0.0079l-0.0053 0.05821-0.0026 0.0079-0.0079 0.05821v0.0079l-0.0079 0.05821v0.0053l-0.0079 0.05821v0.0079l-0.0079 0.05821-0.0026 0.0079-0.0079 0.06085-0.0026 0.0079-0.0079 0.05821-0.0026 0.0079-0.0079 0.05821v0.0079l-0.0079 0.05821v0.0079l-0.0079 0.05821-0.0026 0.0079-0.0079 0.05821-0.0026 0.0079-0.01058 0.05821v0.0053l-0.0079 0.05821v0.0053l-0.01058 0.05821-0.0026 0.0079-0.0079 0.05821-0.0026 0.0079-0.0079 0.05821v0.0053l-0.01058 0.05821v0.0053l-0.01058 0.05821v0.0053l-0.01058 0.05821v0.0079l-0.01058 0.05556-0.0026 0.0079-0.01058 0.05556-0.0026 0.0079-0.01058 0.05821-0.0026 0.0079-0.01323 0.05821v0.0053l-0.01323 0.05821v0.0053l-0.01058 0.05556v0.0079l-0.01323 0.05821v0.0053l-0.01058 0.05821-0.0026 0.0053-0.01323 0.05556v0.0053l-0.01323 0.05556v0.0079l-0.01323 0.05556-0.0026 0.0079-0.01323 0.05556-0.0026 0.0079-0.01323 0.05556-0.0026 0.0053-0.01323 0.05556-0.0026 0.0053-0.01323 0.05556-0.0026 0.0079-0.01587 0.05556-0.0026 0.0079-0.01323 0.05556-0.0026 0.0079-0.01587 0.05556v0.0079l-0.01588 0.05821-0.0026 0.0079-0.01587 0.05556v0.0079l-0.01588 0.05556-0.0026 0.0079-0.01587 0.05556-0.0026 0.0079-0.01588 0.05821-0.0026 0.0053-0.01587 0.05556-0.0026 0.0053-0.01587 0.05556-0.0026 0.0079-0.01852 0.05556-0.0026 0.0079-0.01588 0.05556-0.0026 0.0053-0.01587 0.05556-0.0026 0.0079-0.01587 0.05556-0.0026 0.0053-0.01852 0.05556-0.0026 0.0079-0.01852 0.05556-0.0026 0.0079-0.01852 0.05556-0.0026 0.0079-0.01852 0.05556-0.0026 0.0079-0.01852 0.05556-0.0026 0.0053-0.01852 0.05556-0.0026 0.0079-0.01852 0.05556-0.0026 0.0079-0.01852 0.05556-0.0026 0.0053-0.01852 0.05556-0.0026 0.0079-0.01852 0.05556-0.0026 0.0079-0.02117 0.05292-0.0026 0.0079-0.01852 0.05292-0.0026 0.0079-0.01852 0.05292-0.0026 0.0079-0.01852 0.05556-0.0026 0.0079-0.02117 0.05556-0.0026 0.0079-0.02117 0.05292-0.0026 0.0079-0.02117 0.05292-0.0026 0.0079-0.02117 0.05292-0.0026 0.0079-0.02117 0.05292-0.0026 0.0079-0.02117 0.05292-0.0026 0.0079-0.02117 0.05292-0.0026 0.0053-0.02381 0.05292-0.0026 0.0079-0.02381 0.05556-0.0026 0.0079-0.02117 0.05292-0.0026 0.0079-0.02381 0.05292-0.0026 0.0079-0.02381 0.05292-0.0026 0.0079-0.02381 0.05292-0.0026 0.0053-0.02381 0.05292-0.0026 0.0079-0.02381 0.05292-0.0026 0.0053-0.02381 0.05292-0.0026 0.0053-0.02381 0.05292-0.0026 0.0053-0.02381 0.05292-0.0026 0.0053-0.02646 0.05292-0.0026 0.0053-0.02646 0.05027-0.0026 0.0079-0.02381 0.05292-0.0026 0.0053-0.02646 0.05027-0.0026 0.0079-0.02381 0.05292-0.0026 0.0053-0.02646 0.05292-0.0026 0.0079-0.02646 0.05292-0.0026 0.0053-0.02646 0.05027-0.0026 0.0053-0.02646 0.05292-0.0026 0.0079-0.02646 0.05292-0.0026 0.0079-0.02646 0.05292-0.0053 0.0079-0.02646 0.05027-0.0026 0.0053-0.02646 0.05292-0.0026 0.0079-0.02646 0.05292-0.0026 0.0079-0.0291 0.05027-0.0053 0.0053-0.0291 0.05027-0.0026 0.0053-0.0291 0.05027-0.0026 0.0053-0.0291 0.05027-0.0026 0.0053-0.0291 0.05027-0.0026 0.0053-0.0291 0.05027-0.0026 0.0079-0.0291 0.05027-0.0026 0.0053-0.0291 0.05027-0.0026 0.0079-0.0291 0.05027-0.0053 0.0053-0.0291 0.05027-0.0053 0.0053-0.0291 0.05027-0.0026 0.0053-0.0291 0.05027-0.0026 0.0079-0.03175 0.05027-0.0026 0.0053-0.0291 0.04762-0.0026 0.0079-0.0291 0.04762-0.0053 0.0053-0.03175 0.05027-0.0026 0.0079-0.03175 0.04762-0.0053 0.0053-0.03175 0.04762-0.0026 0.0053-0.03175 0.05027-0.0053 0.0079-0.03175 0.04763-0.0053 0.0053-0.03175 0.04762-0.0026 0.0053-0.03175 0.05027-0.0026 0.0053-0.03175 0.04762-0.0053 0.0053-0.0344 0.04763-0.0026 0.0053-0.03175 0.04763-0.0026 0.0053-0.0344 0.04762-0.0026 0.0053-0.03175 0.04762-0.0053 0.0053-0.03175 0.04762-0.0053 0.0053-0.0344 0.04763-0.0053 0.0053-0.03175 0.04763-0.0026 0.0053-0.0344 0.04762-0.0053 0.0079-0.03175 0.04762-0.0053 0.0053-0.0344 0.04762-0.0053 0.0053-0.0344 0.04763-0.0053 0.0053-0.0344 0.04763-0.0053 0.0053-0.0344 0.04762-0.0026 0.0053-0.0344 0.04498-0.0053 0.0053-0.0344 0.04498-0.0026 0.0053-0.03704 0.04498-0.0053 0.0053-0.0344 0.04498-0.0026 0.0053-0.0344 0.04763-0.0053 0.0053-0.03704 0.04763-0.0053 0.0053-0.03704 0.04498-0.0053 0.0053-0.03704 0.04498-0.0026 0.0053-0.03704 0.04498-0.0053 0.0053-0.03704 0.04498-0.0053 0.0053-0.03704 0.04498-0.0053 0.0053-0.03704 0.04498-0.0053 0.0053-0.03704 0.04498-0.0026 0.0053-0.03704 0.04498-0.0053 0.0053-0.03969 0.04498-0.0053 0.0053-0.03704 0.04498-0.0053 0.0053-0.03704 0.04498-0.0053 0.0053-0.03704 0.04498-0.0053 0.0053-0.03704 0.04498-0.0053 0.0053-0.03704 0.04233-0.0053 0.0053-0.03969 0.04498-0.0053 0.0053-0.03704 0.04498-0.0053 0.0053-0.03969 0.04498-0.0053 0.0053-0.03704 0.04498-0.0053 0.0053-0.03969 0.04233-0.0053 0.0053-0.03969 0.04233-0.0053 0.0053-0.03969 0.04233-0.0053 0.0053-0.03969 0.04233-0.0053 0.0053-0.03969 0.04233-0.0053 0.0053-0.03969 0.04233-0.0053 0.0053-0.03969 0.04233-0.0053 0.0053-0.03969 0.04233-0.05293 0.05293-0.03969 0.04233-0.09262 0.09262-0.0079 0.0053-0.04763 0.04763-0.04233 0.03969-0.05293 0.05293-0.04233 0.03969-0.0053 0.0053-0.04233 0.03969-0.0053 0.0053-0.04233 0.03969-0.0053 0.0053-0.04233 0.03969-0.0053 0.0053-0.04233 0.03969-0.0053 0.0053-0.04233 0.03969-0.0053 0.0053-0.04498 0.03969-0.0053 0.0026-0.04233 0.03969-0.0053 0.0053-0.04498 0.03969-0.0053 0.0053-0.04498 0.03969-0.0053 0.0026-0.04498 0.03969-0.0053 0.0053-0.04498 0.03704-0.0079 0.0053-0.04498 0.03704-0.0053 0.0053-0.04498 0.03969-0.0053 0.0053-0.04498 0.03969-0.0053 0.0053-0.04498 0.03969-0.0053 0.0053-0.04498 0.03704-0.0053 0.0053-0.04763 0.03704-0.0053 0.0026-0.04498 0.03704-0.0053 0.0053-0.04498 0.03704-0.0079 0.0053-0.04498 0.03704-0.0053 0.0053-0.04498 0.03704-0.0053 0.0053-0.04498 0.03704-0.0053 0.0053-0.04762 0.03704-0.0053 0.0053-0.04498 0.0344-0.0053 0.0053-0.04762 0.03704-0.0053 0.0053-0.04762 0.03704-0.0053 0.0053-0.04762 0.03704-0.0053 0.0053-0.04763 0.03704-0.0053 0.0026-0.04762 0.0344-0.0053 0.0026-0.04762 0.03439-0.0053 0.0026-0.04763 0.0344-0.0079 0.0026-0.04762 0.0344-0.0053 0.0053-0.04763 0.0344-0.0053 0.0053-0.04762 0.0344-0.0053 0.0053-0.04762 0.0344-0.0079 0.0053-0.04762 0.0344-0.0053 0.0026-0.05027 0.0344-0.0079 0.0026-0.05027 0.0344-0.0053 0.0053-0.05027 0.03439-0.0053 0.0053-0.05027 0.03175-0.0053 0.0053-0.05027 0.0344-0.0053 0.0053-0.04763 0.0344-0.0079 0.0053-0.05027 0.03175-0.0053 0.0026-0.05027 0.03175-0.0079 0.0026-0.05027 0.03175-0.0053 0.0053-0.05027 0.03175-0.0053 0.0053-0.05027 0.03175-0.0053 0.0026-0.05027 0.03175-0.0079 0.0026-0.05027 0.03175-0.0053 0.0053-0.05027 0.03175-0.0079 0.0026-0.05027 0.03175-0.0079 0.0053-0.05027 0.03175-0.0079 0.0053-0.05292 0.03175-0.0053 0.0053-0.05027 0.0291-0.0079 0.0026-0.05027 0.0291-0.0053 0.0053-0.05292 0.03175-0.0079 0.0053-0.05292 0.02911-0.0053 0.0053-0.05027 0.0291-0.0079 0.0026-0.05292 0.0291-0.0079 0.0026-0.05292 0.0291-0.0053 0.0026-0.05027 0.0291-0.0026 0.0026-30.673 17.092h-0.0026l-0.04763 0.0291-0.0079 0.0026-0.05027 0.02911-0.0079 0.0053-0.05027 0.02646-0.0079 0.0026-0.05027 0.02646-0.0053 0.0026-0.05027 0.02646-0.0079 0.0026-0.05027 0.02646-0.0079 0.0026-0.05027 0.02646-0.0079 0.0026-0.05027 0.02646-0.0053 0.0026-0.05027 0.02646-0.0053 0.0026-0.05027 0.02381-0.0053 0.0026-0.05292 0.02646-0.0053 0.0053-0.05027 0.02646-0.0053 0.0026-0.05027 0.02381-0.0053 0.0026-0.05027 0.02381-0.0053 0.0026-0.05027 0.02646-0.0053 0.0026-0.05292 0.02381-0.0053 0.0026-0.05027 0.02381-0.0053 0.0026-0.05292 0.02381-0.0053 0.0026-0.05027 0.02381-0.0053 0.0026-0.05027 0.02381-0.0079 0.0053-0.05292 0.02381-0.0053 0.0026-0.05292 0.02117-0.0053 0.0026-0.05292 0.02381-0.0053 0.0053-0.05292 0.02381-0.0079 0.0026-0.05027 0.02117-0.0053 0.0026-0.05292 0.02381-0.0053 0.0026-0.05292 0.02117-0.0053 0.0026-0.05292 0.02117-0.0053 0.0026-0.05292 0.02117-0.0079 0.0026-0.05292 0.02117-0.0079 0.0026-0.05292 0.02117-0.0079 0.0026-0.05027 0.02117-0.0053 0.0026-0.05292 0.01852-0.0053 0.0026-0.05292 0.02117-0.0079 0.0026-0.05292 0.02117-0.0079 0.0026-0.05292 0.02117-0.0079 0.0026-0.05292 0.01852-0.0079 0.0026-0.05292 0.02117-0.0079 0.0026-0.05292 0.01852-0.0053 0.0026-0.05292 0.01852-0.0079 0.0026-0.05292 0.01852-0.0079 0.0026-0.05292 0.01852-0.0079 0.0026-0.05292 0.01852-0.0053 0.0026-0.10584 0.03704-0.0079 0.0026-0.05556 0.01587-0.0079 0.0026-0.05292 0.01588-0.0053 0.0026-0.05292 0.01852-0.0053 0.0026-0.05556 0.01588-0.0079 0.0026-0.05292 0.01587-0.0079 0.0026-0.05292 0.01587-0.0079 0.0026-0.05556 0.01852-0.01058 0.0026-0.10583 0.03175-0.01323 0.0053-0.10848 0.03175-0.01323 0.0026-0.10848 0.03175-0.01323 0.0026-0.10848 0.02911-0.01323 0.0053-0.10848 0.0291-0.01323 0.0026-0.10848 0.0291-0.01588 0.0026-0.10848 0.02646-0.01323 0.0026-0.10848 0.02646-0.01588 0.0026-0.10848 0.02646-0.01323 0.0026-0.10848 0.02381-0.01323 0.0026-0.11112 0.02381-0.01588 0.0026-0.11112 0.02381-0.01323 0.0026-0.11112 0.02117-0.01323 0.0026-0.10848 0.01852-0.01323 0.0026-0.10848 0.02117-0.01323 0.0026-0.11112 0.01852-0.01323 0.0026-0.11112 0.01852-0.01323 0.0026-0.11112 0.01588-0.01323 0.0026-0.11112 0.01587-0.01323 0.0026-0.11112 0.01587-0.01323 0.0026-0.11112 0.01588-0.01588 0.0026-0.11112 0.01323-0.01323 0.0026-0.11112 0.01323-0.01323 0.0026-0.11112 0.01323-0.11112 0.01058h-0.01323l-0.11112 0.0079-0.01323 0.0026-0.11112 0.0079h-0.01323l-0.11112 0.0079h-0.01323l-0.11112 0.0079-0.01588 0.0026-0.11112 0.0079h-0.01323l-0.11112 0.0053h-0.01323l-0.11112 0.0053h-0.01588l-0.11112 0.0026h-0.01323l-0.11112 0.0026h-0.01323l-0.11112 0.0026h-0.39264l-0.22225-0.0052h-0.01588l-0.11112-0.0026h-0.0024l-0.11112-0.0053-0.01323-0.0026-0.11112-0.0053h-0.0132l-0.11112-0.0053-0.01323-0.0026-0.11112-0.0053h-0.01323l-0.11112-0.0079-0.01323-0.0026-0.11112-0.01058-0.01588-0.0026-0.11112-0.01058-0.01587-0.0026-0.11112-0.01058-0.01323-0.0026-0.11112-0.01058h-0.01323l-0.11112-0.01058-0.01323-0.0026-0.11112-0.01323h-0.01587l-0.11112-0.01323-0.01588-0.0026-0.11112-0.01587-0.01323-0.0026-0.11112-0.01587-0.01323-0.0026-0.11112-0.01588-0.01323-0.0026-0.11112-0.01587-0.01323-0.0026-0.10848-0.01852h-0.0079l-0.11112-0.02117-0.01429-0.0026-0.10848-0.02117-0.01323-0.0026-0.10848-0.02117-0.01323-0.0026-0.10848-0.02117-0.01588-0.0026-0.11007-0.02117-0.01323-0.0026-0.10848-0.02381-0.01588-0.0053-0.10848-0.02381-0.01323-0.0026-0.10848-0.02646-0.01482-0.0053-0.10848-0.02646-0.01323-0.0053-0.10848-0.0291-0.01323-0.0026-0.10848-0.0291-0.01323-0.0053-0.10848-0.0291-0.01323-0.0053-0.10848-0.0291-0.01323-0.0053-0.10848-0.03175-0.01587-0.0053-0.10848-0.03175-0.01323-0.0053-0.10848-0.03175-0.01323-0.0053-0.10848-0.03175-0.01323-0.0026-0.1053-0.0344-0.01058-0.0026-0.05556-0.01852h-0.0071l-0.05292-0.01587-0.0079-0.0026-0.05292-0.01852-0.0079-0.0026-0.05292-0.01852-0.0079-0.0026-0.05292-0.01852-0.0079-0.0026-0.05292-0.01852-0.0079-0.0026-0.05292-0.01852-0.0053-0.0026-0.05292-0.01852-0.0053-0.0026-0.05292-0.01852-0.0053-0.0026-0.05292-0.02117-0.0079-0.0026-0.05292-0.02117-0.0079-0.0026-0.05292-0.02117-0.0053-0.0026-0.05292-0.02117-0.0079-0.0026-0.05292-0.02117-0.0053-0.0026-0.05292-0.02117-0.0079-0.0026-0.05292-0.02117-0.0053-0.0026-0.05292-0.02117-0.0053-0.0026-0.05292-0.02117-0.0079-0.0026-0.05292-0.02117-0.0079-0.0026-0.05292-0.02117-0.0079-0.0026-0.05292-0.02117-0.0079-0.0026-0.05292-0.02117-0.0053-0.0026-0.05292-0.02381-0.0079-0.0026-0.05027-0.02381-0.0053-0.0026-0.05292-0.02381-0.0053-0.0026-0.05292-0.02381-0.0053-0.0026-0.05292-0.02117-0.0079-0.0026-0.05027-0.02381-0.0079-0.0026-0.05292-0.02381-0.0079-0.0026-0.05027-0.02381-0.0053-0.0053-0.05027-0.02381-0.0053-0.0026-0.05027-0.02381-0.0053-0.0026-0.05292-0.02381-0.0053-0.0053-0.05292-0.02646-0.0053-0.0053-0.05027-0.02381-0.0079-0.0026-0.05292-0.02381-0.0053-0.0053-0.05027-0.02646-0.0079-0.0026-0.05292-0.02646-0.0053-0.0026-0.05027-0.02646-0.0079-0.0026-0.05027-0.02646-0.0053-0.0026-0.05027-0.02646-0.0079-0.0053-0.05027-0.02646-0.0053-0.0026-0.05027-0.02646-0.0053-0.0026-0.05027-0.02646-0.0079-0.0053-0.05027-0.02646-0.0053-0.0026-0.05027-0.0291-0.0079-0.0053-0.05027-0.02646-0.0079-0.0026-0.05027-0.02646-0.0079-0.0026-0.05027-0.02646-0.0079-0.0026-0.05027-0.0291-0.0079-0.0026-0.04763-0.0291-0.0079-0.0026-0.04763-0.0291-0.0026-0.0026-27.728-16.185-0.00265-0.0026-0.058208-0.0344-0.00529-0.0026-0.058208-0.0344-0.00794-0.0026-0.060854-0.0344-0.00794-0.0026-0.058208-0.03704-0.00529-0.0026-0.058208-0.03704-0.00529-0.0053-0.058208-0.03704-0.00529-0.0053-0.058208-0.03704-0.00794-0.0026-0.058208-0.0344-0.00794-0.0053-0.058208-0.03704-0.00529-0.0053-0.058208-0.03704h0.013494l-0.058208-0.03704-0.00794-0.0053-0.058208-0.03704-0.00529-0.0053-0.058208-0.03704-0.00741-0.0053-0.058208-0.03969-0.00794-0.0053-0.058208-0.03969-0.00529-0.0053-0.058208-0.03704-0.00529-0.0053-0.058208-0.03969-0.00529-0.0053-0.058208-0.03969-0.00529-0.0053-0.055562-0.03969-0.00794-0.0053-0.056885-0.03969-0.00529-0.0053-0.055562-0.03969-0.00661-0.0053-0.055562-0.03969-0.00714-0.0053-0.055563-0.03969-0.00529-0.0026-0.055562-0.03969-0.00529-0.0053-0.054769-0.03969-0.00529-0.0053-0.054504-0.03969-0.00794-0.0026-0.055563-0.03969-0.00529-0.0053-0.055562-0.04233-0.00529-0.0053-0.055563-0.03969-0.00688-0.0053-0.055563-0.04233-0.00688-0.0053-0.052917-0.04233-0.00529-0.0053-0.052917-0.04233-0.00529-0.0026-0.052917-0.04233-0.00529-0.0053-0.052917-0.04233-0.00529-0.0053-0.052917-0.04233-0.00529-0.0053-0.052917-0.04233-0.00529-0.0053-0.052917-0.04233-0.00529-0.0053-0.052917-0.04233-0.00529-0.0053-0.052917-0.04498-0.00529-0.0026-0.052917-0.04233-0.00529-0.0053-0.051329-0.04233-0.00529-0.0053-0.052917-0.04498-0.00529-0.0053-0.052917-0.04233-0.00529-0.0053-0.052917-0.04498-0.00529-0.0026-0.051858-0.04233-0.00529-0.0053-0.050271-0.04233-0.00529-0.0053-0.050271-0.04498-0.00529-0.0053-0.050271-0.04498-0.00529-0.0053-0.050271-0.04498-0.00529-0.0053-0.050271-0.04498-0.00529-0.0053-0.050271-0.04498-0.00529-0.0053-0.050271-0.04762-0.00529-0.0026-0.050271-0.04498-0.00794-0.0053-0.048948-0.04762-0.00529-0.0053-0.050271-0.04498-0.00529-0.0053-0.049212-0.04762-0.00529-0.0053-0.047625-0.04763-0.00529-0.0053-0.047625-0.04762-0.00529-0.0053-0.050271-0.04762-0.00529-0.0053-0.050271-0.04763-0.00529-0.0026-0.047625-0.04763-0.00529-0.0053-0.047625-0.04762-0.00529-0.0053-0.047625-0.04762-0.00529-0.0053-0.047625-0.04763-0.00529-0.0053-0.047625-0.04763-0.00529-0.0053-0.047625-0.04763-0.00529-0.0053-0.044979-0.04762-0.00529-0.0053-0.047625-0.04762-0.00529-0.0053-0.047625-0.05027-0.00529-0.0053-0.044979-0.05027-0.00529-0.0053-0.044979-0.05027-0.00529-0.0053-0.047625-0.05027-0.00529-0.0053-0.044979-0.05027-0.00529-0.0053-0.044979-0.05027-0.00529-0.0053-0.044979-0.05027-0.00529-0.0053-0.044979-0.05027-0.00529-0.0053-0.044979-0.05027-0.00265-0.0053-0.042333-0.05027-0.00529-0.0053-0.044979-0.05027-0.00529-0.0053-0.047625-0.05292-0.00529-0.0053-0.044979-0.05027-0.00529-0.0053-0.044979-0.05292-0.00529-0.0053-0.042333-0.05027-0.00265-0.0053-0.042333-0.05027-0.00529-0.0053-0.042333-0.05292-0.00529-0.0053-0.044979-0.05292-0.00529-0.0053-0.042333-0.05027-0.00529-0.0053-0.044979-0.05027-0.00529-0.0053-0.042333-0.05027-0.00529-0.0053-0.042333-0.05292-0.00529-0.0053-0.042333-0.05292-0.00529-0.0053-0.042333-0.05292-0.00529-0.0053-0.042333-0.05292-0.00529-0.0053-0.042333-0.05292-0.00265-0.0053-0.039687-0.05292-0.00529-0.0053-0.039688-0.05292-0.00265-0.0053-0.039686-0.05292-0.0053-0.0053-0.03969-0.05556-0.0053-0.0053-0.03969-0.05292-0.0053-0.0053-0.03969-0.05292-0.0026-0.0053-0.03969-0.05556-0.0026-0.0053-0.03969-0.05556-0.0026-0.0053-0.03969-0.05292-0.0026-0.0053-0.03969-0.05292-0.0053-0.0053-0.03969-0.05556-0.0053-0.0053-0.03969-0.05556-0.0053-0.0079-0.03704-0.05556-0.0053-0.0053-0.03704-0.05556-0.0053-0.0053-0.03704-0.05556-0.0053-0.0053-0.03704-0.05556-0.0026-0.0053-0.03704-0.05556-0.0053-0.0079-0.03704-0.05556-0.0053-0.0053-0.03704-0.05556-0.0053-0.0053-0.03704-0.05556-0.0053-0.0053-0.03704-0.05556-0.0053-0.0053-0.0344-0.05556-0.0026-0.0053-0.0344-0.05556-0.0053-0.0079-0.03704-0.05556-0.0053-0.0079-0.03704-0.05556-0.0026-0.0053-0.03704-0.05821-0.0026-0.0079-0.0344-0.05556-0.0053-0.0053-0.0344-0.05556-0.0053-0.0053-0.0344-0.05821-0.0053-0.0079-0.0344-0.05556-0.0026-0.0053-0.0344-0.05821-0.0026-0.0053-0.0344-0.05556-0.0053-0.0079-0.0344-0.05821-0.0053-0.0079-0.0344-0.05821-0.0053-0.0079-0.03175-0.05821-0.0053-0.0053-0.0344-0.05821-0.0026-0.0053-0.03175-0.05821-0.0026-0.0053-0.03175-0.05821-0.0026-0.0079-0.03175-0.05821-0.0053-0.0079-0.03175-0.05821-0.0026-0.0079-0.03175-0.06085-0.0026-0.0053-0.03175-0.05821-0.0026-0.0079-0.03175-0.05821-0.0026-0.0079-0.03175-0.05821-0.0026-0.0079-0.0291-0.06085-0.0026-0.0053-0.03175-0.06085-0.0026-0.0079-0.03175-0.06085-0.0053-0.0053-0.0291-0.06085-0.0026-0.0053-0.0291-0.05821-0.0026-0.0079-0.0291-0.06086v0.0026l-0.0291-0.06085-0.0053-0.0079-0.0291-0.06085-0.0026-0.0079-0.0291-0.05821-0.0026-0.0079-0.0291-0.06085-0.0026-0.0053-0.0291-0.06085-0.0026-0.0053-0.02646-0.06085-0.0026-0.0053-0.0291-0.06086-0.0026-0.0053-0.0291-0.06085-0.0026-0.0053-0.0291-0.06085-0.0026-0.0079-0.02646-0.06085-0.0026-0.0053-0.0291-0.06085-0.0026-0.0079-0.0291-0.06085-0.0026-0.0053-0.02646-0.06085-0.0026-0.0053-0.02646-0.06085-0.0026-0.0079-0.02646-0.06085-0.0026-0.0053-0.02381-0.06086-0.0026-0.0053-0.02646-0.06085-0.0026-0.0079-0.02381-0.0635-0.0026-0.0053-0.02646-0.06085-0.0026-0.0079-0.02381-0.05821-0.0026-0.0079-0.02646-0.0635-0.0026-0.0053-0.02381-0.0635-0.0026-0.0079-0.02381-0.0635-0.0026-0.0053-0.02381-0.0635-0.0026-0.0079-0.02381-0.0635-0.0026-0.0053-0.02381-0.0635-0.0026-0.0053-0.02117-0.0635-0.0026-0.0079-0.02381-0.0635-0.0026-0.0053-0.02117-0.0635-0.0026-0.0079-0.02117-0.0635-0.0026-0.0079-0.02381-0.0635-0.0026-0.0079-0.02117-0.0635-0.0026-0.0053-0.02117-0.0635-0.0026-0.0053-0.02117-0.0635-0.0026-0.0079-0.02117-0.0635-0.0026-0.0079-0.02117-0.0635-0.0026-0.0079-0.02117-0.0635-0.0026-0.0079-0.02117-0.0635-0.0024-0.0077-0.01852-0.0635-0.0026-0.0053-0.02117-0.06615-0.0026-0.0079-0.01852-0.06614-0.0026-0.0079-0.01852-0.0635-0.0026-0.0079-0.01852-0.0635-0.0026-0.0079-0.01852-0.06615-0.0026-0.0079-0.01852-0.06615-0.0026-0.0053-0.01852-0.06615-0.0026-0.0026-0.01852-0.06615-0.0026-0.0053-0.01587-0.0635-0.0026-0.0053-0.01587-0.0635v-0.0053l-0.01852-0.06615v-0.0079l-0.01587-0.0635-0.0026-0.0079-0.01587-0.0635-0.0026-0.0079-0.01588-0.06614h0.0026l-0.01587-0.06615-0.0026-0.0053-0.01587-0.06615-0.0026-0.0053-0.01587-0.06615-0.0026-0.0053-0.01587-0.06615 0.0026-0.0026-0.01587-0.06614-0.0026-0.0079-0.01587-0.06615-0.0026-0.0079-0.01323-0.06615-0.0026-0.0079-0.01587-0.06614-0.0026-0.0053-0.01323-0.06615-0.0026-0.0079-0.01323-0.06615-0.0026-0.0079-0.01323-0.06615-0.01323-0.06614v-0.0079l-0.01323-0.06879v-0.0079l-0.01323-0.06615-0.0026-0.0079-0.01587-0.0635v-0.0079l-0.01323-0.07144-0.0026-0.0079-0.01323-0.06879-0.0026-0.0079-0.01058-0.06615-0.0026-0.0079-0.01058-0.06615v-0.0079l-0.01058-0.06615v-0.0079l-0.01058-0.06615-0.0026-0.0079-0.01058-0.06615v0.0026l-0.01058-0.06615v-0.0053l-0.01058-0.06615v-0.0079l-0.01058-0.06615v-0.0079l-0.01058-0.06614v-0.0053l-0.0079-0.06879v-0.0079l-0.0079-0.06615v-0.0053l-0.01058-0.06879-0.0026-0.0079-0.0079-0.06615v-0.0079l-0.0079-0.06879-0.0026-0.0079-0.0079-0.06879v-0.0079l-0.0079-0.06879-0.0026-0.0079-0.0079-0.06879v-0.0079l-0.0079-0.06879-0.0026-0.0053-0.0079-0.06879-0.0053-0.06879v-0.0079l-0.0079-0.06879-0.0026-0.0079-0.0079-0.06879v-0.0079l-0.0053-0.06879-0.0026-0.0079-0.0053-0.06879v-0.0079l-0.0053-0.06879v-0.0079l-0.0106-0.13758v-0.0079l-0.0053-0.06879v-0.0079l-0.0053-0.06879v-0.08546l-0.0026-0.06879v-0.0079l-0.0026-0.06879v-0.0079l-0.0026-0.06879-0.0026-0.0079-0.0026-0.06879v-0.07408l-0.0026-0.06879v-0.0079l-0.0026-0.06879v-33.495l0.0026-0.066146v-0.084667l0.0026-0.068792v-0.24342l0.0026-0.068792v-0.005292l0.0026-0.068792v-0.007937l0.0026-0.068792v-0.007938l0.0026-0.068792v-0.005292l0.0026-0.068792v-0.007937l0.0026-0.068792v-0.007938l0.0053-0.071438v-0.007937l0.0053-0.068792v-0.005292l0.0026-0.068792v-0.007938l0.0053-0.068792v-0.00794l0.0026-0.068792v-0.00794l0.0026-0.068792v-0.00794l0.0053-0.068792v-0.00794l0.0053-0.068792v-0.00794l0.0079-0.068792v-0.00794l0.0053-0.068792 0.0026-0.00529 0.0053-0.068792v-0.00529l0.0079-0.068792v-0.00529l0.0079-0.068792 0.0026-0.00794 0.0079-0.068792v-0.00794l0.0079-0.068792v-0.00529l0.0079-0.068792v-0.00529l0.0079-0.068792 0.0026-0.00794 0.0079-0.068792v-0.00794l0.0079-0.066146v-0.00794l0.0079-0.068792v-0.00794l0.0079-0.068792 0.0026-0.00794 0.0079-0.066146v-0.00794l0.01058-0.068792v-0.00794l0.0079-0.068792 0.0026-0.00794 0.0079-0.066146 0.0026-0.00794 0.01058-0.068792 0.0026-0.00529 0.01058-0.068792v-0.00529l0.01058-0.068792v-0.00529l0.01058-0.066146 0.0026-0.00794 0.01058-0.066146v-0.00794l0.01852-0.068792 0.0026-0.00794 0.01058-0.066146v-0.00794l0.01323-0.066146v-0.00529l0.01323-0.066146v-0.00529l0.01323-0.068792 0.0026-0.00529 0.01323-0.066146 0.0026-0.00529 0.01323-0.066146 0.0026-0.00794 0.01323-0.066146 0.0026-0.00794 0.01323-0.066146v-0.00794l0.01323-0.066146v-0.00529l0.01323-0.066146 0.0026-0.00529 0.01323-0.066146 0.0026-0.00529 0.01587-0.066146v-0.00794l0.01587-0.066146 0.0026-0.00794 0.01323-0.066146 0.0026-0.00794 0.01587-0.066146v-0.00794l0.01587-0.066146 0.0026-0.00794 0.01587-0.066146v-0.00794l0.01587-0.066146 0.0026-0.00529 0.01587-0.066146v-0.00529l0.01588-0.066146 0.0026-0.00794 0.01852-0.066146v-0.00529l0.01852-0.066146v-0.00529l0.01852-0.066146 0.0026-0.00794 0.01852-0.066146v-0.00794l0.01852-0.066146 0.0026-0.00794 0.01852-0.0635 0.0026-0.00529 0.01852-0.066146 0.0026-0.00661 0.01852-0.066146 0.0026-0.00794 0.01852-0.064558 0.0026-0.00529 0.02117-0.066146 0.0026-0.00529 0.01852-0.0635 0.0026-0.00529 0.01852-0.064294 0.0026-0.00529 0.01852-0.065617 0.0026-0.00794 0.02117-0.064558 0.0026-0.00794 0.02117-0.0635v-0.00529l0.02117-0.0635v-0.00794l0.02117-0.0635 0.0026-0.00529 0.02117-0.0635 0.0026-0.00794 0.02117-0.0635 0.0026-0.00794 0.02117-0.0635 0.0026-0.00794 0.02117-0.0635 0.0026-0.00529 0.02381-0.0635 0.0026-0.00529 0.02117-0.0635 0.0026-0.00661 0.02117-0.0635 0.0026-0.00529 0.02381-0.0635 0.0026-0.00529 0.02381-0.0635v-0.00529l0.02381-0.0635 0.0026-0.00529 0.02381-0.0635 0.0026-0.00794 0.02381-0.0635 0.0026-0.00529 0.02381-0.0635 0.0026-0.00794 0.02646-0.060854 0.0026-0.00529 0.02646-0.0635 0.0026-0.00529 0.02646-0.0635 0.0026-0.00794 0.02646-0.0635 0.0026-0.00794 0.02646-0.0635 0.0026-0.00794 0.02646-0.0635 0.0026-0.00794 0.02646-0.0635 0.0026-0.00794 0.02646-0.0635 0.0026-0.00661 0.02646-0.060854 0.0026-0.00794 0.02646-0.060854 0.0026-0.00794 0.02646-0.0635 0.0026-0.00529 0.0291-0.0635 0.0026-0.00529 0.0291-0.060854 0.0026-0.00529 0.02646-0.060854 0.0026-0.00794 0.0291-0.060854 0.0026-0.00529 0.0291-0.060854 0.0026-0.00529 0.0291-0.060854 0.0026-0.00529 0.0291-0.060854 0.0026-0.00794 0.0291-0.060854 0.0026-0.00529 0.0291-0.060854 0.0026-0.00794 0.0291-0.060854 0.0026-0.00529 0.0291-0.060854 0.0026-0.00529 0.0291-0.060854 0.0026-0.00529 0.0291-0.060854 0.0026-0.00529 0.03175-0.058208 0.0026-0.00529 0.03175-0.060854 0.0053-0.00794 0.03175-0.060854 0.0026-0.00529 0.03175-0.060854 0.0026-0.00794 0.03175-0.058208 0.0026-0.00529 0.03175-0.058208 0.0026-0.00529 0.03175-0.058208 0.0026-0.00794 0.03175-0.058208 0.0053-0.00529 0.03175-0.058208 0.0026-0.00794 0.03175-0.058208 0.0053-0.00529 0.03175-0.058208 0.0026-0.00529 0.03175-0.058208 0.0053-0.00794 0.0344-0.058208 0.0026-0.00529 0.03175-0.058208 0.0026-0.00529 0.0344-0.058208 0.0026-0.00529 0.0344-0.058208 0.0026-0.00529 0.0344-0.058208 0.0053-0.00529 0.0344-0.058208 0.0026-0.00529 0.0344-0.058208 0.0053-0.00529 0.0344-0.058208 0.0026-0.00529 0.0344-0.058208 0.0053-0.00529 0.0344-0.058208 0.0026-0.00529 0.03704-0.058208 0.0053-0.00794 0.03704-0.058208 0.0026-0.00529 0.0344-0.055563 0.0053-0.00529 0.03704-0.055563 0.0053-0.0053 0.0344-0.05821 0.0026-0.0053 0.03704-0.05556 0.0026-0.0053 0.03704-0.05556 0.0053-0.0053 0.03704-0.05821 0.0053-0.0053 0.03704-0.05556 0.0026-0.0079 0.03704-0.05556 0.0026-0.0053 0.03704-0.05556 0.0026-0.0053 0.03969-0.05556 0.0053-0.0053 0.03704-0.05556 0.0053-0.0053 0.03969-0.05556 0.0026-0.0053 0.03969-0.05556 0.0026-0.0053 0.03969-0.05556 0.0026-0.0053 0.03969-0.05556 0.0053-0.0053 0.03969-0.05556 0.0026-0.0053 0.03969-0.05556 0.0053-0.0053 0.03969-0.05292 0.0026-0.0053 0.03969-0.05556 0.0053-0.0053 0.03969-0.05292 0.0053-0.0053 0.039687-0.05292 0.00529-0.0053 0.039687-0.05292 0.00529-0.0053 0.039687-0.05292 0.00265-0.0053 0.039688-0.05292 0.00529-0.0053 0.042333-0.05292 0.00529-0.0053 0.042333-0.05292 0.00529-0.0053 0.042333-0.05292 0.00529-0.0053 0.042333-0.05292 0.00529-0.0053 0.042333-0.05292 0.00529-0.0079 0.042333-0.05292 0.00265-0.0053 0.042333-0.05292 0.00529-0.0053 0.042333-0.05292 0.00529-0.0053 0.042333-0.05027 0.00529-0.0053 0.042333-0.05292 0.00529-0.0053 0.042333-0.05292 0.00529-0.0053 0.044979-0.05027 0.00529-0.0053 0.042333-0.05292 0.00529-0.0053 0.042333-0.05027 0.00529-0.0053 0.042333-0.05292 0.00529-0.0053 0.044979-0.05292 0.00265-0.0053 0.044979-0.05027 0.00529-0.0053 0.044979-0.05027 0.00529-0.0053 0.044979-0.05027 0.00529-0.0053 0.044979-0.05027 0.00265-0.0053 0.044979-0.05027 0.00529-0.0053 0.044979-0.05027 0.00529-0.0053 0.044979-0.05027 0.00265-0.0053 0.044979-0.05027 0.00529-0.0053 0.047625-0.05027 0.00265-0.0053 0.047625-0.05027 0.00529-0.0053 0.050271-0.04763 0.00529-0.0053 0.047625-0.05027 0.00529-0.0053 0.047625-0.05027 0.00529-0.0053 0.047625-0.04763 0.00529-0.0053 0.047625-0.04763 0.00529-0.0053 0.047625-0.04763 0.00529-0.0053 0.050271-0.04763 0.00529-0.0053 0.047625-0.04763 0.00529-0.0053 0.047625-0.04763 0.00529-0.0053 0.047625-0.04763 0.00529-0.0053 0.047625-0.04763 0.00529-0.0053 0.047625-0.04763 0.00529-0.0053 0.047625-0.04763 0.00529-0.0053 0.047625-0.04763 0.00529-0.0053 0.050271-0.04498 0.00529-0.0053 0.050271-0.04498 0.00529-0.0053 0.050271-0.04763 0.00529-0.0053 0.050271-0.04763 0.00529-0.0026 0.050271-0.04498 0.00529-0.0026 0.050271-0.04498 0.00529-0.0053 0.050271-0.04498 0.00529-0.0053 0.050271-0.04498 0.00529-0.0053 0.050271-0.04498 0.00529-0.0026 0.052917-0.04498 0.00529-0.0053 0.052917-0.04498 0.00529-0.0053 0.052917-0.04498 0.00529-0.0053 0.052917-0.04233 0.00529-0.0053 0.052917-0.04233 0.00529-0.0053 0.050271-0.04233 0.00529-0.0053 0.052917-0.04233 0.00529-0.0053 0.052917-0.04233 0.00529-0.0026 0.052917-0.04233 0.00529-0.0053 0.052917-0.04233 0.00529-0.0053 0.052917-0.04233 0.00529-0.0053 0.055562-0.04233 0.00529-0.0053 0.052917-0.04233 0.00529-0.0053 0.055562-0.04233 0.00529-0.0053 0.055563-0.04233 0.00529-0.0053 0.052917-0.04233 0.00529-0.0026 0.055562-0.04233 0.00529-0.0053 0.052917-0.04233 0.00529-0.0053 0.055562-0.03969 0.00529-0.0053 0.055563-0.04233 0.00529-0.0053 0.055562-0.03969 0.00529-0.0026 0.055562-0.03969 0.00794-0.0053 0.055563-0.03969 0.00529-0.0026 0.055562-0.03969 0.00529-0.0053 0.055562-0.04233 0.00529-0.0026 0.058208-0.03969 0.00529-0.0053 0.055563-0.03969 0.00794-0.0026 0.055562-0.03969 0.00529-0.0026 0.055563-0.03969 0.00529-0.0026 0.058208-0.03969 0.00529-0.0053 0.055562-0.03969 0.00529-0.0026 0.058208-0.03704 0.00529-0.0026 0.055562-0.03969 0.00794-0.0053 0.058208-0.03704 0.00529-0.0053 0.058208-0.03969 0.00529-0.0053 0.058208-0.03704 0.00794-0.0026 0.058208-0.03704 0.00529-0.0053 0.058208-0.03704 0.00529-0.0026 0.058208-0.03704 0.00529-0.0026 0.058208-0.03704 0.00529-0.0026 0.058208-0.03704 0.00794-0.0026 0.058208-0.0344h0.00265l26.593-16.404 0.0026-0.0026 0.05556-0.0344 0.0053-0.0026 0.05821-0.03704 0.0079-0.0053 0.05821-0.0344 0.0079-0.0053 0.05821-0.0344 0.0079-0.0053 0.05821-0.0344 0.0079-0.0026 0.06085-0.0344 0.0053-0.0053 0.05821-0.0344 0.0079-0.0026 0.05821-0.0344 0.0053-0.0026 0.06085-0.03175 0.0053-0.0053 0.06086-0.03175 0.0053-0.0053 0.05821-0.03175 0.0079-0.0026 0.06085-0.03175 0.0053-0.0053 0.05821-0.03175 0.0079-0.0053 0.05821-0.03175 0.0079-0.0053 0.05821-0.03175 0.0053-0.0053 0.06085-0.03175 0.0053-0.0026 0.05821-0.03175 0.0079-0.0026 0.05821-0.03175 0.0079-0.0026 0.06085-0.03175 0.0079-0.0026 0.06085-0.03175 0.0053-0.0026 0.06085-0.0291 0.0079-0.0026 0.06085-0.0291 0.0079-0.0026 0.05821-0.0291 0.0079-0.0026 0.06085-0.0291 0.0053-0.0026 0.06085-0.0291 0.0079-0.0026 0.06085-0.0291 0.0079-0.0053 0.06085-0.0291 0.0079-0.0026 0.06085-0.0291 0.0079-0.0026 0.06085-0.02646 0.0079-0.0026 0.06085-0.02646 0.0053-0.0053 0.06085-0.02646 0.0053-0.0026 0.06085-0.02646 0.0079-0.0053 0.06085-0.02646 0.0079-0.0026 0.06085-0.02646 0.0079-0.0026 0.06085-0.02646 0.0079-0.0026 0.06085-0.02646 0.0079-0.0026 0.06085-0.02646 0.0079-0.0026 0.06085-0.02381 0.0079-0.0026 0.06085-0.02646 0.0079-0.0026 0.0635-0.02646 0.0079-0.0026 0.0635-0.02646 0.0079-0.0053 0.06085-0.02381 0.0053-0.0026 0.0635-0.02381 0.0079-0.0026 0.06085-0.02381 0.0053-0.0026 0.0635-0.02381 0.0079-0.0026 0.0635-0.02117 0.0079-0.0026 0.0635-0.02381 0.0079-0.0026 0.0635-0.02381 0.0079-0.0026 0.0635-0.02117 0.0079-0.0026 0.0635-0.02117 0.0079-0.0026 0.06085-0.02117 0.0079-0.0026 0.0635-0.02117 0.0079-0.0026 0.06085-0.02117 0.0079-0.0026 0.0635-0.02117 0.0053-0.0026 0.0635-0.02117 0.0079-0.0026 0.0635-0.02117 0.0079-0.0026 0.0635-0.02117 0.0079-0.0026 0.0635-0.01852 0.0053-0.0026 0.0635-0.01852 0.0079-0.0026 0.0635-0.01852h0.0079l0.0635-0.01852 0.0079-0.0026 0.0635-0.01852 0.0053-0.0026 0.0635-0.01852 0.0053-0.0026 0.0635-0.01852 0.0079-0.0026 0.0635-0.01852 0.0079-0.0026 0.0635-0.01852 0.0079-0.0026 0.0635-0.01588 0.0079-0.0026 0.0635-0.01587 0.0053-0.0026 0.0635-0.01852 0.0064-0.0026 0.06615-0.01588h0.0053l0.0635-0.01852h0.0079l0.06535-0.01588 0.0079-0.0026 0.06615-0.01588 0.0079-0.0026 0.0635-0.01588h0.0079l0.06615-0.01588h0.0079l0.0635-0.01588 0.0079-0.0026 0.0635-0.01323 0.0079-0.0026 0.0635-0.01588 0.0079-0.0026 0.0635-0.01323h0.0079l0.0635-0.01323 0.0079-0.0026 0.0635-0.01323h0.0053l0.0635-0.01323 0.0079-0.0026 0.06614-0.01323h0.0053l0.06615-0.01323 0.0053-0.0026 0.06614-0.01323 0.0079-0.0026 0.06615-0.01323 0.0079-0.0026 0.06615-0.01058h0.0079l0.0635-0.01058 0.0079-0.0026 0.06615-0.01323 0.0079-0.0026 0.06615-0.01058h0.0079l0.0635-0.01058 0.0079-0.0026 0.06615-0.01058 0.0079-0.0026 0.0635-0.01058h0.0053l0.0635-0.01058h0.0079l0.06615-0.01058 0.0079-0.0026 0.06615-0.01058h0.0079l0.06615-0.01058h0.0079l0.06615-0.01058h0.0079l0.06615-0.0079h0.0079l0.0635-0.0079h0.0079l0.06615-0.0079 0.0079-0.0026 0.06615-0.0079 0.0053-0.0026 0.06615-0.0053h0.0079l0.0635-0.0079h0.0079l0.0635-0.0079h0.0079l0.06615-0.0079h0.0079l0.06615-0.0079h0.0079l0.0635-0.0053h0.0079l0.06615-0.0079 0.0079-0.0026 0.06615-0.0053 0.0079-0.0026 0.06615-0.0053h0.0079l0.06509-0.0053h0.0079l0.06615-0.0053h0.0079l0.06615-0.0026 0.0079-0.0026 0.06615-0.0053 0.0053-0.0026 0.06615-0.0026h0.0079l0.06615-0.0053h0.0053l0.06615-0.0026h0.0079l0.06614-0.0026h0.0079l0.06615-0.0026h0.0079l0.06615-0.0026 0.0079-0.0026 0.06614-0.0026h0.0079l0.06615-0.0026h0.0079l0.06615-0.0026h0.0079l0.06615-0.0026h0.0079l0.06615-0.0026h0.0053l0.06615-0.0026h0.08202l0.06615-0.0026h0.15346zm-0.06085 7.1438h-0.04339l-0.04339 5.29e-4h-0.04313l-0.08996 0.0022-0.04498 0.0013-0.13494 0.0078-0.04233 0.0026-0.04498 0.0026-0.12699 0.0078-0.04498 0.0026-0.04233 0.0026-0.08996 0.0106-0.04233 0.0053-0.13494 0.0159-0.04233 0.0053-0.04498 0.0053-0.08466 0.0106-0.04498 0.0053-0.16932 0.0212-0.04498 0.0053-0.04233 0.0079-0.04233 0.0053-0.04498 0.0079-0.25398 0.0474-0.04233 0.0053-0.04498 0.0079-0.04233 0.0079-0.04498 0.0079-0.12699 0.0237-0.12699 0.03174-0.08466 0.0158-0.4233 0.1058-0.04233 0.01323-0.04233 0.01058-0.04233 0.01323-0.03969 0.01323-0.21165 0.06615-0.03969 0.01323-0.04233 0.01323-0.04233 0.01587-0.08466 0.02646-0.04233 0.01588-0.08466 0.02646-0.03969 0.01323-0.04233 0.01588-0.04233 0.01587-0.04233 0.01588-0.03969 0.01588-0.04233 0.01587-0.07938 0.03176-0.04233 0.01852-0.04233 0.01588-0.04233 0.01587-0.04233 0.01588-0.03969 0.01852-0.03969 0.01588-0.04233 0.01852-0.11907 0.05556-0.04233 0.01852-0.03969 0.01852-0.04233 0.01852-0.11907 0.05556-0.04233 0.01852-0.07938 0.03704-0.07938 0.04234-0.03969 0.01852-0.03969 0.02117-0.03969 0.01852-0.19845 0.10585-0.03969 0.02381-0.03704 0.02117-0.03969 0.02117-0.03704 0.02117-0.11907 0.07143-0.03704 0.02117-0.03969 0.02381-0.03704 0.02381-0.07938 0.04762-0.04233 0.02646-26.564 16.372-0.044979 0.029104-0.042333 0.026458-0.039687 0.026458-0.079375 0.052916-0.11906 0.079374-0.079375 0.052916-0.079375 0.052916-0.039688 0.029104-0.074084 0.052916-0.039687 0.026458-0.22225 0.15875-0.037042 0.029104-0.037042 0.026458-0.22225 0.17462-0.034396 0.029104-0.074084 0.058208-0.034396 0.029104-0.074084 0.058208-0.034396 0.029104-0.037042 0.029104-0.068792 0.058208-0.068792 0.0635-0.068792 0.058208-0.37836 0.34925-0.03175 0.03175-0.034396 0.03175-0.03175 0.034396-0.034396 0.03175-0.03175 0.034396-0.03175 0.03175-0.03175 0.034396-0.03175 0.03175-0.0635 0.068792-0.066146 0.066146-0.09525 0.10319-0.029104 0.034396-0.09525 0.10319-0.03175 0.037042-0.03175 0.034396-0.058208 0.068792-0.03175 0.037042-0.029104 0.034396-0.03175 0.034396-0.029104 0.037042-0.029104 0.034396-0.17462 0.22225-0.026458 0.037042-0.11642 0.14817-0.079374 0.11113-0.026458 0.039687-0.052916 0.074084-0.026458 0.039688-0.10583 0.14817-0.023813 0.039688-0.026458 0.039687-0.026458 0.037042-0.026458 0.039688-0.023813 0.039687-0.023813 0.037042-0.071439 0.11906-0.023813 0.039687-0.026458 0.039688-0.026458 0.039687-0.047626 0.079376-0.071439 0.11906-0.071439 0.11906-0.047626 0.079375-0.023813 0.042333-0.047626 0.079375-0.023813 0.042333-0.021167 0.039687-0.063501 0.127-0.042334 0.079375-0.021167 0.042333-0.021167 0.039687-0.021167 0.042333-0.018521 0.039688-0.10584 0.21166-0.16669 0.381-0.015875 0.042333-0.018521 0.042333-0.018521 0.044979-0.055563 0.127-0.015875 0.042333-0.018521 0.044979-0.018521 0.042333-0.015875 0.042333-0.015875 0.044979-0.015875 0.042333-0.015875 0.044979-0.015875 0.042333-0.047625 0.13494-0.013229 0.044979-0.015875 0.042333-0.015875 0.044979-0.013229 0.044979-0.013229 0.042333-0.013229 0.044979-0.015875 0.044979-0.026458 0.084666-0.013229 0.044979-0.015875 0.044979-0.013229 0.044979-0.013229 0.042333-0.066145 0.2249-0.021166 0.089958-0.013229 0.044979-0.010583 0.044979-0.013229 0.044979-0.021166 0.089958-0.010583 0.047625-0.063498 0.26987-0.00794 0.044979-0.010583 0.044979-0.00794 0.044979-0.03176 0.1905-0.01588 0.089958-0.01588 0.09525-0.02382 0.13494-0.00794 0.047625-0.01058 0.09525-0.00529 0.044979-0.00794 0.047625-0.00794 0.044979-0.03174 0.28575-0.00529 0.044979-0.01058 0.09525-0.00265 0.047625-0.01058 0.09525-0.0265 0.47625v0.047625l-0.0053 0.09525v0.047625l-0.00265 0.047625v33.55l0.00265 0.04763v0.14288l0.00265 0.04498 0.00265 0.04762 0.00265 0.04763 0.00265 0.04762 0.00265 0.04763 0.00265 0.04762 0.00265 0.04763 0.00265 0.04762 0.00265 0.04763 0.00529 0.04762 0.00265 0.04763 0.00265 0.04762 0.00265 0.04763 0.00529 0.04498 0.00529 0.04762 0.00529 0.04498 0.00265 0.04762 0.02116 0.17992 0.00529 0.04762 0.01058 0.08996 0.00529 0.04762 0.00529 0.04763 0.00529 0.04498 0.00529 0.04763 0.03176 0.17992 0.00794 0.04763 0.03176 0.17992 0.010583 0.04498 0.02382 0.13494 0.021166 0.08996 0.00794 0.04498 0.074081 0.31486 0.010583 0.04233 0.013229 0.04233 0.031749 0.13494 0.013229 0.04498 0.010583 0.04233 0.010583 0.04498 0.010583 0.04233 0.013229 0.04498 0.010583 0.04233 0.026458 0.08996 0.013229 0.04233 0.026458 0.08996 0.013229 0.04233 0.013229 0.04498 0.0635 0.16932 0.013229 0.04233 0.015875 0.04498 0.14288 0.38097 0.037042 0.08466 0.079375 0.21165 0.20373 0.46563 0.018521 0.03969 0.021167 0.04233 0.021167 0.03969 0.021167 0.04233 0.127 0.23814 0.023813 0.03969 0.063501 0.11907 0.047626 0.07938 0.063501 0.11907 0.023813 0.03969 0.021167 0.03969 0.023813 0.03704 0.023813 0.03969 0.023813 0.03704 0.047626 0.07938 0.095252 0.14816 0.047626 0.07938 0.026458 0.03704 0.023813 0.03704 0.023813 0.03969 0.047626 0.07408 0.052916 0.07408 0.026458 0.03969 0.18521 0.25928 0.058208 0.07408 0.10583 0.14816 0.058208 0.0688 0.029104 0.03704 0.029104 0.03439 0.029104 0.03704 0.087312 0.1032 0.029104 0.03439 0.14552 0.172 0.029104 0.03439 0.029104 0.0344 0.0635 0.0688 0.029104 0.0344 0.03175 0.03175 0.03175 0.0344 0.03175 0.03175 0.03175 0.03439 0.029104 0.0344 0.03175 0.0344 0.127 0.127 0.03175 0.0344 0.15875 0.15875 0.034396 0.03175 0.0635 0.0635 0.034396 0.03175 0.0635 0.0635 0.034396 0.03175 0.068792 0.0582 0.068792 0.0635 0.034396 0.0291 0.034396 0.02911 0.068792 0.0635 0.034396 0.0291 0.11113 0.0873 0.068792 0.0582 0.037042 0.0291 0.034396 0.0291 0.037042 0.02646 0.034396 0.0291 0.037042 0.02911 0.074084 0.0582 0.034396 0.02646 0.037042 0.0291 0.037042 0.02646 0.074084 0.0582 0.074084 0.05292 0.039688 0.02646 0.22225 0.15876 0.039688 0.02646 0.039687 0.02381 0.039688 0.02646 0.037042 0.02646 0.079375 0.05292 0.037042 0.02381 0.079375 0.04762 0.11906 0.07143 0.042333 0.02381 0.079375 0.04762 0.044979 0.02646 27.697 16.192 0.0344 0.02117 0.0291 0.01588 0.09525 0.04764 0.0291 0.01852 0.09525 0.04764 0.03175 0.01852 0.0635 0.03176 0.03175 0.01587 0.15875 0.0794 0.0291 0.01587 0.0635 0.03176 0.03175 0.01323 0.03175 0.01587 0.09525 0.03969 0.03175 0.01588 0.03175 0.01587 0.03175 0.01323 0.03175 0.01588 0.28575 0.11907 0.03175 0.01058 0.0344 0.01323 0.127 0.05292 0.03175 0.01058 0.03175 0.01323 0.0635 0.02116 0.0344 0.01058 0.03175 0.01058 0.0291 0.01058 0.06879 0.02117 0.06615 0.02117 0.46304 0.12964 0.19845 0.04764 0.06615 0.01323 0.06615 0.01588 0.19844 0.03969 0.06615 0.01058 0.06615 0.01323 0.1323 0.02116 0.06879 0.01058 0.06615 0.01058 0.20637 0.0237 0.06879 0.0053 0.06615 0.0053 0.06879 0.0053 0.06615 0.0053 0.13758 0.0106 0.06615 0.0053 0.1323 0.0052 0.06879 0.0026h0.33867l0.06879-0.0026h0.06879l0.13758-0.0052 0.13758-0.0106 0.06879-0.0026 0.20637-0.0159 0.06615-0.0053 0.13758-0.0158 0.06615-0.0079 0.06879-0.0079 0.06615-0.01058 0.06879-0.01058 0.06615-0.01058 0.06879-0.01058 0.06615-0.01058 0.06615-0.01323 0.06615-0.01058 0.06879-0.01323 0.06615-0.01323 0.06615-0.01588 0.06615-0.01323 0.06615-0.01587 0.19845-0.04764 0.2646-0.07408 0.06879-0.02117 0.09525-0.03174 0.0344-0.01058 0.03175-0.01058 0.0344-0.01058 0.0635-0.02116 0.0344-0.01058 0.0635-0.02116 0.0344-0.01323 0.03175-0.01058 0.03439-0.01058 0.03175-0.01323 0.09525-0.03174 0.0344-0.01323 0.03175-0.01058 0.3175-0.1323 0.0635-0.03176 0.03175-0.01323 0.03175-0.01587 0.03175-0.01588 0.03175-0.01323 0.0635-0.03176 0.03175-0.01587 0.0291-0.01588 0.127-0.06352 0.03175-0.01587 0.09525-0.04764 0.02911-0.01588 0.03175-0.01588 0.03175-0.01587 0.0344-0.01852 30.684-17.1 0.03704-0.01852 0.0344-0.01852 0.09525-0.05556 0.03175-0.02117 0.0344-0.01852 0.09525-0.05556 0.0635-0.04234 0.09525-0.05556 0.0635-0.04234 0.03175-0.01852 0.03175-0.02117 0.03175-0.01852 0.1455-0.10585 0.03175-0.02117 0.02911-0.02117 0.03175-0.02117 0.1455-0.10585 0.03175-0.02117 0.02911-0.02381 0.0291-0.02117 0.0291-0.02381 0.0291-0.02117 0.0582-0.04762 0.02911-0.02381 0.0582-0.04234 0.0291-0.02381 0.02646-0.02381 0.02911-0.02381 0.0291-0.02381 0.02646-0.02117 0.0291-0.02381 0.0291-0.02646 0.02646-0.02381 0.0291-0.02381 0.05292-0.04762 0.02646-0.02646 0.0291-0.02381 0.02646-0.02646 0.02646-0.02381 0.05292-0.05292 0.02646-0.02381 0.02646-0.02646 0.02646-0.02381 0.10584-0.10584 0.02381-0.02646 0.02646-0.02646 0.02381-0.02646 0.07938-0.07938 0.09524-0.10584 0.02646-0.02646 0.16667-0.18522 0.04762-0.0582 0.02381-0.02911 0.07143-0.07938 0.02381-0.0291 0.02381-0.02646 0.02381-0.0291 0.02117-0.02646 0.04234-0.0582 0.02117-0.02646 0.02381-0.0291 0.25404-0.3492 0.01852-0.02911 0.01852-0.03175 0.02117-0.03175 0.02117-0.0291 0.03704-0.0582 0.02117-0.03175 0.02117-0.0291 0.01852-0.0291 0.07408-0.127 0.01852-0.0291 0.03704-0.0635 0.01852-0.0291 0.05556-0.09525 0.01588-0.03175 0.01587-0.03175 0.03704-0.0635 0.01588-0.03175 0.03704-0.0635 0.03174-0.0635 0.01588-0.0344 0.01587-0.03175 0.03704-0.0635 0.01588-0.03175 0.01587-0.03175 0.01588-0.03175 0.01587-0.0344 0.01587-0.03175 0.01588-0.03175 0.01587-0.0344 0.01588-0.03175 0.01587-0.03175 0.01587-0.0344 0.01588-0.0344 0.01587-0.0344 0.01588-0.03175 0.01323-0.03175 0.01323-0.0344 0.01323-0.03439 0.01323-0.0344 0.01323-0.03175 0.03969-0.1032 0.01323-0.03175 0.01323-0.0344 0.01323-0.03439 0.03969-0.1032 0.02116-0.0688 0.01058-0.03439 0.01058-0.0344 0.05292-0.1376 0.01058-0.03439 0.01323-0.0344 0.02116-0.0688 0.01323-0.0344 0.04232-0.1376 0.0079-0.0344 0.04232-0.1376 0.0079-0.0344 0.0079-0.03704 0.01058-0.0344 0.0079-0.0344 0.0079-0.03704 0.01058-0.0344 0.0158-0.0688 0.0079-0.03439 0.0079-0.03704 0.0158-0.0688 0.0053-0.03704 0.0079-0.03704 0.0079-0.0344 0.0053-0.03704 0.0079-0.03439 0.0158-0.07408 0.0079-0.0344 0.0079-0.03704 0.0053-0.03704 0.0079-0.03704 0.0053-0.03439 0.0079-0.0344 0.0371-0.25928 0.0026-0.03704 0.0053-0.03439 0.0026-0.03704 0.0053-0.03704 0.0053-0.0344 0.0053-0.03704 0.0104-0.14816 0.0053-0.03704 0.0286-0.40744v-0.07408l0.0026-0.03704v-36.627l-0.0026-0.032544-0.0026-0.034396v-0.034396l-0.0026-0.034396v-0.034396l-0.0026-0.034396v-0.034396l-0.0026-0.034396-0.0026-0.03175-0.0078-0.10319-0.0026-0.03175-0.0026-0.034396-0.0026-0.03175-0.0026-0.034396-0.0053-0.034396-0.0052-0.0635-0.0053-0.03175-0.0026-0.03175-0.0053-0.034396-0.0026-0.03175-0.0053-0.03175-0.0053-0.034396-0.0026-0.034396-0.0026-0.03175-0.0053-0.029104-0.01058-0.069586-0.0079-0.067469-0.01058-0.068792-0.01058-0.066146-0.02646-0.13229-0.01058-0.066146-0.01323-0.066146-0.03174-0.13229-0.01588-0.066146-0.01587-0.066146-0.01588-0.066146-0.01587-0.066146-0.01588-0.066146-0.05556-0.19844-0.02117-0.066146-0.01852-0.0635-0.08468-0.254-0.04762-0.127-0.02381-0.060854-0.07143-0.1905-0.02646-0.060854-0.02381-0.0635-0.07938-0.18256-0.02911-0.060854-0.02646-0.060854-0.0582-0.12171-0.0291-0.058208-0.03175-0.060854-0.02911-0.060854-0.03175-0.060854-0.15875-0.29104-0.1032-0.17462-0.03704-0.058208-0.0344-0.055562-0.0344-0.055563-0.11112-0.16669-0.11112-0.16669-0.19845-0.26458-0.16932-0.21167-0.04233-0.050271-0.04498-0.050271-0.04233-0.050271-0.2249-0.25136-0.09524-0.09525-0.04763-0.047625-0.09524-0.09525-0.10054-0.09525-0.25135-0.2249-0.05292-0.044979-0.10584-0.084666-0.05027-0.042333-0.05556-0.044979-0.02381-0.018521-0.10584-0.084668-0.02646-0.018521-0.05292-0.042334-0.0582-0.042334-0.07938-0.063501-0.02646-0.018521-0.02646-0.021167-0.0291-0.021167-0.05292-0.037042-0.0291-0.021167-0.0582-0.037042-0.02646-0.018521-0.1455-0.092605-0.02911-0.018521-0.0873-0.055563-0.0582-0.03175-0.0344-0.018521-29.94-17.565-0.04233-0.02593-0.03836-0.02117-0.07938-0.04762-0.03889-0.02196-0.03969-0.02117-0.03836-0.02117-0.11907-0.06351-0.03889-0.02117-0.23814-0.12702-0.04048-0.01852-0.03969-0.02117-0.07938-0.03704-0.03969-0.02117-0.04101-0.01852-0.07938-0.03704-0.04128-0.01852-0.03969-0.01852-0.03969-0.01588-0.04101-0.01852-0.04022-0.01852-0.03969-0.01852-0.04101-0.01588-0.03969-0.01588-0.04233-0.01587-0.04075-0.01852-0.0418-0.01588-0.04233-0.01852-0.04233-0.01588-0.04101-0.01587-0.04101-0.01588-0.04154-0.01588-0.04233-0.01587-0.04233-0.01588-0.03969-0.01588-0.07938-0.02646-0.04233-0.01588-0.04233-0.01323-0.03969-0.01323-0.08466-0.02646-0.03969-0.01323-0.12699-0.03969-0.03969-0.01323-0.12699-0.03969-0.04233-0.01058-0.04233-0.01323-0.04233-0.01058-0.04233-0.01323-0.12699-0.03174-0.04233-0.01323-0.08466-0.02116-0.04233-0.0079-0.12699-0.03174-0.04233-0.0079-0.04233-0.01058-0.08466-0.0158-0.04233-0.01058-0.25398-0.0474-0.04498-0.0079-0.16932-0.0212-0.08466-0.0158-0.04233-0.0053-0.04498-0.0079-0.04233-0.0053-0.04233-0.0079-0.21165-0.0265-0.04498-0.0053-0.04233-0.0026-0.08466-0.0106-0.21165-0.013-0.08996-0.0052-0.08466-0.0052h-0.04233l-0.08466-0.0052h-0.04498l-0.08466-0.0052-0.03969-0.0026-0.04233-0.0026h-0.08731l-0.04233-0.0026h-0.08467z" fill="#c9177e" fill-rule="evenodd"/>
  <path d="m10.885 43.448v-54.827h11.471v19.971h19.028v-19.971h11.504v54.827h-11.504v-23.973h-19.028v23.973z" fill="#fff"/>
 </g>
</svg>
