<svg width="1200" height="1200" version="1.1" viewBox="0 0 1200 1200" xmlns="http://www.w3.org/2000/svg">
 <g transform="matrix(13.483 0 0 13.483 -8964.1 -7855.5)">
  <path d="m709.69 596.61s-3.4103 2.695-6.8869 5.3717c-3.5764-0.11362-10.591 0.68718-14.392 2.0695-3.5013-2.2182-6.5779-4.6673-6.5779-4.6673s-2.629 4.5228-4.2822 7.177c-2.4519 1.304-4.9136 2.7707-7.1076 4.7113-2.5519-1.0133-5.5101-2.2488-5.6066-2.2896 3.3794 6.8164 5.6513 13.642 11.831 17.744 9.839-15.539 55.56-14.107 65.602-0.0881 6.49-3.3851 9.0141-10.668 11.566-17.392-0.27986 0.0922-3.7527 1.2549-6.004 2.1135-1.3441-1.4634-4.5123-3.7133-6.313-4.7994-1.708-3.1277-4.194-7.3531-4.194-7.3531s-2.9444 2.1899-6.3571 4.5792c-4.6106-0.85108-10.187-1.8852-14.877-1.6292-3.1929-2.6244-6.4013-5.5479-6.4013-5.5479z" style="fill:#f3d400"/>
  <path d="m668.33 623.47s4.7899 11.598 8.1165 19.657c14.096 18.597 50.092 19.89 65.785 0.36006 3.7134-8.3688 8.7233-20.13 8.7233-20.13-4.0259 5.9641-10.578 10.081-14.613 12.299-2.8674 1.5708-9.4834 2.5203-9.4834 2.5203l-17.37-9.0011-17.469 8.821s-6.5281-1.0488-9.4834-2.4303c-5.9647-3.1841-9.9764-6.9459-14.206-12.096z" style="fill:#ffe953"/>
 </g>
</svg>
