<svg width="1200" height="1200" version="1.1" viewBox="0 0 1200 1200" xmlns="http://www.w3.org/2000/svg">
 <g transform="matrix(3.125 0 0 3.125 144.2 336.17)">
  <g transform="matrix(1.5 0 0 1.5 -46.145 -72.483)">
   <path d="m231.94 142.04c-3.5329 0-6.9559 0.77199-9.9798 2.146-1.326-0.80598-1.999-1.588-3.9989-2.35v-89.124l-90.212-52.5-75.763 44.721c-1.286-0.75298-2.58-1.539-3.9069-2.343-0.109-13.168-10.843-23.848-24.036-23.848-13.261 0-24.046 10.789-24.046 24.05s10.791 24.05 24.052 24.05c3.5329 0 7.0309-0.77198 10.055-2.146 1.253 0.76198 2.8599 1.502 3.8599 2.224v89.93l90.084 52.143 76.497-44.746c1.124 0.66199 2.23 1.345 3.3849 2.046 0.11 13.168 10.835 23.848 24.028 23.848 13.261 0 24.041-10.79 24.041-24.051s-10.798-24.05-24.059-24.05" fill="#b8c6c9"/>
   <g transform="translate(13,15)" fill="#759bc5">
    <path d="m114.88 179.07 77.148-45.14v-88.649l-77.152-44.919-77.106 45.548v88.543l77.11 44.618"/>
    <path d="m229.93 151.29c0 6.0481-4.8972 10.95-10.937 10.95-6.0408 0-10.937-4.9022-10.937-10.95 0-6.0471 4.8962-10.95 10.937-10.95 6.0398 0 10.937 4.9032 10.937 10.95"/>
    <path d="m0.072252 27.784c0-6.0471 4.8962-10.95 10.937-10.95 6.0398 0 10.937 4.9032 10.937 10.95 0 6.0471-4.8972 10.95-10.937 10.95-6.0408 0-10.937-4.9032-10.937-10.95"/>
   </g>
   <path d="m232.1 172.75c-3.62 0-6.5644-2.9454-6.5644-6.5654 0-3.62 2.9444-6.5644 6.5644-6.5644s6.5644 2.9444 6.5644 6.5644c0 3.62-2.9444 6.5654-6.5644 6.5654zm-89.159 7.355c7.1449-10.292 15.613-25.043 20.822-42.76 11.066 2.2709 21.395 5.9509 32.599 11.542zm-53.921-102.06c-1.7264 7.2029-2.9094 14.874-3.1766 22.945-10.058 3e-3 -19.858 3e-3 -30.867 3e-3v-35.417c11.009 5.9349 22.598 9.9362 34.044 12.469zm-64.981-28.694c-3.62 0-6.5654-2.9444-6.5654-6.5644s2.9454-6.5644 6.5654-6.5644 6.5644 2.9444 6.5644 6.5644-2.9444 6.5644-6.5644 6.5644zm87.425-19.163c-7.1779 10.024-15.394 24.083-20.525 41.135-10.346-2.2509-20.104-5.7687-30.609-10.965zm19.386 97.081c6e-3 -2.6912 0.014-5.4245 0.022-8.1887 5.6727-1.1369 10.175-5.5125 11.523-11.106 6.9317 6e-3 13.555 0.01 20.052 0.011-0.26422 7.4802-1.3471 14.677-2.9905 21.497-8.7872-1.4292-18.115-2.1037-28.608-2.2128zm-0.012 7.0008c9.8661 0.10108 18.591 0.70058 26.78 1.9746-6.9267 22.825-19.529 40.671-26.635 49.495-0.1211-16.324-0.16914-33.12-0.14512-51.469zm-39.882 4.0533c5.1402 17.12 13.366 31.122 20.551 41.066l-52.484-30.332c6.4243-3.0185 17.44-7.4922 31.933-10.734zm22.537-30.346c1.3271 5.5025 5.7087 9.8211 11.253 11.041-9e-3 2.7913-0.017 5.5516-0.023 8.2688-10.81 0.18215-20.715 1.3211-29.545 2.9704-1.7004-6.9858-2.8123-14.433-3.0615-22.268 6.9647-2e-3 14.017-6e-3 21.377-0.012zm11.225-26.276c7e-3 2.7623 0.015 5.5175 0.024 8.2688-5.5306 1.218-9.9032 5.5195-11.24 11.004-7.3601 6e-3 -14.411 0.01-21.375 0.013 0.26722-7.6523 1.3511-14.926 2.9985-21.758 9.0845 1.5823 18.711 2.3369 29.592 2.472zm-0.0691-53.737c9e-3 15.356 0.019 31.085 0.052 46.734-10.243-0.1261-19.261-0.79465-27.734-2.2148 7.1219-23.304 20.275-40.676 27.679-49.143l3e-3 4.6238zm38.968 43.151c-5.1942-17.348-13.513-31.768-20.569-41.881l53.775 31.272c-6.6405 3.0155-18.107 7.4862-33.206 10.61zm-32.841-43.155-3e-3 -4.6989c7.0148 8.5751 19.692 26.218 26.717 49.005-8.0606 1.3671-16.997 2.2919-26.662 2.427-0.033-15.649-0.043-31.378-0.052-46.733zm-2.8323 84.41c-4.3436 0-7.8775-3.5339-7.8775-7.8775 0-4.3436 3.5339-7.8775 7.8775-7.8775s7.8775 3.5339 7.8775 7.8775c0 4.3436-3.5339 7.8775-7.8775 7.8775zm-3.0835 73.846c-7.312-8.3439-20.582-25.763-27.801-49.143 8.3118-1.5393 17.593-2.6021 27.652-2.7833-0.024 18.518 0.025 35.457 0.14912 51.927zm17.524-85.245c-1.3611-5.5746-5.8558-9.9322-11.516-11.065-8e-3 -2.7312-0.016-5.4675-0.023-8.2098 10.399-0.13711 19.957-1.1309 28.529-2.6031 1.6944 6.9257 2.8113 14.254 3.0755 21.89-6.5003-2e-3 -13.13-6e-3 -20.066-0.012zm57.711-0.01c-10.008 0.014-21.207 0.022-31.838 0.022-0.25721-8.0666-1.5563-15.777-3.2917-23.043 16.321-3.3858 29.125-8.2928 35.13-11.488v34.509zm-145.12 7.0328c11.009 0 20.852 0 30.905-3e-3 0.2432 8.2968 1.3311 16.153 3.0825 23.505-15.62 3.4949-26.982 8.3779-33.988 11.59zm110.25 22.616c1.6784-7.1509 2.6162-14.721 2.8724-22.624 10.629-1e-3 21.993-8e-3 32.001-0.023v35.327c-11.009-6.128-22.948-10.183-34.874-12.68zm66.879 20.262c-4.1134 0-8.0426 1.6384-10.797 4.2865-4.1594-2.6092-8.1978-4.9901-12.201-7.1719v-90.236l-81.376-47.436-76.586 45.244c-4.0874-2.2879-8.2778-4.817-12.745-7.6193 0.57948-1.6133 0.93577-3.3428 0.93577-5.1522 0-8.446-6.8596-15.317-15.306-15.317s-15.311 6.8707-15.311 15.317c0 8.446 6.8747 15.318 15.321 15.318 4.1134 0 7.6163-1.6383 10.372-4.2865 4.0824 2.5601 8.559 4.9 11.562 7.0488v91.023l81.756 47.115 77.605-45.284c3.9182 2.2068 8.0386 4.6388 12.307 7.316-0.57948 1.6133-0.88273 3.3428-0.88273 5.1522 0 8.446 6.8857 15.318 15.332 15.318s15.325-6.8716 15.325-15.318-6.8636-15.317-15.31-15.317z" fill="#343532"/>
  </g>
 </g>
</svg>
