<svg width="1200" height="1200" version="1.1" viewBox="0 0 1200 1200" xmlns="http://www.w3.org/2000/svg">
 <rect id="logo-background" width="1200" height="1200" fill="#800000" stroke-width="1.9556"/>
 <g id="logo-foreground" transform="translate(2.25e-5)" fill="#fff" stroke-width="2" aria-label="Schema .org">
  <path d="m209.96 318.88v25.651q-14.974-7.1614-28.255-10.677t-25.651-3.5156q-21.484 0-33.203 8.3333-11.589 8.3333-11.589 23.698 0 12.891 7.6823 19.531 7.8125 6.5104 29.427 10.547l15.885 3.2552q29.427 5.599 43.359 19.792 14.062 14.062 14.062 37.76 0 28.255-19.01 42.838-18.88 14.583-55.469 14.583-13.802 0-29.427-3.125-15.495-3.125-32.161-9.2448v-27.083q16.016 8.9844 31.38 13.542 15.365 4.5573 30.208 4.5573 22.526 0 34.766-8.8542 12.24-8.8541 12.24-25.26 0-14.323-8.8542-22.396-8.7239-8.0729-28.776-12.109l-16.016-3.125q-29.427-5.8594-42.578-18.359-13.151-12.5-13.151-34.766 0-25.781 18.099-40.625 18.229-14.844 50.13-14.844 13.672 0 27.865 2.474t29.036 7.4218z"/>
  <path d="m366.6 366.67v22.396q-10.156-5.599-20.443-8.3333-10.156-2.8646-20.573-2.8646-23.307 0-36.198 14.844-12.891 14.714-12.891 41.406t12.891 41.536q12.891 14.714 36.198 14.714 10.417 0 20.573-2.7344 10.286-2.8646 20.443-8.4635v22.135q-10.026 4.6875-20.833 7.0312-10.677 2.3438-22.786 2.3438-32.943 0-52.344-20.703t-19.401-55.859q0-35.677 19.531-56.12 19.661-20.443 53.776-20.443 11.068 0 21.615 2.3437 10.547 2.2135 20.443 6.7708z"/>
  <path d="m529.49 418.88v88.021h-23.958v-87.239q0-20.703-8.0729-30.99-8.0729-10.286-24.219-10.286-19.401 0-30.599 12.37t-11.198 33.724v82.422h-24.088v-202.6h24.088v79.427q8.5937-13.151 20.182-19.661 11.719-6.5104 26.953-6.5104 25.13 0 38.021 15.625 12.891 15.495 12.891 45.703z"/>
  <path d="m702.02 428v11.719h-110.16q1.5625 24.74 14.844 37.76 13.411 12.891 37.239 12.891 13.802 0 26.693-3.3854 13.021-3.3854 25.781-10.156v22.656q-12.891 5.4687-26.432 8.3333-13.542 2.8646-27.474 2.8646-34.896 0-55.338-20.312-20.312-20.312-20.312-54.948 0-35.807 19.271-56.771 19.401-21.094 52.213-21.094 29.427 0 46.484 19.01 17.187 18.88 17.187 51.432zm-23.958-7.0312q-0.26041-19.661-11.068-31.38-10.677-11.719-28.385-11.719-20.052 0-32.161 11.328-11.979 11.328-13.802 31.901z"/>
  <path d="m854.88 389.06q8.9844-16.146 21.484-23.828t29.427-7.6823q22.786 0 35.156 16.016 12.37 15.885 12.37 45.312v88.021h-24.088v-87.239q0-20.963-7.4219-31.12-7.4218-10.156-22.656-10.156-18.62 0-29.427 12.37t-10.807 33.724v82.422h-24.088v-87.239q0-21.094-7.4219-31.12-7.4218-10.156-22.917-10.156-18.359 0-29.167 12.5-10.807 12.37-10.807 33.594v82.422h-24.088v-145.83h24.088v22.656q8.2031-13.411 19.661-19.792 11.458-6.3802 27.213-6.3802 15.885 0 26.953 8.0729 11.198 8.0729 16.536 23.437z"/>
  <path d="m1067.4 433.59q-29.036 0-40.234 6.6406t-11.198 22.656q0 12.76 8.3334 20.312 8.4635 7.4219 22.917 7.4219 19.922 0 31.901-14.062 12.109-14.193 12.109-37.63v-5.3385zm47.786-9.8958v83.203h-23.958v-22.135q-8.2031 13.281-20.443 19.661-12.24 6.25-29.948 6.25-22.396 0-35.677-12.5-13.151-12.63-13.151-33.724 0-24.609 16.406-37.109 16.536-12.5 49.219-12.5h33.594v-2.3437q0-16.536-10.938-25.521-10.807-9.1146-30.469-9.1146-12.5 0-24.349 2.9948t-22.786 8.9844v-22.135q13.151-5.0781 25.521-7.5521 12.37-2.6042 24.088-2.6042 31.64 0 47.266 16.406 15.625 16.406 15.625 49.739z"/>
  <path d="m95.77 807.16h27.474v33.073h-27.474z"/>
  <path d="m233.66 711.2q-19.271 0-30.469 15.104-11.198 14.974-11.198 41.146t11.068 41.276q11.198 14.974 30.599 14.974 19.141 0 30.338-15.104 11.198-15.104 11.198-41.146 0-25.911-11.198-41.016-11.198-15.234-30.338-15.234zm0-20.312q31.25 0 49.088 20.312t17.838 56.25q0 35.807-17.838 56.25-17.838 20.312-49.088 20.312-31.38 0-49.219-20.312-17.708-20.443-17.708-56.25 0-35.937 17.708-56.25 17.838-20.312 49.219-20.312z"/>
  <path d="m424.81 716.8q-4.0364-2.3437-8.8541-3.3854-4.6875-1.1719-10.417-1.1719-20.312 0-31.25 13.281-10.807 13.151-10.807 37.891v76.823h-24.088v-145.83h24.088v22.656q7.5521-13.281 19.661-19.661 12.109-6.5104 29.427-6.5104 2.474 0 5.4687 0.39062 2.9948 0.26042 6.6406 0.91146z"/>
  <path d="m541.21 765.62q0-26.042-10.807-40.364-10.677-14.323-30.078-14.323-19.271 0-30.078 14.323-10.677 14.323-10.677 40.364 0 25.911 10.677 40.234 10.807 14.323 30.078 14.323 19.401 0 30.078-14.323 10.807-14.323 10.807-40.234zm23.958 56.51q0 37.239-16.536 55.338-16.536 18.229-50.651 18.229-12.63 0-23.828-1.9531-11.198-1.8229-21.745-5.7292v-23.307q10.547 5.7292 20.833 8.4635t20.963 2.7344q23.568 0 35.286-12.37 11.719-12.24 11.719-37.109v-11.849q-7.4218 12.891-19.01 19.271-11.589 6.3802-27.734 6.3802-26.823 0-43.229-20.443t-16.406-54.167q0-33.854 16.406-54.297t43.229-20.443q16.146 0 27.734 6.3802 11.589 6.3802 19.01 19.271v-22.135h23.958z"/>
 </g>
</svg>
