<svg width="1200" height="1200" version="1.1" viewBox="0 0 1200 1200" xmlns="http://www.w3.org/2000/svg">
<g transform="matrix(.48221 0 0 .48233 376.24 286.59)" style="stroke-width:2.0735">
<ellipse cx="464.04" cy="649.78" rx="1244.3" ry="1244" style="fill:#fc0;opacity:.99"/>
<path d="m464.04-594.18a1244.3 1244 0 00-1244.3 1244 1244.3 1244 0 0077.039 430.91c16.635-10.417 34.148-21.712 52.594-33.929 77.524-51.348 170.34-117.94 272.48-194.38 204.29-152.87 445.9-345.1 677.24-533.45 387.76-315.72 743.22-617.63 849.28-708.07a1244.3 1244 0 00-684.35-205.04zm755.02 255.19c-86.479 75.411-455.27 398.02-840.45 750.01-220.21 201.24-445.76 412.07-626.91 591.76-90.574 89.841-170.04 171.9-232.19 241.06-34.525 38.422-63.683 72.852-86.44 102.43a1244.3 1244 0 0099.101 127.83c34.81-24.222 78.458-59.861 129.01-104.66 69.59-61.67 152.19-140.58 242.66-230.53 180.93-179.9 393.31-403.98 596.06-622.8 349.57-377.26 669.16-737.34 751.05-829.92a1244.3 1244 0 00-31.897-25.187zm95.217 80.537c-80.871 93.458-395.31 458.06-722.78 854.66-189.94 230.02-383.81 470.29-538.08 673.51-77.133 101.61-144.36 193.96-196.23 271.11-37.696 56.072-67.232 104.08-86.61 141.8a1244.3 1244 0 00141.27 81.898c26.243-26.452 56.423-59.843 89.83-99.063 60.291-70.783 131.06-160.45 208.07-262.15 154.02-203.41 333.01-454.95 503.2-699.94 297.64-428.43 568.31-836.71 631.62-932.52a1244.3 1244 0 00-30.277-29.305zm89.356 92.73c-75.634 117.28-327.53 509.53-588.81 935.61-155.93 254.29-314.34 519.27-438.7 742.04-62.18 111.38-115.85 212.21-156.43 295.86-9.5686 19.722-18.343 38.402-26.396 56.128a1244.3 1244 0 00270.74 29.807 1244.3 1244 0 001244.3-1244 1244.3 1244 0 00-304.69-815.5z" style="fill:#00001a;opacity:.99"/>
<g transform="matrix(1.3503 0 0 1.3503 -162.55 -227.15)" style="stroke-width:1.5356">
<path d="m464.04-127.54-101.54 463.93-177.92 814.97 180.63 176.69 28.3.2343 14.044-29.829s47.284 125.56 58.176 127.92 54.799-127.92 54.799-127.92l14.044 29.829 29.882.036 179.05-176.96z" style="fill:#ececec"/>
<g style="fill:#999">
<g transform="translate(-53.042 103.21)" style="fill:#999">
<path d="m517.08-230.75s-54.199 221.13-95.925 455.71c0 0-79.092 109.19-162.6 312.7l-296.3 438.78s-15.172 28.702 63.632 36.199c66.157 6.294 211.73 35.51 211.73 35.51" style="fill:#999"/>
<path d="m237.62 1048.1-96.951 114.11 20.646 73.875 168.06 30.329 36.539-71.214 14.146 29.829h66.495l14.044-29.829s46.339 123.55 58.176 127.92" style="fill:#999"/>
<path d="m517.08-230.75s54.199 221.13 95.925 455.71c0 0 79.092 109.19 162.6 312.7l296.3 438.78s15.172 28.702-63.632 36.199c-66.157 6.294-211.73 35.51-211.73 35.51" style="fill:#999"/>
<path d="m796.54 1048.1 96.951 114.11-20.646 73.875-168.06 30.329-36.539-71.214-14.146 29.829h-66.495l-14.044-29.829s-42.962 123.55-54.799 127.92" style="fill:#999"/>
</g>
<ellipse cx="464.04" cy="309.3" rx="32.184" ry="145.52" style="fill:#999;opacity:.99"/>
</g>
</g>
<text transform="scale(1.0001 .99987)" x="1263.1343" y="417.75635" style="font-family:'Noto Sans';font-size:243.29px;font-weight:300;line-height:1.25;stroke-width:4.2995" xml:space="preserve"><tspan x="1263.1343" y="417.75635" style="stroke-width:4.2995"/></text>
</g>
</svg>
