<svg width="1200" height="628" version="1.1" viewBox="0 0 1200 628" xmlns="http://www.w3.org/2000/svg" xmlns:xlink="http://www.w3.org/1999/xlink">
<defs>
<linearGradient id="linearGradient2289">
<stop style="stop-color:#40a" offset="0"/>
<stop style="stop-color:#40a;stop-opacity:0" offset="1"/>
</linearGradient>
<linearGradient id="linearGradient2291" x1="-.00010338" x2="317.5" y1="83.079" y2="83.079" gradientTransform="matrix(3.7795 0 0 3.7795 .00042763 .0012221)" gradientUnits="userSpaceOnUse" xlink:href="#linearGradient2289"/>
<linearGradient id="linearGradient95494" x1="-.00010338" x2="317.5" y1="83.079" y2="83.079" gradientTransform="matrix(4.8683 0 0 3.7795 -345.65 .001613)" gradientUnits="userSpaceOnUse" xlink:href="#linearGradient2289"/>
</defs>
<rect x=".10001" y=".10081" width="1199.8" height="627.8" style="fill:#fff;stroke-linecap:round;stroke-linejoin:round;stroke-width:.2;stroke:url(#linearGradient2291)"/>
<path d="m891.64 0.10081c-119.17 48.538-231.71 100.29-246.84 118.63-31.259 37.885-31.812 399.8-0.66919 437.73 10.137 12.347 64.396 39.909 134.98 71.439h420.78v-627.8z" style="fill:#00002b;stroke-linecap:round;stroke-linejoin:round;stroke-width:.22699;stroke:url(#linearGradient95494)"/>
<g transform="matrix(3.7795 0 0 3.7795 .00040339 -66.867)" style="fill:#fff">
<g transform="matrix(.26458 0 0 .26458 -39.125 2.5694)" style="shape-inside:url(#rect5106);white-space:pre" aria-label="Salut">
<g transform="translate(0,102.36)">
<g transform="translate(0 12.173)">
<g transform="matrix(2.1686 0 0 2.1686 417.08 -123.28)" style="fill:#fff">
<g transform="translate(1.3703 -30.162)" style="fill:#fff">
<g transform="matrix(.52276 0 0 .52276 255.25 114.65)" style="fill:#fff">
<g transform="translate(-10.315)" style="fill:#fff">
<g style="fill:#fff;stroke-width:.26458" aria-label="ZORALAB">
<path d="m116.57 100.74h-24.744v-1.3829l21.632-32.103h-20.398v-1.778h22.916v1.3829l-21.583 32.103h22.176z" style="color-rendering:auto;color:#000000;dominant-baseline:auto;fill:#fff;font-feature-settings:normal;font-variant-alternates:normal;font-variant-caps:normal;font-variant-east-asian:normal;font-variant-ligatures:normal;font-variant-numeric:normal;font-variant-position:normal;font-variation-settings:normal;image-rendering:auto;inline-size:0;isolation:auto;mix-blend-mode:normal;shape-margin:0;shape-padding:0;shape-rendering:auto;solid-color:#000000;stop-color:#000000;text-decoration-color:#000000;text-decoration-line:none;text-decoration-style:solid;text-indent:0;text-orientation:mixed;text-transform:none;white-space:normal"/>
<path d="m155.07 83.054c0 3.556-0.5762 6.7004-1.7286 9.4333s-2.8975 4.873-5.2352 6.4206c-2.3048 1.5475-5.2023 2.3213-8.6924 2.3213-3.4572 0-6.3547-0.77376-8.6924-2.3213-2.3048-1.5475-4.0334-3.6877-5.1858-6.4206s-1.7286-5.8937-1.7286-9.4827c0-3.556 0.59267-6.684 1.778-9.3839 1.2182-2.7329 3.0127-4.8566 5.3834-6.3712 2.3707-1.5475 5.2682-2.3213 8.6924-2.3213 4.9389 0 8.7418 1.6134 11.409 4.8401 2.667 3.1938 4.0005 7.6224 4.0005 13.286zm-29.288-0.04939c0 3.2267 0.49389 6.0748 1.4817 8.5443 0.98777 2.4694 2.4859 4.4121 4.4944 5.8279 2.0414 1.3829 4.6096 2.0743 7.7047 2.0743 3.095 0 5.6468-0.69144 7.6553-2.0743 2.0085-1.3829 3.4902-3.2926 4.445-5.7291 0.98777-2.4694 1.4817-5.334 1.4817-8.5937 0-5.1694-1.1524-9.1863-3.4572-12.051-2.2719-2.8646-5.5809-4.2968-9.9272-4.2968-3.128 0-5.7126 0.69144-7.7541 2.0743s-3.5725 3.3091-4.5932 5.7785c-1.0207 2.4365-1.5311 5.2517-1.5311 8.4455z" style="color-rendering:auto;color:#000000;dominant-baseline:auto;fill:#fff;font-feature-settings:normal;font-variant-alternates:normal;font-variant-caps:normal;font-variant-east-asian:normal;font-variant-ligatures:normal;font-variant-numeric:normal;font-variant-position:normal;font-variation-settings:normal;image-rendering:auto;inline-size:0;isolation:auto;mix-blend-mode:normal;shape-margin:0;shape-padding:0;shape-rendering:auto;solid-color:#000000;stop-color:#000000;text-decoration-color:#000000;text-decoration-line:none;text-decoration-style:solid;text-indent:0;text-orientation:mixed;text-transform:none;white-space:normal"/>
<path d="m174.11 65.472c4.1157 0 7.2437 0.69144 9.3839 2.0743 2.1402 1.35 3.2103 3.8194 3.2103 7.4083 0 2.667-0.70791 4.7907-2.1237 6.3712-1.4158 1.5475-3.309 2.6505-5.6797 3.3091l9.6802 16.101h-2.3213l-9.2851-15.558h-9.1863v15.558h-1.9262v-35.264zm-0.24695 1.778h-6.0748v16.2h7.4577c2.8646 0 5.1529-0.72437 6.8651-2.1731 1.7122-1.4817 2.5682-3.5725 2.5682-6.2724 0-2.9633-0.889-4.9883-2.667-6.0748-1.778-1.1195-4.4944-1.6792-8.1492-1.6792z" style="color-rendering:auto;color:#000000;dominant-baseline:auto;fill:#fff;font-feature-settings:normal;font-variant-alternates:normal;font-variant-caps:normal;font-variant-east-asian:normal;font-variant-ligatures:normal;font-variant-numeric:normal;font-variant-position:normal;font-variation-settings:normal;image-rendering:auto;inline-size:0;isolation:auto;mix-blend-mode:normal;shape-margin:0;shape-padding:0;shape-rendering:auto;solid-color:#000000;stop-color:#000000;text-decoration-color:#000000;text-decoration-line:none;text-decoration-style:solid;text-indent:0;text-orientation:mixed;text-transform:none;white-space:normal"/>
<path d="m219.48 100.74-4.9389-12.891h-15.064l-5.0377 12.891h-2.0249l13.878-35.362h1.8274l13.384 35.362zm-10.767-28.547c-0.16463-0.55974-0.39511-1.2347-0.69144-2.0249-0.29633-0.82315-0.59267-1.6628-0.889-2.5188-0.23048 0.79022-0.49389 1.5969-0.79022 2.4201-0.29633 0.79022-0.5762 1.4981-0.83961 2.1237l-5.334 13.878h13.681z" style="color-rendering:auto;color:#000000;dominant-baseline:auto;fill:#fff;font-feature-settings:normal;font-variant-alternates:normal;font-variant-caps:normal;font-variant-east-asian:normal;font-variant-ligatures:normal;font-variant-numeric:normal;font-variant-position:normal;font-variation-settings:normal;image-rendering:auto;inline-size:0;isolation:auto;mix-blend-mode:normal;shape-margin:0;shape-padding:0;shape-rendering:auto;solid-color:#000000;stop-color:#000000;text-decoration-color:#000000;text-decoration-line:none;text-decoration-style:solid;text-indent:0;text-orientation:mixed;text-transform:none;white-space:normal"/>
<path d="m229.24 100.74v-35.264h1.9262v33.486h17.187v1.778z" style="color-rendering:auto;color:#000000;dominant-baseline:auto;fill:#fff;font-feature-settings:normal;font-variant-alternates:normal;font-variant-caps:normal;font-variant-east-asian:normal;font-variant-ligatures:normal;font-variant-numeric:normal;font-variant-position:normal;font-variation-settings:normal;image-rendering:auto;inline-size:0;isolation:auto;mix-blend-mode:normal;shape-margin:0;shape-padding:0;shape-rendering:auto;solid-color:#000000;stop-color:#000000;text-decoration-color:#000000;text-decoration-line:none;text-decoration-style:solid;text-indent:0;text-orientation:mixed;text-transform:none;white-space:normal"/>
<path d="m279.1 100.74-4.9389-12.891h-15.064l-5.0377 12.891h-2.025l13.878-35.362h1.8274l13.384 35.362zm-10.767-28.547c-0.16463-0.55974-0.39511-1.2347-0.69144-2.0249-0.29633-0.82315-0.59267-1.6628-0.889-2.5188-0.23049 0.79022-0.4939 1.5969-0.79023 2.4201-0.29633 0.79022-0.5762 1.4981-0.83961 2.1237l-5.334 13.878h13.681z" style="color-rendering:auto;color:#000000;dominant-baseline:auto;fill:#fff;font-feature-settings:normal;font-variant-alternates:normal;font-variant-caps:normal;font-variant-east-asian:normal;font-variant-ligatures:normal;font-variant-numeric:normal;font-variant-position:normal;font-variation-settings:normal;image-rendering:auto;inline-size:0;isolation:auto;mix-blend-mode:normal;shape-margin:0;shape-padding:0;shape-rendering:auto;solid-color:#000000;stop-color:#000000;text-decoration-color:#000000;text-decoration-line:none;text-decoration-style:solid;text-indent:0;text-orientation:mixed;text-transform:none;white-space:normal"/>
<path d="m298.39 65.472c4.3462 0 7.4906 0.69144 9.4333 2.0743 1.9756 1.3829 2.9633 3.5395 2.9633 6.4699 0 2.0085-0.59267 3.77-1.778 5.2846-1.1853 1.4817-2.8975 2.4201-5.1364 2.8152v0.09878c2.7658 0.42804 4.7578 1.3664 5.9761 2.8152 1.2512 1.4487 1.8768 3.342 1.8768 5.6797 0 2.3707-0.54328 4.2968-1.6298 5.7785-1.0536 1.4487-2.5188 2.5188-4.3956 3.2103-1.8768 0.69144-4.0334 1.0372-6.47 1.0372h-10.372v-35.264zm0.54328 15.903c3.3914 0 5.8773-0.60913 7.4577-1.8274 1.5804-1.2183 2.3707-3.0127 2.3707-5.3834 0-2.4694-0.82315-4.231-2.4694-5.2846-1.6463-1.0866-4.2968-1.6298-7.9516-1.6298h-7.5565v14.125zm-8.1492 1.7286v15.903h8.5937c3.3255 0 5.8773-0.67498 7.6553-2.0249 1.778-1.3829 2.667-3.4901 2.667-6.3218 0-2.7987-0.93839-4.7578-2.8152-5.8773-1.8768-1.1195-4.5438-1.6792-8.001-1.6792z" style="color-rendering:auto;color:#000000;dominant-baseline:auto;fill:#fff;font-feature-settings:normal;font-variant-alternates:normal;font-variant-caps:normal;font-variant-east-asian:normal;font-variant-ligatures:normal;font-variant-numeric:normal;font-variant-position:normal;font-variation-settings:normal;image-rendering:auto;inline-size:0;isolation:auto;mix-blend-mode:normal;shape-margin:0;shape-padding:0;shape-rendering:auto;solid-color:#000000;stop-color:#000000;text-decoration-color:#000000;text-decoration-line:none;text-decoration-style:solid;text-indent:0;text-orientation:mixed;text-transform:none;white-space:normal"/>
</g>
</g>
</g>
</g>
</g>
<g aria-label="HESTIA">
<path d="m947.04 294.53h-21.533v-38h-32.427v38h-21.66v-90.44h21.66v34.58h32.427v-34.58h21.533z"/>
<path d="m1021.1 294.53h-52.82v-90.44h52.82v17.48h-31.287v17.353h29.007v17.48h-29.007v20.393h31.287z"/>
<path d="m1094.6 268.31q0 7.7267-3.8 14.06-3.8 6.2067-11.4 9.88-7.6 3.5467-19.127 3.5467-7.98 0-14.313-1.3933-6.3334-1.3933-12.287-4.18v-19.633q6.84 3.1667 13.933 5.32 7.22 2.1533 13.807 2.1533 6.2067 0 8.9934-2.28 2.7867-2.4067 2.7867-5.9534 0-4.3067-4.4334-6.9667-4.4333-2.7867-12.54-6.5867-5.32-2.4067-10.387-5.7-4.94-3.42-8.1067-8.4867-3.1667-5.1933-3.1667-13.173 0-12.667 8.7401-19.38 8.8666-6.7134 23.433-6.7134 7.8534 0 14.567 1.9 6.7133 1.7733 13.173 4.4333l-6.84 16.847q-6.08-2.66-11.4-4.0533-5.1934-1.52-10.133-1.52-5.1933 0-7.7267 2.1533-2.5333 2.1533-2.5333 5.4467 0 2.66 1.7733 4.6867 1.7734 1.9 5.5734 3.9267t10.007 4.94q6.7133 3.04 11.527 6.5867 4.8133 3.5467 7.3466 8.36 2.5334 4.6867 2.5334 11.78z"/>
<path d="m1147.1 294.53h-21.533v-72.58h-23.433v-17.86h68.4v17.86h-23.433z"/>
<path d="m1221.5 294.53h-43.953v-12.287l11.147-4.6867v-56.493l-11.147-4.6867v-12.287h43.953v12.287l-11.147 4.6867v56.493l11.147 4.6867z"/>
<path d="m1291.7 294.53-5.5734-19.38h-31.287l-5.5734 19.38h-23.56l30.78-90.82h27.613l31.16 90.82zm-15.707-55.48q-0.6334-2.28-1.7734-6.08-1.0133-3.9267-2.1533-7.98-1.0134-4.0534-1.6467-6.84-0.5067 2.7867-1.6467 6.9667-1.0133 4.0533-2.0266 7.98-1.0134 3.8-1.6467 5.9534l-5.32 18.113h21.533z"/>
</g>
<g aria-label="Peaceful Libraries">
<path d="m905.45 341.1q13.707 0 13.707 10.773 0 5.4933-3.5733 8.64-3.52 3.0933-10.933 3.0933h-5.6v15.573h-3.0933v-38.08zm-0.32 2.72h-6.08v17.067h5.28q5.4933 0 8.5333-1.92 3.0933-1.92 3.0933-6.9333 0-4.2667-2.6667-6.24-2.6133-1.9733-8.16-1.9733z"/>
<path d="m937.51 350.28q3.6267 0 6.0267 1.7067 2.4533 1.6533 3.68 4.5867 1.28 2.9333 1.28 6.72v2.08h-20.267q0 5.6533 2.6133 8.6933 2.6667 2.9867 7.5733 2.9867 2.6133 0 4.5867-0.42666 1.9733-0.48 4.32-1.4933v2.7733q-2.1333 0.96-4.2133 1.3867-2.08 0.42667-4.8 0.42667-6.4 0-9.8133-3.8933-3.4133-3.8933-3.4133-10.613 0-4.32 1.44-7.68 1.4933-3.36 4.2667-5.28 2.7733-1.9733 6.72-1.9733zm-0.0533 2.56q-3.8933 0-6.3467 2.6133-2.4 2.6133-2.7733 7.4133h17.013q0-4.48-1.9733-7.2533-1.92-2.7733-5.92-2.7733z"/>
<path d="m966.2 350.33q4.8 0 7.1467 2.3467 2.3467 2.3467 2.3467 7.4133v19.093h-2.2933l-0.53334-4.8h-0.16q-1.5467 2.4-3.7867 3.8933-2.1867 1.44-6.1333 1.44-4.1067 0-6.4533-2.0267-2.3467-2.08-2.3467-5.92 0-4.2667 3.4667-6.4533 3.4667-2.24 10.08-2.5067l5.1733-0.26666v-1.9733q0-4.16-1.7067-5.92-1.6533-1.76-4.9067-1.76-2.1867 0-4.2133 0.58667-2.0267 0.58666-4.0533 1.5467l-0.96-2.4533q2.0267-0.96 4.3733-1.6 2.4-0.64 4.96-0.64zm1.7067 14.72q-5.44 0.26667-8.1067 1.92-2.6133 1.6-2.6133 4.8 0 2.6667 1.6 4.0533 1.6533 1.3333 4.5333 1.3333 4.4267 0 6.88-2.5067 2.4533-2.56 2.5067-7.04v-2.7733z"/>
<path d="m996.12 379.72q-6.24 0-9.6533-3.84-3.36-3.84-3.36-10.72 0-4.8 1.7067-8.1067 1.7067-3.3067 4.7467-5.0133 3.0933-1.76 7.2-1.76 2.0267 0 3.84 0.37333 1.8134 0.37333 3.2 1.0133l-0.8533 2.6133q-1.44-0.58666-3.0933-0.90666-1.6533-0.37333-3.1467-0.37333-5.0667 0-7.7867 3.2533-2.6667 3.2533-2.6667 8.8533 0 5.3333 2.4 8.64 2.4 3.2533 7.4667 3.2533 2.08 0 3.9466-0.42667 1.8667-0.42666 3.36-1.0667v2.72q-1.3867 0.69333-3.2 1.0667-1.76 0.42667-4.1066 0.42667z"/>
<path d="m1020.9 350.28q3.6267 0 6.0267 1.7067 2.4533 1.6533 3.68 4.5867 1.28 2.9333 1.28 6.72v2.08h-20.267q0 5.6533 2.6134 8.6933 2.6666 2.9867 7.5733 2.9867 2.6133 0 4.5867-0.42666 1.9733-0.48 4.32-1.4933v2.7733q-2.1334 0.96-4.2134 1.3867-2.08 0.42667-4.8 0.42667-6.4 0-9.8133-3.8933t-3.4133-10.613q0-4.32 1.44-7.68 1.4933-3.36 4.2666-5.28 2.7734-1.9733 6.72-1.9733zm-0.053 2.56q-3.8933 0-6.3467 2.6133-2.4 2.6133-2.7733 7.4133h17.013q0-4.48-1.9733-7.2533-1.92-2.7733-5.92-2.7733z"/>
<path d="m1050.6 353.26h-6.7734v25.92h-3.04v-25.92h-5.2266v-1.6533l5.2266-0.90667v-2.8267q0-9.4933 8.48-9.4933 1.4934 0 2.72 0.26667 1.2267 0.21333 2.24 0.53333l-0.6933 2.5067q-0.96-0.32-2.08-0.53334-1.0667-0.21333-2.1333-0.21333-2.88 0-4.2134 1.6533-1.28 1.6533-1.28 5.28v2.9333h6.7734z"/>
<path d="m1078.4 350.81v28.373h-2.4533l-0.48-4.8533h-0.16q-1.1733 2.3467-3.6267 3.8933-2.4 1.4933-6.0266 1.4933-9.9734 0-9.9734-10.347v-18.56h3.04v18.293q0 4.1067 1.8134 6.08 1.8666 1.92 5.4933 1.92 9.3333 0 9.3333-10.827v-15.467z"/>
<path d="m1090.9 379.18h-3.04v-40.533h3.04z"/>
<path d="m1114.8 379.18v-38.08h3.0933v35.253h17.867v2.8267z"/>
<path d="m1143.2 340.3q2.08 0 2.08 2.2933 0 2.3467-2.08 2.3467t-2.08-2.3467q0-2.2933 2.08-2.2933zm1.4933 10.507v28.373h-3.04v-28.373z"/>
<path d="m1157 349.85q0 1.5467-0.053 3.3067-0.053 1.7067-0.1067 2.7733h0.16q1.0667-2.4 3.52-4 2.4533-1.6533 6.1333-1.6533 5.44 0 8.48 3.7333 3.0934 3.68 3.0934 10.933 0 6.72-3.0934 10.773-3.04 4-8.9066 4-3.5734 0-5.8667-1.44-2.24-1.4933-3.3066-3.68h-0.2134l-0.5866 4.5867h-2.2934v-40.533h3.04zm9.28 3.04q-4.96 0-7.1466 3.0933-2.1334 3.0933-2.1334 8.96v0.37333q0 5.76 2.0267 8.8 2.08 2.9867 6.88 2.9867 4.5333 0 6.8266-3.1467 2.3467-3.2 2.3467-9.0667 0-12-8.8-12z"/>
<path d="m1197.7 350.33q2.08 0 3.84 0.42667l-0.48 2.8267q-1.7066-0.48-3.52-0.48-3.8933 0-6.1866 2.88-2.2934 2.88-2.2934 7.6267v15.573h-3.04v-28.373h2.56l0.32 5.28h0.16q1.0667-2.4 3.2534-4.0533 2.1866-1.7067 5.3866-1.7067z"/>
<path d="m1216 350.33q4.8 0 7.1466 2.3467 2.3467 2.3467 2.3467 7.4133v19.093h-2.2933l-0.5334-4.8h-0.16q-1.5466 2.4-3.7866 3.8933-2.1867 1.44-6.1334 1.44-4.1066 0-6.4533-2.0267-2.3467-2.08-2.3467-5.92 0-4.2667 3.4667-6.4533 3.4667-2.24 10.08-2.5067l5.1733-0.26666v-1.9733q0-4.16-1.7066-5.92-1.6534-1.76-4.9067-1.76-2.1867 0-4.2133 0.58667-2.0267 0.58666-4.0534 1.5467l-0.96-2.4533q2.0267-0.96 4.3734-1.6 2.4-0.64 4.96-0.64zm1.7066 14.72q-5.44 0.26667-8.1066 1.92-2.6134 1.6-2.6134 4.8 0 2.6667 1.6 4.0533 1.6534 1.3333 4.5334 1.3333 4.4266 0 6.88-2.5067 2.4533-2.56 2.5066-7.04v-2.7733z"/>
<path d="m1246.2 350.33q2.08 0 3.84 0.42667l-0.48 2.8267q-1.7067-0.48-3.52-0.48-3.8933 0-6.1866 2.88-2.2934 2.88-2.2934 7.6267v15.573h-3.04v-28.373h2.56l0.32 5.28h0.16q1.0667-2.4 3.2534-4.0533 2.1866-1.7067 5.3866-1.7067z"/>
<path d="m1257.1 340.3q2.08 0 2.08 2.2933 0 2.3467-2.08 2.3467t-2.08-2.3467q0-2.2933 2.08-2.2933zm1.4933 10.507v28.373h-3.04v-28.373z"/>
<path d="m1278.7 350.28q3.6267 0 6.0267 1.7067 2.4533 1.6533 3.68 4.5867 1.2799 2.9333 1.2799 6.72v2.08h-20.267q0 5.6533 2.6133 8.6933 2.6667 2.9867 7.5734 2.9867 2.6133 0 4.5866-0.42666 1.9734-0.48 4.32-1.4933v2.7733q-2.1333 0.96-4.2133 1.3867-2.08 0.42667-4.8 0.42667-6.4 0-9.8133-3.8933-3.4134-3.8933-3.4134-10.613 0-4.32 1.44-7.68 1.4934-3.36 4.2667-5.28 2.7733-1.9733 6.72-1.9733zm-0.053 2.56q-3.8934 0-6.3467 2.6133-2.4 2.6133-2.7733 7.4133h17.013q0-4.48-1.9733-7.2533-1.92-2.7733-5.92-2.7733z"/>
<path d="m1315.3 371.66q0 3.84-2.88 5.9733-2.88 2.08-8.1067 2.08-2.9866 0-5.28-0.53333-2.2933-0.48-3.84-1.28v-2.9333q1.8667 0.96 4.2667 1.6 2.4 0.58667 4.9067 0.58667 4.16 0 6.0266-1.3867 1.92-1.44 1.92-3.8933 0-2.3467-1.9733-3.5733-1.9733-1.28-5.8133-2.6133-2.6667-0.90666-4.6934-1.8133-1.9733-0.96-3.0933-2.4t-1.12-3.9467q0-3.4133 2.7733-5.3333 2.7734-1.92 7.4134-1.92 2.56 0 4.7466 0.48 2.24 0.48 4.1067 1.28l-1.12 2.5067q-1.6533-0.69333-3.7333-1.1733-2.08-0.53333-4.16-0.53333-3.36 0-5.2267 1.1733t-1.8667 3.4133q0 1.7067 0.9067 2.72 0.9067 0.96 2.6133 1.6533 1.7067 0.69333 4.16 1.5467 2.56 0.90666 4.5867 1.8667t3.2533 2.4533q1.2267 1.4933 1.2267 4z"/>
</g>
</g>
</g>
</g>
</g>
<text style="fill:#ffffff;font-family:'Noto Sans';font-size:13.333px;font-weight:100;line-height:1.25;shape-inside:url(#rect74026);white-space:pre" xml:space="preserve"/>
<text transform="translate(-1.8905 13.956)" x="110.17236" style="font-family:FreeSerif;font-size:31.75px;line-height:1.25;shape-inside:url(#rect1477);white-space:pre" xml:space="preserve"/>
<text style="font-family:FreeSerif;font-size:10.583px;line-height:1.25;shape-inside:url(#rect1483);white-space:pre" xml:space="preserve"/>
<text style="font-family:FreeSerif;font-size:10.583px;line-height:1.25;shape-inside:url(#rect1489);white-space:pre" xml:space="preserve"/>
<text style="font-family:'Noto Sans';font-size:13.333px;font-weight:100;line-height:1.25;shape-inside:url(#rect15891);white-space:pre" xml:space="preserve"/>
<text transform="matrix(.52333 0 0 .52333 -1.5097e-6 -4.071e-6)" style="font-family:FreeSerif;font-size:10.583px;line-height:1.25;shape-inside:url(#rect1483-3);white-space:pre" xml:space="preserve"/>
<text transform="matrix(.52333 0 0 .52333 -1.5097e-6 -4.071e-6)" style="font-family:FreeSerif;font-size:10.583px;line-height:1.25;shape-inside:url(#rect1489-5);white-space:pre" xml:space="preserve"/>
<path d="m0.10001 0.10004v141.76c23.202 10.33 41.251 17.036 48.279 17.043 27.658 0.02673 225.82-103.09 239.67-124.72 2.8724-4.4842 5.1511-16.995 6.8496-34.086z" style="fill:#fff;stroke-linecap:round;stroke-linejoin:round;stroke-width:.19715;stroke:#b3b3b3"/>
<path d="m0.10001 170.75v286.69c12.122-7.9601 20.488-14.412 22.951-18.258 13.855-21.629 14.1-228.25 0.29688-249.91-2.4776-3.8871-10.956-10.44-23.248-18.529z" style="fill:#fff;stroke-linecap:round;stroke-linejoin:round;stroke-width:.19715;stroke:#008000"/>
<path d="m48.971 469.09c-7.083-7e-3 -25.383 6.7776-48.871 17.199v141.61h294.97c-1.6536-16.846-3.8858-29.173-6.7207-33.621-13.803-21.656-211.72-125.16-239.38-125.19z" style="fill:#fff;stroke-linecap:round;stroke-linejoin:round;stroke-width:.19715;stroke:#40a"/>
<path d="m0.051803 0.052069v141.79c23.206 10.331 41.258 17.039 48.288 17.046 27.663 0.02674 225.86-103.11 239.71-124.74 2.8729-4.4849 5.152-16.998 6.8508-34.091z" style="fill:#00002b;stroke-linecap:round;stroke-linejoin:round;stroke-width:.10318;stroke:#b3b3b3"/>
<path d="m0.051803 170.73v286.74c12.124-7.9613 20.491-14.414 22.955-18.261 13.857-21.632 14.103-228.29 0.29693-249.94-2.478-3.8877-10.958-10.442-23.252-18.532z" style="fill:#00002b;stroke-linecap:round;stroke-linejoin:round;stroke-width:.10318;stroke:#008000"/>
<path d="m48.931 469.12c-7.0843-8e-3 -25.387 6.7787-48.88 17.202v141.63h295.02c-1.6539-16.849-3.8865-29.178-6.7219-33.626-13.806-21.659-211.76-125.18-239.42-125.2z" style="fill:#00002b;stroke-linecap:round;stroke-linejoin:round;stroke-width:.10318;stroke:#40a"/>
<g transform="matrix(.39114 0 0 .39114 29.373 79.318)">
<circle cx="600" cy="600" r="575.41" style="fill:#fff;stroke-linecap:round;stroke-linejoin:round;stroke-width:49.17;stroke:#000080"/>
<g transform="matrix(5.2461 0 0 5.2461 -241.18 1270.3)">
<g transform="translate(-17.373)">
<g transform="matrix(.86901 0 0 .86901 -231.14 -310.67)"></g>
<g transform="matrix(.28965 0 0 .28965 205.9 -252.26)">
<g transform="translate(25.88)">
<path d="m-394.69 699.25c0 38.487 32.396 70.884 70.884 70.884 38.487 0 70.875-32.396 70.875-70.884v-538.9c0-38.487-32.386-70.875-70.875-70.875s-70.884 32.386-70.884 70.875z" style="color-rendering:auto;color:#000000;dominant-baseline:auto;fill:#002b00;font-feature-settings:normal;font-variant-alternates:normal;font-variant-caps:normal;font-variant-east-asian:normal;font-variant-ligatures:normal;font-variant-numeric:normal;font-variant-position:normal;font-variation-settings:normal;image-rendering:auto;inline-size:0;isolation:auto;mix-blend-mode:normal;opacity:.99;shape-margin:0;shape-padding:0;shape-rendering:auto;solid-color:#000000;stop-color:#000000;stroke-width:4.8708;text-decoration-color:#000000;text-decoration-line:none;text-decoration-style:solid;text-indent:0;text-orientation:mixed;text-transform:none;white-space:normal"/>
<g transform="translate(0 13.162)">
<path d="m-379.7 343.75c-36.488 0-67.202 30.713-67.202 67.202 0 36.488 30.713 67.193 67.202 67.193h510.91c36.488 0 67.193-30.704 67.193-67.193 0-36.489-30.704-67.202-67.193-67.202z" style="color-rendering:auto;color:#000000;dominant-baseline:auto;fill:#000080;font-feature-settings:normal;font-variant-alternates:normal;font-variant-caps:normal;font-variant-east-asian:normal;font-variant-ligatures:normal;font-variant-numeric:normal;font-variant-position:normal;font-variation-settings:normal;image-rendering:auto;inline-size:0;isolation:auto;mix-blend-mode:normal;opacity:.99;shape-margin:0;shape-padding:0;shape-rendering:auto;solid-color:#000000;stop-color:#000000;stroke-width:4.6178;text-decoration-color:#000000;text-decoration-line:none;text-decoration-style:solid;text-indent:0;text-orientation:mixed;text-transform:none;white-space:normal"/>
<path d="m-377.57 355.14c-36.488 0-67.202 30.713-67.202 67.202 0 36.488 30.713 67.193 67.202 67.193h510.91c36.488 0 67.193-30.704 67.193-67.193 0-36.489-30.704-67.202-67.193-67.202z" style="color-rendering:auto;color:#000000;dominant-baseline:auto;fill:#0f0;font-feature-settings:normal;font-variant-alternates:normal;font-variant-caps:normal;font-variant-east-asian:normal;font-variant-ligatures:normal;font-variant-numeric:normal;font-variant-position:normal;font-variation-settings:normal;image-rendering:auto;inline-size:0;isolation:auto;mix-blend-mode:normal;opacity:.99;shape-margin:0;shape-padding:0;shape-rendering:auto;solid-color:#000000;stop-color:#000000;stroke-width:4.6178;text-decoration-color:#000000;text-decoration-line:none;text-decoration-style:solid;text-indent:0;text-orientation:mixed;text-transform:none;white-space:normal"/>
</g>
<path d="m6.5583 699.25c0 38.487 32.396 70.884 70.884 70.884 38.487 0 70.875-32.396 70.875-70.884v-538.9c0-38.487-32.386-70.875-70.875-70.875-38.488 0-70.884 32.386-70.884 70.875z" style="color-rendering:auto;color:#000000;dominant-baseline:auto;fill:#00f;font-feature-settings:normal;font-variant-alternates:normal;font-variant-caps:normal;font-variant-east-asian:normal;font-variant-ligatures:normal;font-variant-numeric:normal;font-variant-position:normal;font-variation-settings:normal;image-rendering:auto;inline-size:0;isolation:auto;mix-blend-mode:normal;opacity:.99;shape-margin:0;shape-padding:0;shape-rendering:auto;solid-color:#000000;stop-color:#000000;stroke-width:4.8708;text-decoration-color:#000000;text-decoration-line:none;text-decoration-style:solid;text-indent:0;text-orientation:mixed;text-transform:none;white-space:normal"/>
</g>
<path d="m81.145 188.74c-8.0454 0-14.815 6.6491-14.815 14.551 0 7.9017 6.7701 14.553 14.815 14.553h118.54c8.0454 0 14.815-6.6511 14.815-14.553 0-7.9017-6.7701-14.551-14.815-14.551z" style="color-rendering:auto;color:#000000;dominant-baseline:auto;fill:#00002b;font-feature-settings:normal;font-variant-alternates:normal;font-variant-caps:normal;font-variant-east-asian:normal;font-variant-ligatures:normal;font-variant-numeric:normal;font-variant-position:normal;font-variation-settings:normal;image-rendering:auto;inline-size:0;isolation:auto;mix-blend-mode:normal;opacity:.99;shape-margin:0;shape-padding:0;shape-rendering:auto;solid-color:#000000;stop-color:#000000;text-decoration-color:#000000;text-decoration-line:none;text-decoration-style:solid;text-indent:0;text-orientation:mixed;text-transform:none;white-space:normal"/>
<path d="m117.98 240.87c-8.3489 0-15.376 6.6511-15.376 14.553 0 7.9017 7.0275 14.551 15.376 14.551h117.42c8.3489 0 15.376-6.6491 15.376-14.551 0-7.9017-7.0275-14.553-15.376-14.553z" style="color-rendering:auto;color:#000000;dominant-baseline:auto;fill:#002b00;font-feature-settings:normal;font-variant-alternates:normal;font-variant-caps:normal;font-variant-east-asian:normal;font-variant-ligatures:normal;font-variant-numeric:normal;font-variant-position:normal;font-variation-settings:normal;image-rendering:auto;inline-size:0;isolation:auto;mix-blend-mode:normal;opacity:.99;shape-margin:0;shape-padding:0;shape-rendering:auto;solid-color:#000000;stop-color:#000000;text-decoration-color:#000000;text-decoration-line:none;text-decoration-style:solid;text-indent:0;text-orientation:mixed;text-transform:none;white-space:normal"/>
<path d="m210.21 51.287c-6.0852-5.1999-15.343-4.0676-20.327 1.7728l-120.08 140.74c-4.9831 5.8405-4.6485 15.167 1.4366 20.367 6.0852 5.1999 15.344 4.0704 20.327-1.7701l120.08-140.74c4.9831-5.8405 4.6483-15.17-1.4368-20.37z" style="color-rendering:auto;color:#000000;dominant-baseline:auto;fill:#000080;font-feature-settings:normal;font-variant-alternates:normal;font-variant-caps:normal;font-variant-east-asian:normal;font-variant-ligatures:normal;font-variant-numeric:normal;font-variant-position:normal;font-variation-settings:normal;image-rendering:auto;inline-size:0;isolation:auto;mix-blend-mode:normal;opacity:.99;shape-margin:0;shape-padding:0;shape-rendering:auto;solid-color:#000000;stop-color:#000000;text-decoration-color:#000000;text-decoration-line:none;text-decoration-style:solid;text-indent:0;text-orientation:mixed;text-transform:none;white-space:normal"/>
<path d="m90.003 47.53c-7.9017 0-14.553 6.6511-14.553 14.553 0 7.9017 6.6511 14.551 14.553 14.551h110.64c7.9017 0 14.551-6.6491 14.551-14.551s-6.6491-14.553-14.551-14.553z" style="color-rendering:auto;color:#000000;dominant-baseline:auto;fill:#00f;font-feature-settings:normal;font-variant-alternates:normal;font-variant-caps:normal;font-variant-east-asian:normal;font-variant-ligatures:normal;font-variant-numeric:normal;font-variant-position:normal;font-variation-settings:normal;image-rendering:auto;inline-size:0;isolation:auto;mix-blend-mode:normal;opacity:.99;shape-margin:0;shape-padding:0;shape-rendering:auto;solid-color:#000000;stop-color:#000000;text-decoration-color:#000000;text-decoration-line:none;text-decoration-style:solid;text-indent:0;text-orientation:mixed;text-transform:none;white-space:normal"/>
<path d="m246.28 103.71c-6.0852-5.1999-15.343-4.0676-20.327 1.7728l-120.08 140.74c-4.9831 5.8405-4.6486 15.167 1.4366 20.367 6.0852 5.1999 15.344 4.0704 20.327-1.7701l120.08-140.74c4.9831-5.8405 4.6483-15.17-1.4368-20.37z" style="color-rendering:auto;color:#000000;dominant-baseline:auto;fill:#0f0;font-feature-settings:normal;font-variant-alternates:normal;font-variant-caps:normal;font-variant-east-asian:normal;font-variant-ligatures:normal;font-variant-numeric:normal;font-variant-position:normal;font-variation-settings:normal;image-rendering:auto;inline-size:0;isolation:auto;mix-blend-mode:normal;opacity:.99;shape-margin:0;shape-padding:0;shape-rendering:auto;solid-color:#000000;stop-color:#000000;text-decoration-color:#000000;text-decoration-line:none;text-decoration-style:solid;text-indent:0;text-orientation:mixed;text-transform:none;white-space:normal"/>
</g>
</g>
</g>
<text style="font-family:FreeSerif;font-size:10.583px;line-height:1.25;shape-inside:url(#rect1483-70);white-space:pre" xml:space="preserve"/>
<text style="font-family:FreeSerif;font-size:10.583px;line-height:1.25;shape-inside:url(#rect1489-2);white-space:pre" xml:space="preserve"/>
</g>
</svg>
