<svg width="1200" height="630" version="1.1" viewBox="0 0 1200 630" xmlns="http://www.w3.org/2000/svg" xmlns:xlink="http://www.w3.org/1999/xlink">
 <defs>
  <linearGradient id="linearGradient2289">
   <stop stop-color="#40a" offset="0"/>
   <stop stop-color="#40a" stop-opacity="0" offset="1"/>
  </linearGradient>
  <linearGradient id="linearGradient2291" x1="-.00010338" x2="317.5" y1="83.079" y2="83.079" gradientTransform="matrix(3.7795 0 0 3.7795 .00042763 .0012221)" gradientUnits="userSpaceOnUse" xlink:href="#linearGradient2289"/>
  <linearGradient id="linearGradient95494" x1="-.00010338" x2="317.5" y1="83.079" y2="83.079" gradientTransform="matrix(4.8683 0 0 3.7914 -345.65 .014167)" gradientUnits="userSpaceOnUse" xlink:href="#linearGradient2289"/>
 </defs>
 <rect x=".10001" y=".10081" width="1199.8" height="627.8" fill="#fff" stroke="url(#linearGradient2291)" stroke-linecap="round" stroke-linejoin="round" stroke-width=".2"/>
 <path d="m891.64 0.11367c-119.17 48.691-231.71 100.61-246.84 119-31.259 38.004-31.812 401.06-0.66919 439.11 10.137 12.386 64.396 40.034 134.98 71.664h420.78v-629.77z" fill="#00002b" stroke="url(#linearGradient95494)" stroke-linecap="round" stroke-linejoin="round" stroke-width=".22734"/>
 <g transform="translate(0 1)">
  <g transform="matrix(3.7795 0 0 3.7795 .00040339 -66.867)" fill="#fff">
   <g transform="matrix(.26458 0 0 .26458 -39.125 2.5694)" font-family="'Noto Sans'" font-size="160px" font-weight="100" style="line-height:1.25;shape-inside:url(#rect5106);white-space:pre" aria-label="Salut">
    <g transform="translate(0,102.36)">
     <g transform="translate(0 12.173)">
      <g transform="matrix(2.1686 0 0 2.1686 417.08 -123.28)">
       <text fill="#ffffff" font-family="'Noto Sans'" font-size="88.194px" font-weight="300" style="line-height:1.25;shape-inside:url(#rect875);white-space:pre" xml:space="preserve"/>
       <text fill="#ffffff" font-family="'Noto Sans'" font-size="4.2333px" font-weight="300" style="line-height:1.25;shape-inside:url(#rect881);white-space:pre" xml:space="preserve"/>
       <g transform="translate(1.3703 -30.162)" fill="#fff">
        <g transform="matrix(.52276 0 0 .52276 255.25 114.65)" fill="#fff">
         <g transform="translate(-10.315)" fill="#fff">
          <g fill="#fff" shape-rendering="auto" stroke-width=".26458" aria-label="ZORALAB">
           <path d="m116.57 100.74h-24.744v-1.3829l21.632-32.103h-20.398v-1.778h22.916v1.3829l-21.583 32.103h22.176z" color="#000000" color-rendering="auto" dominant-baseline="auto" image-rendering="auto" solid-color="#000000" stop-color="#000000" style="font-feature-settings:normal;font-variant-alternates:normal;font-variant-caps:normal;font-variant-east-asian:normal;font-variant-ligatures:normal;font-variant-numeric:normal;font-variant-position:normal;font-variation-settings:normal;inline-size:0;isolation:auto;mix-blend-mode:normal;shape-margin:0;shape-padding:0;text-decoration-color:#000000;text-decoration-line:none;text-decoration-style:solid;text-indent:0;text-orientation:mixed;text-transform:none;white-space:normal"/>
           <path d="m155.07 83.054c0 3.556-0.5762 6.7004-1.7286 9.4333s-2.8975 4.873-5.2352 6.4206c-2.3048 1.5475-5.2023 2.3213-8.6924 2.3213-3.4572 0-6.3547-0.77376-8.6924-2.3213-2.3048-1.5475-4.0334-3.6877-5.1858-6.4206s-1.7286-5.8937-1.7286-9.4827c0-3.556 0.59267-6.684 1.778-9.3839 1.2182-2.7329 3.0127-4.8566 5.3834-6.3712 2.3707-1.5475 5.2682-2.3213 8.6924-2.3213 4.9389 0 8.7418 1.6134 11.409 4.8401 2.667 3.1938 4.0005 7.6224 4.0005 13.286zm-29.288-0.04939c0 3.2267 0.49389 6.0748 1.4817 8.5443 0.98777 2.4694 2.4859 4.4121 4.4944 5.8279 2.0414 1.3829 4.6096 2.0743 7.7047 2.0743 3.095 0 5.6468-0.69144 7.6553-2.0743 2.0085-1.3829 3.4902-3.2926 4.445-5.7291 0.98777-2.4694 1.4817-5.334 1.4817-8.5937 0-5.1694-1.1524-9.1863-3.4572-12.051-2.2719-2.8646-5.5809-4.2968-9.9272-4.2968-3.128 0-5.7126 0.69144-7.7541 2.0743s-3.5725 3.3091-4.5932 5.7785c-1.0207 2.4365-1.5311 5.2517-1.5311 8.4455z" color="#000000" color-rendering="auto" dominant-baseline="auto" image-rendering="auto" solid-color="#000000" stop-color="#000000" style="font-feature-settings:normal;font-variant-alternates:normal;font-variant-caps:normal;font-variant-east-asian:normal;font-variant-ligatures:normal;font-variant-numeric:normal;font-variant-position:normal;font-variation-settings:normal;inline-size:0;isolation:auto;mix-blend-mode:normal;shape-margin:0;shape-padding:0;text-decoration-color:#000000;text-decoration-line:none;text-decoration-style:solid;text-indent:0;text-orientation:mixed;text-transform:none;white-space:normal"/>
           <path d="m174.11 65.472c4.1157 0 7.2437 0.69144 9.3839 2.0743 2.1402 1.35 3.2103 3.8194 3.2103 7.4083 0 2.667-0.70791 4.7907-2.1237 6.3712-1.4158 1.5475-3.309 2.6505-5.6797 3.3091l9.6802 16.101h-2.3213l-9.2851-15.558h-9.1863v15.558h-1.9262v-35.264zm-0.24695 1.778h-6.0748v16.2h7.4577c2.8646 0 5.1529-0.72437 6.8651-2.1731 1.7122-1.4817 2.5682-3.5725 2.5682-6.2724 0-2.9633-0.889-4.9883-2.667-6.0748-1.778-1.1195-4.4944-1.6792-8.1492-1.6792z" color="#000000" color-rendering="auto" dominant-baseline="auto" image-rendering="auto" solid-color="#000000" stop-color="#000000" style="font-feature-settings:normal;font-variant-alternates:normal;font-variant-caps:normal;font-variant-east-asian:normal;font-variant-ligatures:normal;font-variant-numeric:normal;font-variant-position:normal;font-variation-settings:normal;inline-size:0;isolation:auto;mix-blend-mode:normal;shape-margin:0;shape-padding:0;text-decoration-color:#000000;text-decoration-line:none;text-decoration-style:solid;text-indent:0;text-orientation:mixed;text-transform:none;white-space:normal"/>
           <path d="m219.48 100.74-4.9389-12.891h-15.064l-5.0377 12.891h-2.0249l13.878-35.362h1.8274l13.384 35.362zm-10.767-28.547c-0.16463-0.55974-0.39511-1.2347-0.69144-2.0249-0.29633-0.82315-0.59267-1.6628-0.889-2.5188-0.23048 0.79022-0.49389 1.5969-0.79022 2.4201-0.29633 0.79022-0.5762 1.4981-0.83961 2.1237l-5.334 13.878h13.681z" color="#000000" color-rendering="auto" dominant-baseline="auto" image-rendering="auto" solid-color="#000000" stop-color="#000000" style="font-feature-settings:normal;font-variant-alternates:normal;font-variant-caps:normal;font-variant-east-asian:normal;font-variant-ligatures:normal;font-variant-numeric:normal;font-variant-position:normal;font-variation-settings:normal;inline-size:0;isolation:auto;mix-blend-mode:normal;shape-margin:0;shape-padding:0;text-decoration-color:#000000;text-decoration-line:none;text-decoration-style:solid;text-indent:0;text-orientation:mixed;text-transform:none;white-space:normal"/>
           <path d="m229.24 100.74v-35.264h1.9262v33.486h17.187v1.778z" color="#000000" color-rendering="auto" dominant-baseline="auto" image-rendering="auto" solid-color="#000000" stop-color="#000000" style="font-feature-settings:normal;font-variant-alternates:normal;font-variant-caps:normal;font-variant-east-asian:normal;font-variant-ligatures:normal;font-variant-numeric:normal;font-variant-position:normal;font-variation-settings:normal;inline-size:0;isolation:auto;mix-blend-mode:normal;shape-margin:0;shape-padding:0;text-decoration-color:#000000;text-decoration-line:none;text-decoration-style:solid;text-indent:0;text-orientation:mixed;text-transform:none;white-space:normal"/>
           <path d="m279.1 100.74-4.9389-12.891h-15.064l-5.0377 12.891h-2.025l13.878-35.362h1.8274l13.384 35.362zm-10.767-28.547c-0.16463-0.55974-0.39511-1.2347-0.69144-2.0249-0.29633-0.82315-0.59267-1.6628-0.889-2.5188-0.23049 0.79022-0.4939 1.5969-0.79023 2.4201-0.29633 0.79022-0.5762 1.4981-0.83961 2.1237l-5.334 13.878h13.681z" color="#000000" color-rendering="auto" dominant-baseline="auto" image-rendering="auto" solid-color="#000000" stop-color="#000000" style="font-feature-settings:normal;font-variant-alternates:normal;font-variant-caps:normal;font-variant-east-asian:normal;font-variant-ligatures:normal;font-variant-numeric:normal;font-variant-position:normal;font-variation-settings:normal;inline-size:0;isolation:auto;mix-blend-mode:normal;shape-margin:0;shape-padding:0;text-decoration-color:#000000;text-decoration-line:none;text-decoration-style:solid;text-indent:0;text-orientation:mixed;text-transform:none;white-space:normal"/>
           <path d="m298.39 65.472c4.3462 0 7.4906 0.69144 9.4333 2.0743 1.9756 1.3829 2.9633 3.5395 2.9633 6.4699 0 2.0085-0.59267 3.77-1.778 5.2846-1.1853 1.4817-2.8975 2.4201-5.1364 2.8152v0.09878c2.7658 0.42804 4.7578 1.3664 5.9761 2.8152 1.2512 1.4487 1.8768 3.342 1.8768 5.6797 0 2.3707-0.54328 4.2968-1.6298 5.7785-1.0536 1.4487-2.5188 2.5188-4.3956 3.2103-1.8768 0.69144-4.0334 1.0372-6.47 1.0372h-10.372v-35.264zm0.54328 15.903c3.3914 0 5.8773-0.60913 7.4577-1.8274 1.5804-1.2183 2.3707-3.0127 2.3707-5.3834 0-2.4694-0.82315-4.231-2.4694-5.2846-1.6463-1.0866-4.2968-1.6298-7.9516-1.6298h-7.5565v14.125zm-8.1492 1.7286v15.903h8.5937c3.3255 0 5.8773-0.67498 7.6553-2.0249 1.778-1.3829 2.667-3.4901 2.667-6.3218 0-2.7987-0.93839-4.7578-2.8152-5.8773-1.8768-1.1195-4.5438-1.6792-8.001-1.6792z" color="#000000" color-rendering="auto" dominant-baseline="auto" image-rendering="auto" solid-color="#000000" stop-color="#000000" style="font-feature-settings:normal;font-variant-alternates:normal;font-variant-caps:normal;font-variant-east-asian:normal;font-variant-ligatures:normal;font-variant-numeric:normal;font-variant-position:normal;font-variation-settings:normal;inline-size:0;isolation:auto;mix-blend-mode:normal;shape-margin:0;shape-padding:0;text-decoration-color:#000000;text-decoration-line:none;text-decoration-style:solid;text-indent:0;text-orientation:mixed;text-transform:none;white-space:normal"/>
          </g>
         </g>
        </g>
       </g>
      </g>
      <text x="860.78418" y="294.53076" font-family="'Noto Sans'" font-size="126.67px" font-weight="800" style="line-height:1.25" xml:space="preserve"><tspan x="860.78418" y="294.53076" font-size="126.67px">HESTIA</tspan></text>
      <text x="1317.718" y="379.18494" font-family="'Noto Sans'" font-size="53.333px" font-weight="300" style="line-height:1.25" xml:space="preserve"><tspan x="1317.718" y="379.18494" font-size="53.333px" text-align="end" text-anchor="end">Peaceful Libraries</tspan></text>
     </g>
    </g>
   </g>
  </g>
 </g>
 <text fill="#ffffff" font-family="'Noto Sans'" font-size="13.333px" font-weight="100" style="line-height:1.25;shape-inside:url(#rect74026);white-space:pre" xml:space="preserve"/>
 <g font-family="FreeSerif">
  <text transform="translate(-1.8905 13.956)" x="110.17236" font-size="31.75px" style="line-height:1.25;shape-inside:url(#rect1477);white-space:pre" xml:space="preserve"/>
  <text font-size="10.583px" style="line-height:1.25;shape-inside:url(#rect1483);white-space:pre" xml:space="preserve"/>
  <text font-size="10.583px" style="line-height:1.25;shape-inside:url(#rect1489);white-space:pre" xml:space="preserve"/>
 </g>
 <text font-family="'Noto Sans'" font-size="13.333px" font-weight="100" style="line-height:1.25;shape-inside:url(#rect15891);white-space:pre" xml:space="preserve"/>
 <text transform="matrix(.52333 0 0 .52333 -1.5097e-6 -4.071e-6)" font-family="FreeSerif" font-size="10.583px" style="line-height:1.25;shape-inside:url(#rect1483-3);white-space:pre" xml:space="preserve"/>
 <text transform="matrix(.52333 0 0 .52333 -1.5097e-6 -4.071e-6)" font-family="FreeSerif" font-size="10.583px" style="line-height:1.25;shape-inside:url(#rect1489-5);white-space:pre" xml:space="preserve"/>
 <g transform="matrix(1 0 0 1.0032 8.2129e-5 -.00055025)" stroke-linecap="round" stroke-linejoin="round">
  <g fill="#fff" stroke-width=".19715">
   <path d="m0.10001 0.10004v141.76c23.202 10.33 41.251 17.036 48.279 17.043 27.658 0.02673 225.82-103.09 239.67-124.72 2.8724-4.4842 5.1511-16.995 6.8496-34.086z" stroke="#b3b3b3"/>
   <path d="m0.10001 170.75v286.69c12.122-7.9601 20.488-14.412 22.951-18.258 13.855-21.629 14.1-228.25 0.29688-249.91-2.4776-3.8871-10.956-10.44-23.248-18.529z" stroke="#008000"/>
   <path d="m48.971 469.09c-7.083-7e-3 -25.383 6.7776-48.871 17.199v141.61h294.97c-1.6536-16.846-3.8858-29.173-6.7207-33.621-13.803-21.656-211.72-125.16-239.38-125.19z" stroke="#40a"/>
  </g>
  <g fill="#00002b" stroke-width=".10318">
   <path d="m0.051803 0.052069v141.79c23.206 10.331 41.258 17.039 48.288 17.046 27.663 0.02674 225.86-103.11 239.71-124.74 2.8729-4.4849 5.152-16.998 6.8508-34.091z" stroke="#b3b3b3"/>
   <path d="m0.051803 170.73v286.74c12.124-7.9613 20.491-14.414 22.955-18.261 13.857-21.632 14.103-228.29 0.29693-249.94-2.478-3.8877-10.958-10.442-23.252-18.532z" stroke="#008000"/>
   <path d="m48.931 469.12c-7.0843-8e-3 -25.387 6.7787-48.88 17.202v141.63h295.02c-1.6539-16.849-3.8865-29.178-6.7219-33.626-13.806-21.659-211.76-125.18-239.42-125.2z" stroke="#40a"/>
  </g>
 </g>
 <g transform="matrix(.39114 0 0 .39114 29.373 80.318)">
  <circle cx="600" cy="600" r="575.41" fill="#fff" stroke="#000080" stroke-linecap="round" stroke-linejoin="round" stroke-width="49.17"/>
  <g transform="matrix(5.2461 0 0 5.2461 -241.18 1270.3)">
   <g transform="translate(-17.373)">
    <g transform="matrix(.86901 0 0 .86901 -231.14 -310.67)"></g>
    <g transform="matrix(.28965 0 0 .28965 205.9 -252.26)">
     <g transform="translate(25.88)">
      <g shape-rendering="auto">
       <path d="m-394.69 699.25c0 38.487 32.396 70.884 70.884 70.884 38.487 0 70.875-32.396 70.875-70.884v-538.9c0-38.487-32.386-70.875-70.875-70.875s-70.884 32.386-70.884 70.875z" color="#000000" color-rendering="auto" dominant-baseline="auto" fill="#002b00" image-rendering="auto" opacity=".99" solid-color="#000000" stop-color="#000000" stroke-width="4.8708" style="font-feature-settings:normal;font-variant-alternates:normal;font-variant-caps:normal;font-variant-east-asian:normal;font-variant-ligatures:normal;font-variant-numeric:normal;font-variant-position:normal;font-variation-settings:normal;inline-size:0;isolation:auto;mix-blend-mode:normal;shape-margin:0;shape-padding:0;text-decoration-color:#000000;text-decoration-line:none;text-decoration-style:solid;text-indent:0;text-orientation:mixed;text-transform:none;white-space:normal"/>
       <g transform="translate(0 13.162)" stroke-width="4.6178">
        <path d="m-379.7 343.75c-36.488 0-67.202 30.713-67.202 67.202 0 36.488 30.713 67.193 67.202 67.193h510.91c36.488 0 67.193-30.704 67.193-67.193 0-36.489-30.704-67.202-67.193-67.202z" color="#000000" color-rendering="auto" dominant-baseline="auto" fill="#000080" image-rendering="auto" opacity=".99" solid-color="#000000" stop-color="#000000" style="font-feature-settings:normal;font-variant-alternates:normal;font-variant-caps:normal;font-variant-east-asian:normal;font-variant-ligatures:normal;font-variant-numeric:normal;font-variant-position:normal;font-variation-settings:normal;inline-size:0;isolation:auto;mix-blend-mode:normal;shape-margin:0;shape-padding:0;text-decoration-color:#000000;text-decoration-line:none;text-decoration-style:solid;text-indent:0;text-orientation:mixed;text-transform:none;white-space:normal"/>
        <path d="m-377.57 355.14c-36.488 0-67.202 30.713-67.202 67.202 0 36.488 30.713 67.193 67.202 67.193h510.91c36.488 0 67.193-30.704 67.193-67.193 0-36.489-30.704-67.202-67.193-67.202z" color="#000000" color-rendering="auto" dominant-baseline="auto" fill="#0f0" image-rendering="auto" opacity=".99" solid-color="#000000" stop-color="#000000" style="font-feature-settings:normal;font-variant-alternates:normal;font-variant-caps:normal;font-variant-east-asian:normal;font-variant-ligatures:normal;font-variant-numeric:normal;font-variant-position:normal;font-variation-settings:normal;inline-size:0;isolation:auto;mix-blend-mode:normal;shape-margin:0;shape-padding:0;text-decoration-color:#000000;text-decoration-line:none;text-decoration-style:solid;text-indent:0;text-orientation:mixed;text-transform:none;white-space:normal"/>
       </g>
       <path d="m6.5583 699.25c0 38.487 32.396 70.884 70.884 70.884 38.487 0 70.875-32.396 70.875-70.884v-538.9c0-38.487-32.386-70.875-70.875-70.875-38.488 0-70.884 32.386-70.884 70.875z" color="#000000" color-rendering="auto" dominant-baseline="auto" fill="#00f" image-rendering="auto" opacity=".99" solid-color="#000000" stop-color="#000000" stroke-width="4.8708" style="font-feature-settings:normal;font-variant-alternates:normal;font-variant-caps:normal;font-variant-east-asian:normal;font-variant-ligatures:normal;font-variant-numeric:normal;font-variant-position:normal;font-variation-settings:normal;inline-size:0;isolation:auto;mix-blend-mode:normal;shape-margin:0;shape-padding:0;text-decoration-color:#000000;text-decoration-line:none;text-decoration-style:solid;text-indent:0;text-orientation:mixed;text-transform:none;white-space:normal"/>
      </g>
     </g>
     <g shape-rendering="auto">
      <path d="m81.145 188.74c-8.0454 0-14.815 6.6491-14.815 14.551 0 7.9017 6.7701 14.553 14.815 14.553h118.54c8.0454 0 14.815-6.6511 14.815-14.553 0-7.9017-6.7701-14.551-14.815-14.551z" color="#000000" color-rendering="auto" dominant-baseline="auto" fill="#00002b" image-rendering="auto" opacity=".99" solid-color="#000000" stop-color="#000000" style="font-feature-settings:normal;font-variant-alternates:normal;font-variant-caps:normal;font-variant-east-asian:normal;font-variant-ligatures:normal;font-variant-numeric:normal;font-variant-position:normal;font-variation-settings:normal;inline-size:0;isolation:auto;mix-blend-mode:normal;shape-margin:0;shape-padding:0;text-decoration-color:#000000;text-decoration-line:none;text-decoration-style:solid;text-indent:0;text-orientation:mixed;text-transform:none;white-space:normal"/>
      <path d="m117.98 240.87c-8.3489 0-15.376 6.6511-15.376 14.553 0 7.9017 7.0275 14.551 15.376 14.551h117.42c8.3489 0 15.376-6.6491 15.376-14.551 0-7.9017-7.0275-14.553-15.376-14.553z" color="#000000" color-rendering="auto" dominant-baseline="auto" fill="#002b00" image-rendering="auto" opacity=".99" solid-color="#000000" stop-color="#000000" style="font-feature-settings:normal;font-variant-alternates:normal;font-variant-caps:normal;font-variant-east-asian:normal;font-variant-ligatures:normal;font-variant-numeric:normal;font-variant-position:normal;font-variation-settings:normal;inline-size:0;isolation:auto;mix-blend-mode:normal;shape-margin:0;shape-padding:0;text-decoration-color:#000000;text-decoration-line:none;text-decoration-style:solid;text-indent:0;text-orientation:mixed;text-transform:none;white-space:normal"/>
      <path d="m210.21 51.287c-6.0852-5.1999-15.343-4.0676-20.327 1.7728l-120.08 140.74c-4.9831 5.8405-4.6485 15.167 1.4366 20.367 6.0852 5.1999 15.344 4.0704 20.327-1.7701l120.08-140.74c4.9831-5.8405 4.6483-15.17-1.4368-20.37z" color="#000000" color-rendering="auto" dominant-baseline="auto" fill="#000080" image-rendering="auto" opacity=".99" solid-color="#000000" stop-color="#000000" style="font-feature-settings:normal;font-variant-alternates:normal;font-variant-caps:normal;font-variant-east-asian:normal;font-variant-ligatures:normal;font-variant-numeric:normal;font-variant-position:normal;font-variation-settings:normal;inline-size:0;isolation:auto;mix-blend-mode:normal;shape-margin:0;shape-padding:0;text-decoration-color:#000000;text-decoration-line:none;text-decoration-style:solid;text-indent:0;text-orientation:mixed;text-transform:none;white-space:normal"/>
      <path d="m90.003 47.53c-7.9017 0-14.553 6.6511-14.553 14.553 0 7.9017 6.6511 14.551 14.553 14.551h110.64c7.9017 0 14.551-6.6491 14.551-14.551s-6.6491-14.553-14.551-14.553z" color="#000000" color-rendering="auto" dominant-baseline="auto" fill="#00f" image-rendering="auto" opacity=".99" solid-color="#000000" stop-color="#000000" style="font-feature-settings:normal;font-variant-alternates:normal;font-variant-caps:normal;font-variant-east-asian:normal;font-variant-ligatures:normal;font-variant-numeric:normal;font-variant-position:normal;font-variation-settings:normal;inline-size:0;isolation:auto;mix-blend-mode:normal;shape-margin:0;shape-padding:0;text-decoration-color:#000000;text-decoration-line:none;text-decoration-style:solid;text-indent:0;text-orientation:mixed;text-transform:none;white-space:normal"/>
      <path d="m246.28 103.71c-6.0852-5.1999-15.343-4.0676-20.327 1.7728l-120.08 140.74c-4.9831 5.8405-4.6486 15.167 1.4366 20.367 6.0852 5.1999 15.344 4.0704 20.327-1.7701l120.08-140.74c4.9831-5.8405 4.6483-15.17-1.4368-20.37z" color="#000000" color-rendering="auto" dominant-baseline="auto" fill="#0f0" image-rendering="auto" opacity=".99" solid-color="#000000" stop-color="#000000" style="font-feature-settings:normal;font-variant-alternates:normal;font-variant-caps:normal;font-variant-east-asian:normal;font-variant-ligatures:normal;font-variant-numeric:normal;font-variant-position:normal;font-variation-settings:normal;inline-size:0;isolation:auto;mix-blend-mode:normal;shape-margin:0;shape-padding:0;text-decoration-color:#000000;text-decoration-line:none;text-decoration-style:solid;text-indent:0;text-orientation:mixed;text-transform:none;white-space:normal"/>
     </g>
    </g>
   </g>
  </g>
  <text font-family="FreeSerif" font-size="10.583px" style="line-height:1.25;shape-inside:url(#rect1483-70);white-space:pre" xml:space="preserve"/>
  <text font-family="FreeSerif" font-size="10.583px" style="line-height:1.25;shape-inside:url(#rect1489-2);white-space:pre" xml:space="preserve"/>
 </g>
</svg>
