<svg width="1500" height="1500" version="1.1" viewBox="0 0 1500 1500" xmlns="http://www.w3.org/2000/svg">
 <rect x=".82672" y=".82672" width="1198.3" height="1198.3" fill="none" opacity=".99"/>
 <g transform="matrix(1.25,0,0,1.25,-2.861e-5,-2.861e-5)">
  <path transform="translate(2.2888e-5,2.2888e-5)" d="m600 0c-159.12 0-311.75 63.221-424.26 175.74-112.52 112.52-175.74 265.14-175.74 424.26s63.221 311.75 175.74 424.26c112.52 112.52 265.14 175.74 424.26 175.74s311.75-63.221 424.26-175.74c112.52-112.52 175.74-265.14 175.74-424.26 0-142.27-50.668-279.26-141.8-387.12l-17.766 20.82h10.842c12.224 0 22.512 10.105 22.512 22.111 0 12.007-10.287 22.113-22.512 22.113h-4.5742c8.2118 11.389 15.988 23.051 23.281 34.99h35.562c12.686 0 23.363 10.107 23.363 22.113 0 12.007-10.677 22.109-23.363 22.109h-11.305c36.801 74.895 56.586 157.83 56.586 242.87 0 146.1-58.027 286.19-161.33 389.5-103.31 103.31-243.4 161.33-389.5 161.33s-286.19-58.027-389.5-161.33c-103.31-103.31-161.33-243.4-161.33-389.5s58.027-286.19 161.33-389.5c103.31-103.31 243.4-161.33 389.5-161.33 118.19 0 232.43 38.006 326.46 107.21l31.982-37.486c-102.96-76.709-228.53-118.89-358.44-118.89zm392.29 146.24-31.902 37.393c9.9596 8.621 19.737 17.491 29.113 26.867 2.4494 2.4494 4.7482 5.0174 7.1465 7.5078l32.076-37.594c-1.5089-1.5418-2.928-3.1546-4.4551-4.6816-10.296-10.296-21.036-20.032-31.979-29.492zm36.617 34.367a600 600 0 0 1 28.756 31.633c-9.1877-10.844-18.756-21.406-28.756-31.633z" color="#000000" style="-inkscape-stroke:none"/>
  <g shape-rendering="auto">
   <path transform="translate(2.2888e-5,2.2888e-5)" d="m1055.4 19.881c-7.0443-0.64497-14.314 2.1077-19.047 7.6543l-66.443 77.875c11.683 9.0247 21.536 20.352 28.814 33.244l70.697-82.861c7.5715-8.8743 7.0636-23.05-2.1817-30.951-3.4674-2.963-7.6132-4.574-11.84-4.9609z" color="#000000" color-rendering="auto" dominant-baseline="auto" image-rendering="auto" opacity=".99" solid-color="#000000" stop-color="#000000" style="font-feature-settings:normal;font-variant-alternates:normal;font-variant-caps:normal;font-variant-east-asian:normal;font-variant-ligatures:normal;font-variant-numeric:normal;font-variant-position:normal;font-variation-settings:normal;inline-size:0;isolation:auto;mix-blend-mode:normal;shape-margin:0;shape-padding:0;text-decoration-color:#000000;text-decoration-line:none;text-decoration-style:solid;text-indent:0;text-orientation:mixed;text-transform:none;white-space:normal"/>
   <path d="m884.62 19.132c-12.007 0-22.113 10.106-22.113 22.113s10.106 22.11 22.113 22.11h168.12c12.007 0 22.11-10.103 22.11-22.11s-10.103-22.113-22.11-22.113z" color="#000000" color-rendering="auto" dominant-baseline="auto" image-rendering="auto" opacity=".99" solid-color="#000000" stop-color="#000000" style="font-feature-settings:normal;font-variant-alternates:normal;font-variant-caps:normal;font-variant-east-asian:normal;font-variant-ligatures:normal;font-variant-numeric:normal;font-variant-position:normal;font-variation-settings:normal;inline-size:0;isolation:auto;mix-blend-mode:normal;shape-margin:0;shape-padding:0;text-decoration-color:#000000;text-decoration-line:none;text-decoration-style:solid;text-indent:0;text-orientation:mixed;text-transform:none;white-space:normal"/>
   <path d="m1106 99.555c-5.6193 0.55178-11.03 3.1995-14.816 7.6367l-62.41 73.148a600 600 0 0 1 29.506 32.436l65.975-77.326c7.5718-8.8746 7.0627-23.05-2.1836-30.951-4.6233-3.9506-10.451-5.4951-16.07-4.9434z" color="#000000" color-rendering="auto" dominant-baseline="auto" image-rendering="auto" opacity=".99" solid-color="#000000" stop-color="#000000" style="font-feature-settings:normal;font-variant-alternates:normal;font-variant-caps:normal;font-variant-east-asian:normal;font-variant-ligatures:normal;font-variant-numeric:normal;font-variant-position:normal;font-variation-settings:normal;inline-size:0;isolation:auto;mix-blend-mode:normal;shape-margin:0;shape-padding:0;text-decoration-color:#000000;text-decoration-line:none;text-decoration-style:solid;text-indent:0;text-orientation:mixed;text-transform:none;white-space:normal"/>
   <path d="m904.86 82.867c-58.483 0-107.71 49.21-107.71 107.69v818.86c0 58.482 49.226 107.71 107.71 107.71 58.482 0 107.7-49.226 107.7-107.71v-652.29h-85.422c-0.67769 0-1.3468-0.0413-2.0117-0.0977-5.0238 0.074-10.089-1.5292-14.201-5.043-9.2465-7.9014-9.7554-22.073-2.1836-30.947l36.795-43.125h-74.369c-3.8476 0-7.5017-1.0054-10.705-2.752-1.524-0.75201-2.9888-1.6779-4.3418-2.834-3.7867-3.2359-6.0834-7.5276-6.9844-12.072-0.0103-0.048-0.0192-0.0963-0.0293-0.14451-0.0921-0.48113-0.17007-0.96345-0.23047-1.4492-0.0579-0.41917-0.10217-0.84019-0.13476-1.2656-9e-3 -0.13676-0.0164-0.27321-0.0234-0.41016-0.0225-0.39504-0.0625-0.78599-0.0625-1.1856 0-0.93083 0.0834-1.8459 0.20313-2.75 0.0164-0.1322 0.0438-0.26257 0.0625-0.39453 0.0737-0.48505 0.14357-0.97006 0.25-1.4453 0.74112-3.5673 2.3291-6.9743 4.7656-9.8301l115.96-135.91c11.687 9.0272 21.575 20.302 28.855 33.199l-81.072 95.02h65.59l29.291-34.332v-8.8047c0-58.482-49.212-107.69-107.7-107.69zm97.852 195.05-29.853 34.99h39.697v-34.99z" color="#000000" color-rendering="auto" dominant-baseline="auto" image-rendering="auto" opacity=".99" solid-color="#000000" stop-color="#000000" style="font-feature-settings:normal;font-variant-alternates:normal;font-variant-caps:normal;font-variant-east-asian:normal;font-variant-ligatures:normal;font-variant-numeric:normal;font-variant-position:normal;font-variation-settings:normal;inline-size:0;isolation:auto;mix-blend-mode:normal;shape-margin:0;shape-padding:0;text-decoration-color:#000000;text-decoration-line:none;text-decoration-style:solid;text-indent:0;text-orientation:mixed;text-transform:none;white-space:normal"/>
   <path d="m187.45 1009.4c0 58.482 49.226 107.71 107.71 107.71 58.482 0 107.69-49.226 107.69-107.71v-818.86c0-58.482-49.211-107.69-107.69-107.69-58.483 0-107.71 49.211-107.71 107.69z" color="#000000" color-rendering="auto" dominant-baseline="auto" image-rendering="auto" opacity=".99" solid-color="#000000" stop-color="#000000" style="font-feature-settings:normal;font-variant-alternates:normal;font-variant-caps:normal;font-variant-east-asian:normal;font-variant-ligatures:normal;font-variant-numeric:normal;font-variant-position:normal;font-variation-settings:normal;inline-size:0;isolation:auto;mix-blend-mode:normal;shape-margin:0;shape-padding:0;text-decoration-color:#000000;text-decoration-line:none;text-decoration-style:solid;text-indent:0;text-orientation:mixed;text-transform:none;white-space:normal"/>
  </g>
  <g transform="matrix(1.5195,0,0,1.5195,787.18,-33.09)" shape-rendering="auto">
   <path d="m-379.7 343.75c-36.488 0-67.202 30.713-67.202 67.202 0 36.488 30.713 67.193 67.202 67.193h510.91c36.488 0 67.193-30.704 67.193-67.193s-30.704-67.202-67.193-67.202z" color="#000000" color-rendering="auto" dominant-baseline="auto" image-rendering="auto" opacity=".99" solid-color="#000000" stop-color="#000000" style="font-feature-settings:normal;font-variant-alternates:normal;font-variant-caps:normal;font-variant-east-asian:normal;font-variant-ligatures:normal;font-variant-numeric:normal;font-variant-position:normal;font-variation-settings:normal;inline-size:0;isolation:auto;mix-blend-mode:normal;shape-margin:0;shape-padding:0;text-decoration-color:#000000;text-decoration-line:none;text-decoration-style:solid;text-indent:0;text-orientation:mixed;text-transform:none;white-space:normal"/>
   <path d="m-377.57 355.14c-36.488 0-67.202 30.713-67.202 67.202 0 36.488 30.713 67.193 67.202 67.193h510.91c36.488 0 67.193-30.704 67.193-67.193s-30.704-67.202-67.193-67.202z" color="#000000" color-rendering="auto" dominant-baseline="auto" image-rendering="auto" opacity=".99" solid-color="#000000" stop-color="#000000" style="font-feature-settings:normal;font-variant-alternates:normal;font-variant-caps:normal;font-variant-east-asian:normal;font-variant-ligatures:normal;font-variant-numeric:normal;font-variant-position:normal;font-variation-settings:normal;inline-size:0;isolation:auto;mix-blend-mode:normal;shape-margin:0;shape-padding:0;text-decoration-color:#000000;text-decoration-line:none;text-decoration-style:solid;text-indent:0;text-orientation:mixed;text-transform:none;white-space:normal"/>
  </g>
 </g>
 <text font-family="FreeSerif" font-size="10.583px" style="line-height:1.25;shape-inside:url(#rect1483);white-space:pre" xml:space="preserve"/>
 <text font-family="FreeSerif" font-size="10.583px" style="line-height:1.25;shape-inside:url(#rect1489);white-space:pre" xml:space="preserve"/>
</svg>
