<?xml version="1.0" encoding="UTF-8" standalone="no"?>
<svg
   width="1200"
   height="1200"
   version="1.1"
   viewBox="0 0 1200 1200"
   id="svg40"
   sodipodi:docname="favicon-vector.svg"
   inkscape:version="1.1.2 (0a00cf5339, 2022-02-04)"
   xmlns:inkscape="http://www.inkscape.org/namespaces/inkscape"
   xmlns:sodipodi="http://sodipodi.sourceforge.net/DTD/sodipodi-0.dtd"
   xmlns="http://www.w3.org/2000/svg"
   xmlns:svg="http://www.w3.org/2000/svg">
  <defs
     id="defs44" />
  <sodipodi:namedview
     id="namedview42"
     pagecolor="#ffffff"
     bordercolor="#666666"
     borderopacity="1.0"
     inkscape:pageshadow="2"
     inkscape:pageopacity="0.0"
     inkscape:pagecheckerboard="0"
     showgrid="false"
     inkscape:zoom="0.28630881"
     inkscape:cx="200.8321"
     inkscape:cy="957.00862"
     inkscape:window-width="1920"
     inkscape:window-height="1005"
     inkscape:window-x="0"
     inkscape:window-y="0"
     inkscape:window-maximized="1"
     inkscape:current-layer="svg40" />
  <rect
     x=".82672"
     y=".82672"
     width="1198.3"
     height="1198.3"
     fill="#fff"
     opacity=".99"
     id="rect2" />
  <g
     transform="matrix(3.6471 0 0 3.6471 -1235.9 -287.59)"
     id="g4" />
  <g
     transform="matrix(0.60000503,0,0,0.60000503,239.99698,239.99698)"
     id="g34">
    <circle
       cx="600"
       cy="600"
       r="575.40997"
       fill="#ffffff"
       stroke="#000080"
       stroke-linecap="round"
       stroke-linejoin="round"
       stroke-width="49.17"
       id="circle6" />
    <g
       transform="matrix(1.5195,0,0,1.5195,787.18,-53.09)"
       id="g20">
      <g
         shape-rendering="auto"
         id="g18">
        <path
           d="m -394.69,699.25 c 0,38.487 32.396,70.884 70.884,70.884 38.487,0 70.875,-32.396 70.875,-70.884 v -538.9 c 0,-38.487 -32.386,-70.875 -70.875,-70.875 -38.489,0 -70.884,32.386 -70.884,70.875 z"
           color="#000000"
           color-rendering="auto"
           dominant-baseline="auto"
           fill="#002b00"
           image-rendering="auto"
           opacity="0.99"
           solid-color="#000000"
           stop-color="#000000"
           stroke-width="4.8708"
           style="font-variant-ligatures:normal;font-variant-position:normal;font-variant-caps:normal;font-variant-numeric:normal;font-variant-alternates:normal;font-variant-east-asian:normal;font-feature-settings:normal;font-variation-settings:normal;text-indent:0;text-decoration-line:none;text-decoration-style:solid;text-decoration-color:#000000;text-transform:none;text-orientation:mixed;white-space:normal;shape-padding:0;shape-margin:0;inline-size:0;isolation:auto;mix-blend-mode:normal"
           id="path8" />
        <g
           transform="translate(0,13.162)"
           stroke-width="4.6178"
           id="g14">
          <path
             d="m -379.7,343.75 c -36.488,0 -67.202,30.713 -67.202,67.202 0,36.488 30.713,67.193 67.202,67.193 h 510.91 c 36.488,0 67.193,-30.704 67.193,-67.193 0,-36.489 -30.704,-67.202 -67.193,-67.202 z"
             color="#000000"
             color-rendering="auto"
             dominant-baseline="auto"
             fill="#000080"
             image-rendering="auto"
             opacity="0.99"
             solid-color="#000000"
             stop-color="#000000"
             style="font-variant-ligatures:normal;font-variant-position:normal;font-variant-caps:normal;font-variant-numeric:normal;font-variant-alternates:normal;font-variant-east-asian:normal;font-feature-settings:normal;font-variation-settings:normal;text-indent:0;text-decoration-line:none;text-decoration-style:solid;text-decoration-color:#000000;text-transform:none;text-orientation:mixed;white-space:normal;shape-padding:0;shape-margin:0;inline-size:0;isolation:auto;mix-blend-mode:normal"
             id="path10" />
          <path
             d="m -377.57,355.14 c -36.488,0 -67.202,30.713 -67.202,67.202 0,36.488 30.713,67.193 67.202,67.193 h 510.91 c 36.488,0 67.193,-30.704 67.193,-67.193 0,-36.489 -30.704,-67.202 -67.193,-67.202 z"
             color="#000000"
             color-rendering="auto"
             dominant-baseline="auto"
             fill="#00ff00"
             image-rendering="auto"
             opacity="0.99"
             solid-color="#000000"
             stop-color="#000000"
             style="font-variant-ligatures:normal;font-variant-position:normal;font-variant-caps:normal;font-variant-numeric:normal;font-variant-alternates:normal;font-variant-east-asian:normal;font-feature-settings:normal;font-variation-settings:normal;text-indent:0;text-decoration-line:none;text-decoration-style:solid;text-decoration-color:#000000;text-transform:none;text-orientation:mixed;white-space:normal;shape-padding:0;shape-margin:0;inline-size:0;isolation:auto;mix-blend-mode:normal"
             id="path12" />
        </g>
        <path
           d="m 6.5583,699.25 c 0,38.487 32.396,70.884 70.884,70.884 38.487,0 70.875,-32.396 70.875,-70.884 v -538.9 c 0,-38.487 -32.386,-70.875 -70.875,-70.875 -38.488,0 -70.884,32.386 -70.884,70.875 z"
           color="#000000"
           color-rendering="auto"
           dominant-baseline="auto"
           fill="#0000ff"
           image-rendering="auto"
           opacity="0.99"
           solid-color="#000000"
           stop-color="#000000"
           stroke-width="4.8708"
           style="font-variant-ligatures:normal;font-variant-position:normal;font-variant-caps:normal;font-variant-numeric:normal;font-variant-alternates:normal;font-variant-east-asian:normal;font-feature-settings:normal;font-variation-settings:normal;text-indent:0;text-decoration-line:none;text-decoration-style:solid;text-decoration-color:#000000;text-transform:none;text-orientation:mixed;white-space:normal;shape-padding:0;shape-margin:0;inline-size:0;isolation:auto;mix-blend-mode:normal"
           id="path16" />
      </g>
    </g>
    <g
       transform="matrix(1.5195,0,0,1.5195,747.86,-53.09)"
       shape-rendering="auto"
       id="g32">
      <path
         d="m 81.145,188.74 c -8.0454,0 -14.815,6.6491 -14.815,14.551 0,7.9017 6.7701,14.553 14.815,14.553 h 118.54 c 8.0454,0 14.815,-6.6511 14.815,-14.553 0,-7.9017 -6.7701,-14.551 -14.815,-14.551 z"
         color="#000000"
         color-rendering="auto"
         dominant-baseline="auto"
         fill="#00002b"
         image-rendering="auto"
         opacity="0.99"
         solid-color="#000000"
         stop-color="#000000"
         style="font-variant-ligatures:normal;font-variant-position:normal;font-variant-caps:normal;font-variant-numeric:normal;font-variant-alternates:normal;font-variant-east-asian:normal;font-feature-settings:normal;font-variation-settings:normal;text-indent:0;text-decoration-line:none;text-decoration-style:solid;text-decoration-color:#000000;text-transform:none;text-orientation:mixed;white-space:normal;shape-padding:0;shape-margin:0;inline-size:0;isolation:auto;mix-blend-mode:normal"
         id="path22" />
      <path
         d="m 117.98,240.87 c -8.3489,0 -15.376,6.6511 -15.376,14.553 0,7.9017 7.0275,14.551 15.376,14.551 H 235.4 c 8.3489,0 15.376,-6.6491 15.376,-14.551 0,-7.9017 -7.0275,-14.553 -15.376,-14.553 z"
         color="#000000"
         color-rendering="auto"
         dominant-baseline="auto"
         fill="#002b00"
         image-rendering="auto"
         opacity="0.99"
         solid-color="#000000"
         stop-color="#000000"
         style="font-variant-ligatures:normal;font-variant-position:normal;font-variant-caps:normal;font-variant-numeric:normal;font-variant-alternates:normal;font-variant-east-asian:normal;font-feature-settings:normal;font-variation-settings:normal;text-indent:0;text-decoration-line:none;text-decoration-style:solid;text-decoration-color:#000000;text-transform:none;text-orientation:mixed;white-space:normal;shape-padding:0;shape-margin:0;inline-size:0;isolation:auto;mix-blend-mode:normal"
         id="path24" />
      <path
         d="m 210.21,51.287 c -6.0852,-5.1999 -15.343,-4.0676 -20.327,1.7728 l -120.08,140.74 c -4.9831,5.8405 -4.6485,15.167 1.4366,20.367 6.0852,5.1999 15.344,4.0704 20.327,-1.7701 l 120.08,-140.74 c 4.9831,-5.8405 4.6483,-15.17 -1.4368,-20.37 z"
         color="#000000"
         color-rendering="auto"
         dominant-baseline="auto"
         fill="#000080"
         image-rendering="auto"
         opacity="0.99"
         solid-color="#000000"
         stop-color="#000000"
         style="font-variant-ligatures:normal;font-variant-position:normal;font-variant-caps:normal;font-variant-numeric:normal;font-variant-alternates:normal;font-variant-east-asian:normal;font-feature-settings:normal;font-variation-settings:normal;text-indent:0;text-decoration-line:none;text-decoration-style:solid;text-decoration-color:#000000;text-transform:none;text-orientation:mixed;white-space:normal;shape-padding:0;shape-margin:0;inline-size:0;isolation:auto;mix-blend-mode:normal"
         id="path26" />
      <path
         d="m 90.003,47.53 c -7.9017,0 -14.553,6.6511 -14.553,14.553 0,7.9017 6.6511,14.551 14.553,14.551 h 110.64 c 7.9017,0 14.551,-6.6491 14.551,-14.551 0,-7.9019 -6.6491,-14.553 -14.551,-14.553 z"
         color="#000000"
         color-rendering="auto"
         dominant-baseline="auto"
         fill="#0000ff"
         image-rendering="auto"
         opacity="0.99"
         solid-color="#000000"
         stop-color="#000000"
         style="font-variant-ligatures:normal;font-variant-position:normal;font-variant-caps:normal;font-variant-numeric:normal;font-variant-alternates:normal;font-variant-east-asian:normal;font-feature-settings:normal;font-variation-settings:normal;text-indent:0;text-decoration-line:none;text-decoration-style:solid;text-decoration-color:#000000;text-transform:none;text-orientation:mixed;white-space:normal;shape-padding:0;shape-margin:0;inline-size:0;isolation:auto;mix-blend-mode:normal"
         id="path28" />
      <path
         d="m 246.28,103.71 c -6.0852,-5.1999 -15.343,-4.0676 -20.327,1.7728 l -120.08,140.74 c -4.9831,5.8405 -4.6486,15.167 1.4366,20.367 6.0852,5.1999 15.344,4.0704 20.327,-1.7701 l 120.08,-140.74 c 4.9831,-5.8405 4.6483,-15.17 -1.4368,-20.37 z"
         color="#000000"
         color-rendering="auto"
         dominant-baseline="auto"
         fill="#00ff00"
         image-rendering="auto"
         opacity="0.99"
         solid-color="#000000"
         stop-color="#000000"
         style="font-variant-ligatures:normal;font-variant-position:normal;font-variant-caps:normal;font-variant-numeric:normal;font-variant-alternates:normal;font-variant-east-asian:normal;font-feature-settings:normal;font-variation-settings:normal;text-indent:0;text-decoration-line:none;text-decoration-style:solid;text-decoration-color:#000000;text-transform:none;text-orientation:mixed;white-space:normal;shape-padding:0;shape-margin:0;inline-size:0;isolation:auto;mix-blend-mode:normal"
         id="path30" />
    </g>
  </g>
  <text
     font-family="FreeSerif"
     font-size="10.583px"
     style="line-height:1.25;shape-inside:url(#rect1483);white-space:pre"
     xml:space="preserve"
     id="text36" />
  <text
     font-family="FreeSerif"
     font-size="10.583px"
     style="line-height:1.25;shape-inside:url(#rect1489);white-space:pre"
     xml:space="preserve"
     id="text38" />
</svg>
