<?xml version="1.0" encoding="UTF-8" standalone="no"?>
<svg
   width="1500"
   height="1500"
   version="1.1"
   viewBox="0 0 1500 1500"
   id="svg40"
   sodipodi:docname="favicon-monochrome.svg"
   inkscape:version="1.1.2 (0a00cf5339, 2022-02-04)"
   xmlns:inkscape="http://www.inkscape.org/namespaces/inkscape"
   xmlns:sodipodi="http://sodipodi.sourceforge.net/DTD/sodipodi-0.dtd"
   xmlns="http://www.w3.org/2000/svg"
   xmlns:svg="http://www.w3.org/2000/svg">
  <defs
     id="defs44" />
  <sodipodi:namedview
     id="namedview42"
     pagecolor="#ffffff"
     bordercolor="#666666"
     borderopacity="1.0"
     inkscape:pageshadow="2"
     inkscape:pageopacity="0.0"
     inkscape:pagecheckerboard="0"
     showgrid="false"
     inkscape:zoom="0.55533333"
     inkscape:cx="750"
     inkscape:cy="646.45858"
     inkscape:window-width="1920"
     inkscape:window-height="1005"
     inkscape:window-x="0"
     inkscape:window-y="0"
     inkscape:window-maximized="1"
     inkscape:current-layer="svg40" />
  <g
     transform="matrix(4.5589 0 0 4.5589 -1544.9 -359.49)"
     id="g2" />
  <g
     transform="matrix(0.75000628,0,0,0.75000628,187.49529,187.49529)"
     id="g34">
    <g
       transform="matrix(1.5195,0,0,1.5195,787.18,-53.09)"
       id="g4" />
    <g
       transform="translate(150,150)"
       id="g32">
      <rect
         transform="translate(2.2888e-5,2.2888e-5)"
         x="0.82672"
         y="0.82672"
         width="1198.3"
         height="1198.3"
         style="opacity:0.99;fill:none"
         id="rect6" />
      <circle
         cx="600"
         cy="600"
         r="575.40997"
         style="fill:none;stroke:#000000;stroke-width:49.17;stroke-linecap:round;stroke-linejoin:round"
         id="circle8" />
      <path
         transform="matrix(1.5195,0,0,1.5195,787.18,-53.09)"
         d="m -394.69,699.25 c 0,38.487 32.396,70.884 70.884,70.884 38.487,0 70.875,-32.396 70.875,-70.884 v -538.9 c 0,-38.487 -32.386,-70.875 -70.875,-70.875 -38.489,0 -70.884,32.386 -70.884,70.875 z"
         style="color:#000000;font-variant-ligatures:normal;font-variant-position:normal;font-variant-caps:normal;font-variant-numeric:normal;font-variant-alternates:normal;font-variant-east-asian:normal;font-feature-settings:normal;font-variation-settings:normal;text-indent:0;text-decoration-line:none;text-decoration-style:solid;text-decoration-color:#000000;text-transform:none;text-orientation:mixed;dominant-baseline:auto;white-space:normal;shape-padding:0;shape-margin:0;inline-size:0;opacity:0.99;isolation:auto;mix-blend-mode:normal;solid-color:#000000;fill:#666666;stroke-width:4.8708;color-rendering:auto;image-rendering:auto;shape-rendering:auto;stop-color:#000000"
         id="path10" />
      <g
         transform="matrix(1.5195,0,0,1.5195,787.18,-33.09)"
         id="g16">
        <path
           d="m -379.7,343.75 c -36.488,0 -67.202,30.713 -67.202,67.202 0,36.488 30.713,67.193 67.202,67.193 h 510.91 c 36.488,0 67.193,-30.704 67.193,-67.193 0,-36.489 -30.704,-67.202 -67.193,-67.202 z"
           style="color:#000000;font-variant-ligatures:normal;font-variant-position:normal;font-variant-caps:normal;font-variant-numeric:normal;font-variant-alternates:normal;font-variant-east-asian:normal;font-feature-settings:normal;font-variation-settings:normal;text-indent:0;text-decoration-line:none;text-decoration-style:solid;text-decoration-color:#000000;text-transform:none;text-orientation:mixed;dominant-baseline:auto;white-space:normal;shape-padding:0;shape-margin:0;inline-size:0;opacity:0.99;isolation:auto;mix-blend-mode:normal;solid-color:#000000;stroke-width:4.6178;color-rendering:auto;image-rendering:auto;shape-rendering:auto;stop-color:#000000"
           id="path12" />
        <path
           d="m -377.57,355.14 c -36.488,0 -67.202,30.713 -67.202,67.202 0,36.488 30.713,67.193 67.202,67.193 h 510.91 c 36.488,0 67.193,-30.704 67.193,-67.193 0,-36.489 -30.704,-67.202 -67.193,-67.202 z"
           style="color:#000000;font-variant-ligatures:normal;font-variant-position:normal;font-variant-caps:normal;font-variant-numeric:normal;font-variant-alternates:normal;font-variant-east-asian:normal;font-feature-settings:normal;font-variation-settings:normal;text-indent:0;text-decoration-line:none;text-decoration-style:solid;text-decoration-color:#000000;text-transform:none;text-orientation:mixed;dominant-baseline:auto;white-space:normal;shape-padding:0;shape-margin:0;inline-size:0;opacity:0.99;isolation:auto;mix-blend-mode:normal;solid-color:#000000;fill:#4d4d4d;stroke-width:4.6178;color-rendering:auto;image-rendering:auto;shape-rendering:auto;stop-color:#000000"
           id="path14" />
      </g>
      <path
         transform="matrix(1.5195,0,0,1.5195,787.18,-53.09)"
         d="m 6.5583,699.25 c 0,38.487 32.396,70.884 70.884,70.884 38.487,0 70.875,-32.396 70.875,-70.884 v -538.9 c 0,-38.487 -32.386,-70.875 -70.875,-70.875 -38.488,0 -70.884,32.386 -70.884,70.875 z"
         style="color:#000000;font-variant-ligatures:normal;font-variant-position:normal;font-variant-caps:normal;font-variant-numeric:normal;font-variant-alternates:normal;font-variant-east-asian:normal;font-feature-settings:normal;font-variation-settings:normal;text-indent:0;text-decoration-line:none;text-decoration-style:solid;text-decoration-color:#000000;text-transform:none;text-orientation:mixed;dominant-baseline:auto;white-space:normal;shape-padding:0;shape-margin:0;inline-size:0;opacity:0.99;isolation:auto;mix-blend-mode:normal;solid-color:#000000;fill:#333333;stroke-width:4.8708;color-rendering:auto;image-rendering:auto;shape-rendering:auto;stop-color:#000000"
         id="path18" />
      <g
         transform="matrix(1.5195,0,0,1.5195,747.86,-53.09)"
         id="g30">
        <path
           d="m 81.145,188.74 c -8.0454,0 -14.815,6.6491 -14.815,14.551 0,7.9017 6.7701,14.553 14.815,14.553 h 118.54 c 8.0454,0 14.815,-6.6511 14.815,-14.553 0,-7.9017 -6.7701,-14.551 -14.815,-14.551 z"
           style="color:#000000;font-variant-ligatures:normal;font-variant-position:normal;font-variant-caps:normal;font-variant-numeric:normal;font-variant-alternates:normal;font-variant-east-asian:normal;font-feature-settings:normal;font-variation-settings:normal;text-indent:0;text-decoration-line:none;text-decoration-style:solid;text-decoration-color:#000000;text-transform:none;text-orientation:mixed;dominant-baseline:auto;white-space:normal;shape-padding:0;shape-margin:0;inline-size:0;opacity:0.99;isolation:auto;mix-blend-mode:normal;solid-color:#000000;fill:#cccccc;color-rendering:auto;image-rendering:auto;shape-rendering:auto;stop-color:#000000"
           id="path20" />
        <path
           d="m 117.98,240.87 c -8.3489,0 -15.376,6.6511 -15.376,14.553 0,7.9017 7.0275,14.551 15.376,14.551 H 235.4 c 8.3489,0 15.376,-6.6491 15.376,-14.551 0,-7.9017 -7.0275,-14.553 -15.376,-14.553 z"
           style="color:#000000;font-variant-ligatures:normal;font-variant-position:normal;font-variant-caps:normal;font-variant-numeric:normal;font-variant-alternates:normal;font-variant-east-asian:normal;font-feature-settings:normal;font-variation-settings:normal;text-indent:0;text-decoration-line:none;text-decoration-style:solid;text-decoration-color:#000000;text-transform:none;text-orientation:mixed;dominant-baseline:auto;white-space:normal;shape-padding:0;shape-margin:0;inline-size:0;opacity:0.99;isolation:auto;mix-blend-mode:normal;solid-color:#000000;fill:#ffffff;color-rendering:auto;image-rendering:auto;shape-rendering:auto;stop-color:#000000"
           id="path22" />
        <path
           d="m 210.21,51.287 c -6.0852,-5.1999 -15.343,-4.0676 -20.327,1.7728 l -120.08,140.74 c -4.9831,5.8405 -4.6485,15.167 1.4366,20.367 6.0852,5.1999 15.344,4.0704 20.327,-1.7701 l 120.08,-140.74 c 4.9831,-5.8405 4.6483,-15.17 -1.4368,-20.37 z"
           style="color:#000000;font-variant-ligatures:normal;font-variant-position:normal;font-variant-caps:normal;font-variant-numeric:normal;font-variant-alternates:normal;font-variant-east-asian:normal;font-feature-settings:normal;font-variation-settings:normal;text-indent:0;text-decoration-line:none;text-decoration-style:solid;text-decoration-color:#000000;text-transform:none;text-orientation:mixed;dominant-baseline:auto;white-space:normal;shape-padding:0;shape-margin:0;inline-size:0;opacity:0.99;isolation:auto;mix-blend-mode:normal;solid-color:#000000;fill:#808080;color-rendering:auto;image-rendering:auto;shape-rendering:auto;stop-color:#000000"
           id="path24" />
        <path
           d="m 90.003,47.53 c -7.9017,0 -14.553,6.6511 -14.553,14.553 0,7.9017 6.6511,14.551 14.553,14.551 h 110.64 c 7.9017,0 14.551,-6.6491 14.551,-14.551 0,-7.9019 -6.6491,-14.553 -14.551,-14.553 z"
           style="color:#000000;font-variant-ligatures:normal;font-variant-position:normal;font-variant-caps:normal;font-variant-numeric:normal;font-variant-alternates:normal;font-variant-east-asian:normal;font-feature-settings:normal;font-variation-settings:normal;text-indent:0;text-decoration-line:none;text-decoration-style:solid;text-decoration-color:#000000;text-transform:none;text-orientation:mixed;dominant-baseline:auto;white-space:normal;shape-padding:0;shape-margin:0;inline-size:0;opacity:0.99;isolation:auto;mix-blend-mode:normal;solid-color:#000000;fill:#4d4d4d;color-rendering:auto;image-rendering:auto;shape-rendering:auto;stop-color:#000000"
           id="path26" />
        <path
           d="m 246.28,103.71 c -6.0852,-5.1999 -15.343,-4.0676 -20.327,1.7728 l -120.08,140.74 c -4.9831,5.8405 -4.6486,15.167 1.4366,20.367 6.0852,5.1999 15.344,4.0704 20.327,-1.7701 l 120.08,-140.74 c 4.9831,-5.8405 4.6483,-15.17 -1.4368,-20.37 z"
           style="color:#000000;font-variant-ligatures:normal;font-variant-position:normal;font-variant-caps:normal;font-variant-numeric:normal;font-variant-alternates:normal;font-variant-east-asian:normal;font-feature-settings:normal;font-variation-settings:normal;text-indent:0;text-decoration-line:none;text-decoration-style:solid;text-decoration-color:#000000;text-transform:none;text-orientation:mixed;dominant-baseline:auto;white-space:normal;shape-padding:0;shape-margin:0;inline-size:0;opacity:0.99;isolation:auto;mix-blend-mode:normal;solid-color:#000000;fill:#4d4d4d;color-rendering:auto;image-rendering:auto;shape-rendering:auto;stop-color:#000000"
           id="path28" />
      </g>
    </g>
  </g>
  <text
     style="font-family:FreeSerif;font-size:10.583px;line-height:1.25;shape-inside:url(#rect1483);white-space:pre"
     xml:space="preserve"
     id="text36" />
  <text
     style="font-family:FreeSerif;font-size:10.583px;line-height:1.25;shape-inside:url(#rect1489);white-space:pre"
     xml:space="preserve"
     id="text38" />
</svg>
