<svg width="600" height="600" version="1.1" viewBox="0 0 600 600" xmlns="http://www.w3.org/2000/svg">
 <rect width="600" height="600" rx="5" ry="5" fill="#04a" stroke-width=".85045"/>
 <g transform="matrix(.5 0 0 .5 -154.11 107)" fill="none" stroke="#fff">
  <path d="m908.21-214.01a600 600 0 0 0-600 600 600 600 0 0 0 37.148 207.84c8.0213-5.0246 16.467-10.472 25.361-16.365 37.383-24.767 82.138-56.886 131.39-93.754 98.51-73.736 215.01-166.45 326.57-257.3 186.98-152.28 358.38-297.9 409.53-341.52a600 600 0 0 0-330-98.898zm364.08 123.09c-41.701 36.373-219.54 191.98-405.27 361.76-106.19 97.066-214.95 198.76-302.3 285.42-43.675 43.333-81.995 82.911-111.96 116.27-16.648 18.532-30.708 35.139-41.682 49.404a600 600 0 0 0 47.787 61.658c16.786-11.683 37.833-28.873 62.209-50.48 33.557-29.745 73.388-67.805 117.01-111.19 87.245-86.773 189.66-194.85 287.42-300.39 168.56-181.96 322.67-355.64 362.16-400.3a600 600 0 0 0-15.381-12.148zm45.914 38.846c-38.996 45.078-190.62 220.94-348.53 412.23-91.588 110.95-185.08 226.83-259.46 324.85-37.194 49.009-69.611 93.551-94.625 130.77-18.177 27.045-32.419 50.202-41.764 68.396a600 600 0 0 0 68.121 39.502c12.654-12.759 27.207-28.864 43.316-47.781 29.073-34.141 63.196-77.391 100.33-126.45 74.268-98.109 160.58-219.44 242.64-337.6 143.52-206.65 274.04-403.57 304.57-449.79a600 600 0 0 0-14.6-14.135zm43.088 44.727c-36.471 56.567-157.94 245.76-283.93 451.28-75.192 122.65-151.57 250.46-211.54 357.91-29.983 53.724-55.862 102.36-75.432 142.7-4.614 9.5126-8.845 18.523-12.729 27.072a600 600 0 0 0 130.55 14.377 600 600 0 0 0 600-600 600 600 0 0 0-146.92-393.34z" opacity=".99" stroke-linecap="round" stroke-linejoin="round" stroke-miterlimit="1" stroke-width="10"/>
  <g transform="matrix(.65112 0 0 .65129 606.07 -36.977)" stroke-width="15.356">
   <path d="m464.04-127.54-101.54 463.93-177.92 814.97 180.63 176.69 28.3 0.2343 14.044-29.829s47.284 125.56 58.176 127.92 54.799-127.92 54.799-127.92l14.044 29.829 29.882 0.036 179.05-176.96z"/>
   <g transform="translate(-53.042 103.21)">
    <path d="m517.08-230.75s-54.199 221.13-95.925 455.71c0 0-79.092 109.19-162.6 312.7l-296.3 438.78s-15.172 28.702 63.632 36.199c66.157 6.294 211.73 35.51 211.73 35.51"/>
    <path d="m237.62 1048.1-96.951 114.11 20.646 73.875 168.06 30.329 36.539-71.214 14.146 29.829h66.495l14.044-29.829s46.339 123.55 58.176 127.92"/>
    <path d="m517.08-230.75s54.199 221.13 95.925 455.71c0 0 79.092 109.19 162.6 312.7l296.3 438.78s15.172 28.702-63.632 36.199c-66.157 6.294-211.73 35.51-211.73 35.51"/>
    <path d="m796.54 1048.1 96.951 114.11-20.646 73.875-168.06 30.329-36.539-71.214-14.146 29.829h-66.495l-14.044-29.829s-42.962 123.55-54.799 127.92"/>
   </g>
   <ellipse cx="464.04" cy="309.3" rx="32.184" ry="145.52" opacity=".99" stroke-linecap="round" stroke-linejoin="round" stroke-miterlimit="1"/>
  </g>
 </g>
 <g transform="translate(-1448.7 -559.59)" fill="none" stroke="#fff" stroke-miterlimit="1" stroke-width=".9901">
  <rect x="1451.7" y="562.56" width="99.01" height="99.01"/>
  <rect x="1550.7" y="562.56" width="99.01" height="99.01"/>
  <rect x="1649.7" y="562.56" width="99.01" height="99.01"/>
  <rect x="1748.7" y="562.56" width="99.01" height="99.01"/>
  <rect x="1847.7" y="562.56" width="99.01" height="99.01"/>
  <rect x="1946.7" y="562.56" width="99.01" height="99.01"/>
  <g transform="translate(0 99.01)">
   <rect x="1451.7" y="562.56" width="99.01" height="99.01"/>
   <rect x="1550.7" y="562.56" width="99.01" height="99.01"/>
   <rect x="1649.7" y="562.56" width="99.01" height="99.01"/>
   <rect x="1748.7" y="562.56" width="99.01" height="99.01"/>
   <rect x="1847.7" y="562.56" width="99.01" height="99.01"/>
   <rect x="1946.7" y="562.56" width="99.01" height="99.01"/>
  </g>
  <g transform="translate(0 198.02)">
   <rect x="1451.7" y="562.56" width="99.01" height="99.01"/>
   <rect x="1550.7" y="562.56" width="99.01" height="99.01"/>
   <rect x="1649.7" y="562.56" width="99.01" height="99.01"/>
   <rect x="1748.7" y="562.56" width="99.01" height="99.01"/>
   <rect x="1847.7" y="562.56" width="99.01" height="99.01"/>
   <rect x="1946.7" y="562.56" width="99.01" height="99.01"/>
  </g>
  <g transform="translate(0 297.03)">
   <rect x="1451.7" y="562.56" width="99.01" height="99.01"/>
   <rect x="1550.7" y="562.56" width="99.01" height="99.01"/>
   <rect x="1649.7" y="562.56" width="99.01" height="99.01"/>
   <rect x="1748.7" y="562.56" width="99.01" height="99.01"/>
   <rect x="1847.7" y="562.56" width="99.01" height="99.01"/>
   <rect x="1946.7" y="562.56" width="99.01" height="99.01"/>
  </g>
  <g transform="translate(0 396.04)">
   <rect x="1451.7" y="562.56" width="99.01" height="99.01"/>
   <rect x="1550.7" y="562.56" width="99.01" height="99.01"/>
   <rect x="1649.7" y="562.56" width="99.01" height="99.01"/>
   <rect x="1748.7" y="562.56" width="99.01" height="99.01"/>
   <rect x="1847.7" y="562.56" width="99.01" height="99.01"/>
   <rect x="1946.7" y="562.56" width="99.01" height="99.01"/>
  </g>
  <g transform="translate(0 495.05)">
   <rect x="1451.7" y="562.56" width="99.01" height="99.01"/>
   <rect x="1550.7" y="562.56" width="99.01" height="99.01"/>
   <rect x="1649.7" y="562.56" width="99.01" height="99.01"/>
   <rect x="1748.7" y="562.56" width="99.01" height="99.01"/>
   <rect x="1847.7" y="562.56" width="99.01" height="99.01"/>
   <rect x="1946.7" y="562.56" width="99.01" height="99.01"/>
  </g>
 </g>
</svg>
