<svg width="1200" height="1200" version="1.1" viewBox="0 0 1200 1200" xmlns="http://www.w3.org/2000/svg">
 <g transform="matrix(4.2553 0 0 4.2553 61.315 -8.515e-6)" clip-rule="evenodd" fill-rule="evenodd" stroke-linecap="round" stroke-linejoin="round" stroke-miterlimit="1.5">
  <g transform="matrix(1.0933 0 0 1.0933 -135.18 -11.698)">
   <path class="gopher-cape animated" d="m167.38 132.78c-1.976 30.692-9.989 39.406-17.234 58.774-9.781 19.021-17.04 22.805-22.516 31.46 3.882 3.802 17.164 15.802 31.38 20.899 40.911 7.949 91.255 7.588 125.1 0 28.192-5.458 46.461-1.925 66.753 14.235 1.167-39.623 0.746-86.87-17.106-125.37" fill="#c9177e" stroke="#c9177e" stroke-width="4px"/>
  </g>
  <g transform="matrix(1.0933 0 0 1.0933 20.065 -11.698)">
   <path d="m207.3 44.6c-6.7-13.7-22.9-1.6-27-5.9-21-21.6-46.4-27-66.3-28h-11c-20 0.5-45.4 6.3-66.3 28-4.1 4.3-20.4-7.8-27 5.9-7.7 16 15.7 17.6 14.5 24.7-2.3 12.8-0.8 31.8 1 50.5 2.8 31.7-20.9 107.6 28.4 138.1 9.3 5.8 34.4 9 56.2 9.5h0.2c21.8-0.5 43.9-3.7 53.2-9.5 49.4-30.5 25.7-106.4 28.6-138.1 1.7-18.7 3.2-37.7 1-50.5-1.2-7.1 22.2-8.8 14.5-24.7z" fill="#8cc5e7" fill-rule="nonzero"/>
   <path d="m143.2 54.3c-33.4 3.9-28.9 38.7-16 50 24 21 49 0 46.2-21.2-2.5-20.4-19.8-30-30.2-28.8z" fill="#e0dedc" fill-rule="nonzero"/>
   <path class="eyes" d="m145.5 72.9c6.292 0 11.4 5.108 11.4 11.4s-5.108 11.4-11.4 11.4-11.4-5.108-11.4-11.4 5.108-11.4 11.4-11.4zm-74.144-0.154c6.292 0 11.4 5.108 11.4 11.4s-5.108 11.4-11.4 11.4-11.4-5.108-11.4-11.4 5.108-11.4 11.4-11.4z" fill="#111212"/>
   <path d="m142.5 75.8c1.987 0 3.6 1.613 3.6 3.6s-1.613 3.6-3.6 3.6-3.6-1.613-3.6-3.6 1.613-3.6 3.6-3.6zm-68.226-0.608c1.987 0 3.6 1.613 3.6 3.6s-1.613 3.6-3.6 3.6-3.6-1.613-3.6-3.6 1.613-3.6 3.6-3.6z" fill="#fff"/>
   <g fill-rule="nonzero">
    <path d="m108.5 107c-16 2.4-21.7 7-20.5 14.2 2 11.8 39.7 10.5 40.9 0.6 1-8.5-14.1-15.7-20.4-14.8z" fill="#b8937f"/>
    <path d="m98.2 111.8c-2.7 9.8 21.7 8.3 21.1 2-0.3-3.7-3.6-8.4-12.3-8.2-3.4 0.1-7.6 1.6-8.8 6.2z"/>
    <path d="m99 127.7c-0.9 0.4-2.4 10.2 2.2 10.7 3.1 0.3 11.6 1.3 13.6 0 3.9-2.5 3.5-8.5 1.3-10-3.7-2.4-16.1-1.2-17.1-0.7zm-25.4-73.4c33.4 3.9 28.9 38.7 16 50-24 21-49 0-46.2-21.2 2.6-20.4 19.9-30 30.2-28.8z" fill="#e0dedc"/>
   </g>
   <circle class="eyes" cx="71.4" cy="84.3" r="11.4" fill="#111212"/>
   <circle cx="74.4" cy="79.4" r="3.6" fill="#fff"/>
   <path d="m193.6 186.7c11 0.1 5.6-23.5-1.2-18.8-3.3 2.3-3.9 7.6-3.9 12.1 0 2.5 2 6.6 5.1 6.7zm-170.3 0c-11 0.1-5.6-23.5 1.2-18.8 3.3 2.3 3.9 7.6 3.9 12.1 0 2.5-2 6.6-5.1 6.7zm149.4 72.5c-6-8.9-11.4-2-20.1 2.4-4.1 2.1 6.8 9.6 19 4 3.2-1.5 3.1-3.5 1.1-6.4zm-128.5 1c6-8.9 11.4-2 20.1 2.4 4.1 2.1-6.8 9.6-19 4-3.2-1.5-3.1-3.5-1.1-6.4z" fill="#b8937f" fill-rule="nonzero"/>
   <path d="m188.6 47c-0.6 2.1 2.1 1.8 3.1 8.3 0.4 2.4 9-3.5 5.5-7.8-2.9-3.6-8.1-2.6-8.6-0.5zm-160.3 0c0.6 2.1-2.1 1.8-3.1 8.3-0.4 2.4-9-3.5-5.5-7.8 2.8-3.6 8-2.6 8.6-0.5z" fill="#0083c0" fill-rule="nonzero"/>
  </g>
  <g transform="matrix(.21982 0 0 .21982 92.037 155.98)">
   <g transform="matrix(2.0871 0 0 2.0871 -39.386 -48.241)">
    <path class="gopher-badge animated" d="m119.63 36.154 84.191 48.912v96.329l-84.191 47.789-84.053-47.789v-96.329z" fill="#ff4088"/>
    <path class="gopher-badge animated" d="m207.66 81.239 1.397 2.427v99.143l-1.423 2.444-86.625 49.17-2.768-1e-3 -86.484-49.171-1.421-2.443v-99.141l1.395-2.425 86.482-50.326 2.824-1e-3zm-166.85 6.839v90.27l78.816 44.811 78.951-44.814v-90.264l-78.951-45.867z" fill="#c9177e"/>
   </g>
   <g transform="matrix(1.9568 0 0 2.2173 -55.126 110.02)">
    <path class="gopher-badge animated" d="m179.24 106.55h-24.48v-44.352h-42.624v44.352h-24.48v-104.9h24.48v43.848h42.624v-43.848h24.48z" fill="#fff" fill-rule="nonzero"/>
   </g>
  </g>
  <g transform="matrix(1.0933 0 0 1.0933 -135.32 -8.1299)">
   <path class="gopher-cape animated" d="m167.5 129.51c17.292 1.627 49.208 5.094 82.624 18.893 33.452-12.226 44.791-18.822 83.752-18.893" fill="none" stroke="#c9177e" stroke-width="4px"/>
  </g>
  <g transform="translate(-1.4703)">
   <g transform="matrix(1.092 0 0 1 -11.24 3.1478)">
    <path class="gopher-cape animated" d="m103.23 44.41c24.417 0 38.735 15.657 42.408 31.995 3.855 17.149-24.949 31.995-49.365 31.995s-37.645-30.799-37.645-48.458c0-17.658 20.186-15.532 44.602-15.532zm0 15.532c14.699 0 25.137 5.833 25.137 16.463s-10.438 19.261-25.137 19.261c-14.698 0-28.15-13.044-28.15-23.674 0-10.631 13.452-12.05 28.15-12.05z" fill="#c9177e"/>
   </g>
   <g transform="matrix(1.0526 0 0 1 75.833 3.1478)">
    <path class="gopher-cape animated" d="m101.4 44.41c24.416 0 39.709-1.971 39.709 15.687s-15.293 48.303-39.709 48.303-44.239-14.337-44.239-31.995 19.823-31.995 44.239-31.995zm-2.85 15.687c14.592 0 27.34 0.815 27.34 11.369 0 10.553-12.748 24.061-27.34 24.061-14.593 0-26.44-8.568-26.44-19.122s11.847-16.308 26.44-16.308z" fill="#c9177e"/>
   </g>
  </g>
 </g>
</svg>
