<svg width="200" height="200" version="1.1" viewBox="0 0 1200 1200" xmlns="http://www.w3.org/2000/svg">
 <g transform="matrix(2.0265 0 0 2.0265 156.19 .0023042)" stroke="#000">
  <g stroke-width="2.4673">
   <path d="m53.67 61.86c-6.96 0-12.6 5.65-12.6 12.618 0 6.888 5.514 12.477 12.362 12.605 2.48-5.866 5.2-11.4 8.112-16.638 0.687-1.23 1.4-2.434 2.126-3.622-2.303-3.012-5.92-4.963-10-4.963z"/>
   <path d="m385.49 65.477a12.61 12.61 0 0 0-12.6-12.618c-4.146 0-7.812 2.014-10.108 5.1 4.815 6.345 9.007 12.886 12.615 19.875 5.758-1.164 10.093-6.257 10.093-12.366z"/>
   <path d="m362.78 57.968-0.857-1.136c-6.016-7.773-12.405-14.588-19.272-20.518-29.797-25.728-68.582-34.8-124.73-33.123-48.682 1.447-100.47 9.906-134.34 39.903-7.63 6.758-14.343 14.617-19.913 23.73a103.58 103.58 0 0 0-2.126 3.622 170.14 170.14 0 0 0-8.112 16.638c-3.476 8.224-6.5 17.108-8.95 26.793-4.767 18.77-7.463 40.533-7.462 66.257 2e-3 45.133 8.866 67.528 8.332 110.88l-0.23 8.82-0.543 15.375c-1.653 53.107-1.062 105.86-1.5 142.04-0.4 33.204 14.646 62.704 41.845 84.433 10.752 8.6 23.402 15.965 37.752 21.87 25.113 10.337 55.418 16.186 89.844 16.186 50.265 0 87.456-9.652 114.68-24.336 11.46-6.178 21.15-13.25 29.308-20.867 20.36-19.008 31.17-41.422 36-61.896 11.47-48.523 9.966-84.08 4.83-158.37l-0.313-4.53-1.34-22.763c-1.733-37.343 0.064-54.317-0.48-96.937-0.463-36.27-3.195-63.16-9.306-85.047-2.776-9.942-6.244-18.858-10.52-27.142-3.6-6.992-7.8-13.534-12.617-19.878z" fill="#00acd7"/>
  </g>
  <g transform="translate(.009 -.018)" fill="#f95" stroke-width="2.4673">
   <path d="m356.51 534.53c-8.158 7.618-17.85 14.7-29.308 20.867 12.68 6.005 18.893 14.549 26.542 24.449 11.037 14.283 38.46 1.3122 30.443-17.12-5.267-12.1-15.218-22.156-27.677-28.195z"/>
   <path d="m41.07 74.477a12.61 12.61 0 0 1 12.6-12.618c4.08 0 7.697 1.95 10 4.964 5.57-9.1 12.283-16.97 19.913-23.73-3.78-3.658-9.922-6.33-19.563-7.625-31.05-4.174-46.917 11.166-50.542 31.725-3.498 19.838 7.17 41.143 31.004 46.682 2.46-9.685 5.474-18.57 8.95-26.793-6.848-0.13-12.362-5.718-12.362-12.606z"/>
   <path d="m413.98 59.094c-3.625-20.56-19.492-35.9-50.54-31.725-10.765 1.447-17.166 4.6-20.8 8.945 6.867 5.93 13.257 12.745 19.272 20.518l0.857 1.136c2.296-3.095 5.963-5.1 10.108-5.1 6.96 0 12.6 5.65 12.6 12.618 0 6.1-4.335 11.202-10.093 12.366 4.277 8.283 7.745 17.2 10.52 27.142 21.763-6.55 31.416-26.9 28.065-45.9z"/>
   <path d="m254.67 150.3c-4.354-4.685-9.52-7.238-16.425-8.47-3.664 5.366-12.8 9.17-23.48 9.17-10.278 0-19.112-3.518-23.034-8.56-7.4 1.417-12.753 4.185-17.15 9.26-8.627 9.96-4.437 24.9 7.156 25.695 4.957 0.344 8.624 0.13 11.54-0.4 9.284-1.658 10.9-6.47 21.685-6.657a33.4 33.4 0 0 1 1.752 0.02c10.295 0.366 11.72 5.646 23.4 6.18 2.312 0.105 5.024 0.026 8.3-0.316 11.56-1.207 15.225-16.276 6.254-25.928z"/>
   <path d="m45.352 291c-13.378 1.876-28.958 5.7545-37.066 10.685-7.337 4.463-6.3736 17.599-1.1536 24.099 5.5 6.862 11.974 6.4948 19.78 2.9048 5.123-2.357 11.293-7.6 17.667-13.492l0.54261-15.374 0.23034-8.8206z"/>
   <path d="m395.7 286.96 1.3397 22.764 0.31323 4.5298c4.96 4.38 9.6798 8.0676 13.74 9.9366 7.807 3.6 14.27 3.9581 19.78-2.9039 5.22-6.5 6.1853-19.637-1.1527-24.099-7.5-4.56-21.4-8.2177-34.018-10.227z"/>
   <path d="m84.924 541.68c-13.117 5.13-23.736 12.47-29.754 23.168-9.854 17.52 15.9 31.95 29.25 19.8 10.908-9.928 19.518-18.348 38.256-21.098-14.35-5.906-27-13.28-37.752-21.87z"/>
  </g>
  <g stroke-width="2.4673">
   <ellipse cx="144.12" cy="91.595" rx="54.9" ry="53.1" fill="#fff"/>
   <circle cx="115.32" cy="94.294" r="18.9"/>
   <g fill="#fff">
    <circle cx="123.42" cy="98.794" r="5.4"/>
    <ellipse cx="281.82" cy="85.294" rx="54.9" ry="53.1"/>
   </g>
   <circle cx="253.02" cy="87.995" r="18.9"/>
   <g fill="#fff">
    <circle cx="261.12" cy="92.495" r="5.4"/>
    <path d="m214.97 170.34c-10.784 0.188-12.4 5-21.685 6.657l-1.163 22.896c-0.9 20.1 24.6 15.6 24.6 3.6v-33.132a33.4 33.4 0 0 0-1.752-0.02z"/>
    <path d="m216.72 203.5c0 12 25.5 16.5 24.6-3.6l-1.2-23.353c-11.7-0.533-13.115-5.813-23.4-6.18v33.132z"/>
   </g>
   <path d="m214.77 151c10.688 0 19.814-3.803 23.48-9.17 1.107-1.622 1.722-3.385 1.722-5.23 0-7.953-11.28-14.4-25.2-14.4s-25.2 6.447-25.2 14.4c0 2.08 0.778 4.054 2.166 5.84 3.92 5.042 12.755 8.56 23.033 8.56z"/>
   <path d="m5.048 322.4c3.333-2.397 5.688-5 11.784-8.097m416.12 3.597c-3.333-2.397-5.688-5-11.783-8.097m-360.3 274.77c0.9-4.95 3.6-13.275 11.7-20.476m303.48 18.866c-0.026-5.03-1.304-15.266-8.866-22.195" fill="none" stroke-linecap="round"/>
  </g>
 </g>
</svg>
