<svg width="1200" height="1200" version="1.1" viewBox="0 0 1200 1200" xmlns="http://www.w3.org/2000/svg">
 <g transform="translate(311.22 1004.5)" clip-rule="evenodd" fill-rule="evenodd" stroke-linejoin="round" stroke-miterlimit="2">
  <g transform="matrix(9.6219 0 0 9.6219 -800.74 -1254.8)" fill="#3d3d3d">
   <path d="m142.66 103.44 3.603-9.111h10.403l-4.938-13.821 6.175-15.614 17.685 46.956h-13.042l-3.022-8.41z" fill="#3d3d3d" fill-rule="nonzero"/>
  </g>
  <g transform="matrix(9.6219 0 0 9.6219 -800.74 -1230.1)" fill="#5a0fc8">
   <path d="m131.54 109.28 18.932-46.956-12.551 1e-3 -12.951 30.344-9.21-30.344h-9.647l-9.888 30.344-6.974-13.828-6.311 19.443 6.408 10.996h12.352l8.936-27.212 8.519 27.212z" fill="#5a0fc8" fill-rule="nonzero"/>
  </g>
  <g transform="matrix(9.6219 0 0 9.6219 -800.74 -1230.1)" fill="#3d3d3d">
   <path d="m62.789 93.166h7.731c2.342 0 4.427-0.261 6.256-0.784l1.999-6.159 5.588-17.216c-0.425-0.674-0.911-1.313-1.458-1.914-2.869-3.176-7.067-4.763-12.593-4.763h-19.437v46.956h11.914zm10.233-20.034c1.121 1.128 1.681 2.638 1.681 4.528 0 1.906-0.493 3.417-1.478 4.534-1.081 1.241-3.07 1.862-5.968 1.862h-4.468v-12.615h4.501c2.701 0 4.612 0.563 5.732 1.691z" fill="#3d3d3d" fill-rule="nonzero"/>
  </g>
 </g>
</svg>
