<svg width="200" height="200" version="1.1" viewBox="0 0 200 200" xmlns="http://www.w3.org/2000/svg">
 <g id="logo-foreground" transform="matrix(.16666 0 0 .16666 -.53688 .0044235)">
  <g transform="matrix(.89865 0 0 .89938 105.24 28.453)">
   <g transform="matrix(1.0045 0 0 1 .5043 0)">
    <g fill="#b3b3b3" stroke="#000" stroke-width="1.0406px">
     <path d="m0.57458 98.368h-11.472l-102.1 28.12v61.026l102.1 22.578h11.472z"/>
     <path d="m0.57458 229.48h-11.472l-102.1 28.12v61.026l102.1 22.578h11.472z"/>
     <path d="m0.57458 364.31h-11.472l-102.1 28.12v61.026l102.1 22.578h11.472z"/>
     <path d="m0.57458 497.22h-11.472l-102.1 28.12v61.026l102.1 22.578h11.472z"/>
     <path d="m0.57458 629.84h-11.472l-102.1 28.12v61.026l102.1 22.578h11.472z"/>
     <path d="m0.57458 761.96h-11.472l-102.1 28.12v61.026l102.1 22.578h11.472z"/>
     <path d="m0.57458 894.78h-11.472l-102.1 28.12v61.026l102.1 22.578h11.472z"/>
     <path d="m0.57458 1025.6h-11.472l-102.1 28.12v61.026l102.1 22.578h11.472z"/>
     <path d="m1101.8 98.337h11.472l102.1 28.12v61.026l-102.1 22.578h-11.472z"/>
     <path d="m1101.8 231.92h11.472l102.1 28.12v61.026l-102.1 22.578h-11.472z"/>
     <path d="m1101.8 363.94h11.472l102.1 28.12v61.026l-102.1 22.578h-11.472z"/>
     <path d="m1101.8 497.82h11.472l102.1 28.12v61.026l-102.1 22.578h-11.472z"/>
     <path d="m1101.8 628.5h11.472l102.1 28.12v61.026l-102.1 22.578h-11.472z"/>
     <path d="m1101.8 761.32h11.472l102.1 28.12v61.026l-102.1 22.578h-11.472z"/>
     <path d="m1101.8 892.53h11.472l102.1 28.12v61.026l-102.1 22.578h-11.472z"/>
     <path d="m1101.8 1024.8h11.472l102.1 28.12v61.026l-102.1 22.578h-11.472z"/>
    </g>
    <path d="m16.444-27.386v1330h1090v-1330h-491.03a64.493 73.15 0 0 1-62.854 57.613 64.493 73.15 0 0 1-62.854-57.613z" fill="none"/>
    <path d="m66.461-31.637c-38.78 0-70 31.412-70 70.431v1192.8c0 39.019 31.22 70.431 70 70.431h969.16c38.78 0 70-31.412 70-70.431v-1192.8c0-39.019-31.22-70.431-70-70.431h-421.68a64.099 79.392 0 0 1-62.273 68.018 64.099 79.392 0 0 1-62.271-68.018z" fill="#1a1a1a"/>
    <rect x="34.102" y="90.348" width="1024.3" height="1174.3" rx="25.772" ry="25.59" fill="#ccc"/>
   </g>
  </g>
  <g transform="translate(-1674.6,-98.183)" stroke-linejoin="round">
   <g fill="#abc3d6" stroke="#000" stroke-width="10">
    <path d="m2677 330.68c-0.5849 15.947-10.968 34.314-16.952 48.527-7.7871 18.498-18.407 31.311-34.087 31.311-14.545 0-15.578-15.026-29.811-28.65-12.901-12.348-24.965-21.389-38.511-32.407-16.972-13.805-0.023-28.593 16.043-48.422 8.3284-10.279 25.583-21.833 36.116-23.979 14.128-2.8793 33.81-1.408 46.686 9.1814 13.038 10.722 21.327 22.37 20.517 44.439z"/>
    <path d="m1907.2 285.3c8.9461-0.91085 19.275 2.8352 33.822 14.187 14.063 10.973 41.426 32.547 32.568 38.797-8.3385 5.8828-26.634 21.963-40.938 36.123-17.323 17.147-37.432 44.654-37.432 44.654-5.1011 14.427-11.225-14.157-27.54-35.979-7.9219-10.596-9.0823-24.27-10.322-34.947-1.6629-14.322 0.4942-24.24 8.0285-39.112 7.2416-14.294 21.523-21.656 41.814-23.722z"/>
    <path d="m2272.3 266.39c-7.405-0.39509-16.659-0.26902-28.242 0.0254-11.009 0.27982-21.214 0.88612-30.973 1.7031-18.072 1.513-36.828 4.6725-58.963 8.2402-29.45 4.7468-57.351 11.691-75.856 16.623-41.024 10.933-65.711 21.416-88.619 34.504-32.748 18.709-47.302 39.158-74.006 63.666-20.688 25.799-43.228 55.331-56.594 80.475-10.624 26.573-12.299 41.427-16.783 56.588-5.9486 20.111-8.5987 33.742-8.8067 55.898-1.9814 96.849-4.0173 196.53-4.289 294.21l-0.2207 211.38 2.6152 156.35h866.34l3.3437-156.84-5.9766-304.58c-6.6981-95.773-2.0972-173.67-20.941-275.37-2.4665-13.311-7.3257-36.631-14.293-52.912-16.392-29.297-27.001-38.061-41.154-53.572-22.089-21.352-37.397-33.735-55.129-49.324-9.2031-8.0912-54.586-37.518-83.529-48.34-37.942-14.186-90.086-26.279-121.69-31.139-13.903-2.1384-25.187-2.4928-36.576-3.4082-15.295-1.2294-25.442-2.8834-49.666-4.1758z"/>
   </g>
   <g stroke="#000">
    <path d="m1899.1 350.12-0.9692-0.26702 33.257 17.155 1.746-34.066" fill="none" stroke-linecap="round" stroke-width="8.0889"/>
    <path d="m2189.9 597.43c0 36.338-11.266 76.609-32.046 105.87-39.124 55.097-108.24 86.448-173.16 86.448-46.219 0-81.396-11.061-110.41-44.159-33.379-38.082-57.202-102.09-57.202-158.14 0-46.392 17.228-85.92 44.238-120.46 33.978-43.452 84.184-72.875 139.56-72.875 39.627 0 85.125 14.126 116.65 40.286 47.544 39.458 72.371 100.03 72.371 163.02z" fill="#fff" stroke-width="10"/>
    <path d="m2732 600.44c0 52.608-21.316 108.54-54.048 143.3-32.444 34.454-76.084 47.963-125.56 47.963-54.518 0-111.5-26.406-148.45-70.962-30.419-36.68-46.052-86.884-46.052-134.18 0-54.591 22.807-114.36 58.745-150.85 33.023-33.529 80.061-43.347 127.66-43.347 54.506-1e-5 106.46 28.12 142.36 74.194 29.567 37.947 45.351 86.573 45.351 133.88z" fill="#fff" stroke-width="10"/>
   </g>
   <path d="m2031.9 484.39c0 9.2343-2.5873 20.442-7.9789 28.047-8.4007 11.849-22.5 18.024-35.689 18.024-21.653 2e-5 -39.82-21.302-39.82-44.925 0-8.6604 5.0453-18.353 9.0821-25.377 6.9739-12.135 21.372-20.24 35.087-20.24 9.8041 0 22.051 2.0033 28.95 8.8736 8.3387 8.3035 10.369 22.67 10.369 35.597z" stroke-width="10"/>
   <path d="m1990.8 468.53c0 6.1275-9.0775 13.392-14.273 13.392-5.1957 3e-5 -8.1667-5.4531-8.1667-11.581 0-3.0099 0.2681-6.7818 2.7277-9.3488 2.5476-2.6589 7.3338-4.0602 9.9774-4.0602 5.1956 3e-5 9.7347 5.4703 9.7347 11.598z" fill="#fff" stroke-width="10"/>
   <path d="m2578 471.13c0 8.5408-3.4127 18.878-8.3994 25.911-3.365 4.7463-8.3567 9.9832-14.203 13.304-7.6519 4.3464-16.593 6.0962-23.508 6.0962-11.627 1e-5 -23.471-6.6901-30.267-16.536-4.9103-7.1135-6.5622-15.851-6.5622-25.015 0-8.0099 4.6664-16.974 8.4-23.471 6.4501-11.223 19.767-18.72 32.452-18.72 9.0677 0 21.77 1.369 28.151 7.7233 7.7124 7.6798 13.937 18.75 13.937 30.706z" stroke-width="9.2489"/>
   <path d="m2538 451.89c0 6.1275-6.4197 9.0539-11.615 9.054-5.1957 3e-5 -9.5837-3.2849-9.5837-9.4125 0-3.0099 0.8459-6.972 3.3055-9.539 2.5476-2.6589 8.3245-2.1977 10.968-2.1977 5.1956 3e-5 6.9254 5.9676 6.9254 12.095z" fill="#fff" stroke-width="10"/>
   <path d="m2234.3 676.4 76.668 0.94126c16.23 0.19926 26.373 13.895 33.863 22.953 10.406 12.583 10.159 23.343 9.9531 41.959-0.3382 30.638-13.621 26.93-35.02 26.252-12.041-0.3812-28.722-7.6078-50.023-7.3566-26.253 1.1178-37.308 8.5551-52.815 14.227-14.563 5.3264-22.829-0.95262-27.598-5.3828-7.158-6.6496-10.956-10.263-10.416-29.471 0.3516-12.499 16.792-27.31 21.975-36.275 6.3272-10.944 16.379-28.056 33.413-27.847z" fill="#ccbdac" stroke="#000" stroke-width="10"/>
   <path d="m2320.8 674.97c0 12.112-9.5419 17.817-22.675 24.525-8.9113 4.5519-19.989 8.7014-31.944 8.7014-10.688-1e-5 -22.177-2.7859-30.535-6.4945-14.769-6.5535-21.943-13.749-21.943-26.732 0-8.978 3.2149-20.603 10.984-26.992 9.8227-8.0778 26.051-9.8188 42.565-9.8188 12.977 0 26.515 3.5715 35.783 8.8508 11.854 6.7519 17.766 16.55 17.766 27.96z" fill="#666" stroke="#000" stroke-width="10.759"/>
   <path d="m2276.6 933.98c-7.5413-0.18576-15.206 0.0233-22.971 0.64453-67.634 5.4118-119.78 36.4-165.9 73.984-50.757 41.368-80.715 139.96-80.715 207.64 0 7.3912 0.3814 14.516 1.0508 21.438h487.58c-0.1065-1.1464-0.1482-2.2472-0.2754-3.4082-8.7542-79.868-29.044-182.61-87.562-244.71-31.725-33.663-78.42-54.288-131.21-55.588z" fill="#cddbe6" stroke-width="10"/>
   <path d="m2272 760.07c23.72 0 39.365 5.766 39.365 33.802 0 8.6589-0.4443 30.206-3.4917 38.433-2.413 6.5146-12.313 5.9106-20.147 7.4602 0 0-24.018 1.8961-34.611 1.8961-23.721 0-27.539-22.366-27.539-50.402s22.703-31.189 46.424-31.189z" fill="#fff" stroke="#000" stroke-width="10"/>
   <path d="m2615.9 330.26 0.2537-1.389-19.887 48.649 47.875-1.7713" fill="none" stroke="#000" stroke-linecap="round" stroke-width="11.361"/>
  </g>
 </g>
</svg>
