<svg width="600" height="600" version="1.1" viewBox="0 0 158.75 158.75" xmlns="http://www.w3.org/2000/svg">
<g transform="translate(1.1061 -.94431)">
<g transform="matrix(1.5508 0 0 1.5508 28.897 55.119)">
<path d="m73.906 30.733v-32.346c0-4.2063-2.2278-8.0978-5.8542-10.229-7.7832-4.5728-21.534-12.652-29.955-17.6-4.4476-2.612-9.9721-2.5532-14.362.15346-7.4533 4.5958-19.082 11.766-26.588 16.395-4.527 2.7914-7.284 7.7285-7.284 13.047v33.118c0 5.2753 2.7993 10.154 7.3528 12.816l27.707 16.196c3.683 2.1537 8.2312 2.2005 11.959.12436 8.091-4.5074 22.421-12.487 30.676-17.085 3.9158-2.1828 6.3421-6.313 6.3421-10.795v-3.7941z" fill="#ff4088" style="clip-rule:evenodd;fill-rule:evenodd;stroke-linejoin:round;stroke-miterlimit:1.414;stroke-width:.26458"/>
<path d="m31.081-34.933h.07329l.06535.000793h.37412l.06535.0026h.0079l.06535.0026h.0071l.06615.0026h.0053l.06615.0026h.0079l.0635.0026h.0079l.0635.0026h.0053l.06615.0026h.0079l.06615.0053h.0079l.0635.0053h.0053l.0635.0053h.0079l.06615.0053h.0053l.0635.0053h.0079l.06615.0053h.0079l.06615.0053h.0079l.06615.0053h.0079l.0635.0053h.0079l.0635.0053h.0079l.06615.0053h.0079l.06615.0079h.0079l.06615.0079h.0053l.0635.0079h.0079l.0635.0079h.0079l.06615.0079h.0079l.06615.0079h.0053l.0635.0079h.0079l.06615.0079h.0079l.0635.01058.0079.0026.06615.01058h.0079l.0635.01058h.0053l.06615.01058h.0079l.0635.01058h.0079l.0635.01058h.0053l.06614.01058h.0079l.0635.01058.0079.0026.0635.01058.0079.0026.0635.01323h.0079l.0635.01058h.0079l.0635.01323h.0079l.06615.01323h.0053l.0635.01323h.0079l.0635.01323h.0053l.06615.01323.0079.0026.06615.01323h.0053l.0635.01588.0079.0026.0635.01588h.0079l.06615.01587.0053.0026.0635.01323.0079.0026.0635.01323.0053.0026.0635.01588h.0079l.0635.01588.0079.0026.0635.01588.0053.0026.06615.01588.0053.0026.0635.01588.0079.0026.0635.01588h.0053l.0635.01852h.0079l.06615.01588.0079.0026.0635.01588h.0079l.0635.01852.0079.0026.0635.01852.0079.0026.0635.01852.0079.0026.0635.01852.0053.0026.0635.01852.0079.0026.0635.01852.0079.0026.0635.01852.0079.0026.0635.02117.0053.0026.0635.02117h.0079l.0635.02117h.0079l.0635.02117.0079.0026.0635.02117.0079.0026.0635.02117.0053.0026.0635.02117.0079.0026.0635.02117.0053.0026.0635.02117.0053.0026.06085.02117.0079.0026.06085.02117.0079.0026.06086.02381.0079.0026.0635.02381.0079.0026.06085.02381.0053.0026.0635.02117.0053.0026.0635.02381.0079.0026.0635.02381.0079.0026.06085.02381.0079.0026.06085.02646.0053.0026.0635.02381.0079.0026.06085.02646.0079.0026.0635.02646.0079.0026.0635.02646.0053.0026.0635.02646.0053.0026.06085.02646.0053.0026.06085.02646.0053.0026.0635.02646.0053.0026.06085.02646.0079.0026.06085.02646.0079.0026.06085.02646.0053.0026.06085.0291.0079.0026.06085.0291.0079.0026.06085.0291.0053.0026.06085.0291.0053.0026.06085.0291.0079.0026.06085.0291.0079.0026.06086.0291.0079.0026.06085.0291.0053.0026.06085.03175.0053.0053.06085.0291.0053.0026.05821.03175.0079.0026.06085.0291.0053.0026.06085.03175.0079.0026.05821.03175.0079.0053.06085.03175.0079.0026.06085.03175.0053.0026.05821.03175.0079.0053.06085.03175.0053.0053.05821.0344.0053.0053.05821.0344.0079.0026.05821.0344.0053.0026.05821.0344.0053.0053.05821.0344.0079.0053.05556.0344h.0053l29.977 17.613.05027.0291.0053.0053.05027.0291.0079.0026.04762.03175.0053.0053.04762.0291.0053.0053.04763.0291.0053.0026.04762.0291.0053.0026.04763.0291.0053.0026.04762.0291.0079.0026.04762.03175.0053.0026.04763.03175.0079.0026.04762.0291.0053.0026.04763.03175.0053.0053.04762.03175.0053.0053.04498.0291.0079.0026.04762.03175.0053.0026.04762.03175.0053.0026.04498.03175.0053.0026.04498.03175.0053.0026.04498.03175.0053.0053.04498.03175.0053.0026.04498.0344.0079.0053.04498.03175.0053.0026.04498.03175.0053.0026.04498.03175.0053.0053.04498.03175.0053.0026.04498.03175.0053.0053.04498.03175.0053.0053.04498.0344.0079.0053.04233.0344.0079.0053.04498.0344.0079.0026.04498.0344.0053.0053.04498.0344.0053.0053.04233.0344.0079.0053.04498.03704.0079.0079.08467.06879.01058.0079.08467.07144.01058.0079.08731.07144.01058.0079.08731.07144.01058.0079.08467.07144.01058.01058.08467.07144.01058.0079.08202.07408.01058.0079.08202.07408.01058.0079.08202.07673.01058.0079.07937.07408.01058.0079.08202.07673.01058.01058.07937.07673.01058.01058.07937.07673.09789.09789.07673.07938.01058.01058.07673.07938.0079.01058.07673.07937.01058.01058.07408.07937.01058.01058.07408.07938.01058.01058.07408.07938.01058.01058.07408.08202.01058.01058.07144.08467.0079.01058.07408.08202.01058.01058.07144.08467.01058.01058.07144.08467.0079.01058.07144.08467.01058.01058.06879.08467.0079.01058.06879.08467.01058.01058.06879.08731.0079.01058.06615.08731.0079.01058.06615.08731.0079.01058.06614.08731.0079.01323.06615.08996.0079.01058.06615.08731.0079.01323.0635.08996.0079.01058.0635.08996.0079.01058.0635.08996.0079.01323.06085.08996.0079.01323.06085.0926.0079.01323.05821.08996.0079.01058.05821.089958.0079.010583.06085.092604.0079.010583.05821.092604.0079.013229.05556.092604.0079.013229.05821.092604.0079.013229.05556.092604.0079.013229.05556.09525.0079.010583.05292.09525.0079.013229.05292.09525.0079.013229.05292.09525.0079.013229.05292.09525.0053.013229.05292.097896.0053.013229.05027.097896.0053.013229.05027.097896.0079.010583.04762.10054.0053.013229.05027.097896.0053.013229.04762.097896.0079.013229.04498.10054.0053.013229.04498.10054.0053.013229.04498.10054.0053.013229.04498.10054.0053.013229.04233.10054.0053.013229.04233.10054.0053.013229.03969.10319.0053.013229.03969.10054.0053.013229.03969.10319.0053.013229.03969.10319.0053.013229.03969.10319.0053.013229.03704.10319.0053.013229.0344.10319.0053.013229.0344.10319.0053.013229.0344.10319.0053.013229.0344.10583.0026.013229.03175.10319.0053.013229.03175.10583.0026.013229.03175.10583.0053.013229.03175.10583.0053.013229.0291.10583.0053.013229.02911.10583.0026.013229.02646.10583.0053.015875.02911.10848.0026.013229.02646.10848.0053.013229.02381.10848.0053.013229.02646.10848.0026.015875.02381.10848.0026.013229.02381.10848.0026.013229.02117.10848.0026.013229.02117.10848.0026.013229.02117.10848.0026.013229.01852.11112.0026.013229.01852.10848.0026.015875.01852.11112.0026.015875.01587.11112.0026.015875.01588.10848v.010583l.0079.058208v.00529l.0053.055562v.00794l.0079.055563v.00529l.0079.055563v.00794l.0079.055563.0026.00794.0079.055563v.00794l.0053.055562.0026.00529.0053.055562.0026.00794.0053.055562v.00794l.0053.055563.0026.00794.0053.055563.0026.00794.0053.055562v.00794l.0053.055562v.00794l.0053.055563v.00794l.0053.055563v.00794l.0053.055563v.00794l.0026.055562v.00794l.0026.058208v.00794l.0053.058208v.00529l.0026.055563v.00794l.0026.055563v.00794l.0026.055563v.00794l.0026.055562v.00794l.0026.058208v.00794l.0026.055562v.00794l.0026.055562v.00529l.0026.055562v36.94l-.0026.06085v.07673l-.0026.06085v.0079l-.0026.05821v.0053l-.0026.06085v.0079l-.0026.05821v.0053l-.0026.05821v.0079l-.0026.05821-.0026.0079-.0026.05821v.0079l-.0026.05821v.0053l-.0026.06085v.0079l-.0053.06085v.0053l-.0053.06085v.0079l-.0053.05821v.0079l-.0026.05821v.0079l-.0053.05821v.0079l-.0053.05821v.0079l-.0053.05821v.0079l-.0053.05821-.0026.0053-.0053.06085-.0026.0079-.0053.05821v.0079l-.0053.05821-.0026.0079-.0079.05821v.0079l-.0079.05821v.0053l-.0079.05821v.0079l-.0079.05821-.0026.0079-.0079.06085-.0026.0079-.0079.05821-.0026.0079-.0079.05821v.0079l-.0079.05821v.0079l-.0079.05821-.0026.0079-.0079.05821-.0026.0079-.01058.05821v.0053l-.0079.05821v.0053l-.01058.05821-.0026.0079-.0079.05821-.0026.0079-.0079.05821v.0053l-.01058.05821v.0053l-.01058.05821v.0053l-.01058.05821v.0079l-.01058.05556-.0026.0079-.01058.05556-.0026.0079-.01058.05821-.0026.0079-.01323.05821v.0053l-.01323.05821v.0053l-.01058.05556v.0079l-.01323.05821v.0053l-.01058.05821-.0026.0053-.01323.05556v.0053l-.01323.05556v.0079l-.01323.05556-.0026.0079-.01323.05556-.0026.0079-.01323.05556-.0026.0053-.01323.05556-.0026.0053-.01323.05556-.0026.0079-.01587.05556-.0026.0079-.01323.05556-.0026.0079-.01587.05556v.0079l-.01588.05821-.0026.0079-.01587.05556v.0079l-.01588.05556-.0026.0079-.01587.05556-.0026.0079-.01588.05821-.0026.0053-.01587.05556-.0026.0053-.01587.05556-.0026.0079-.01852.05556-.0026.0079-.01588.05556-.0026.0053-.01587.05556-.0026.0079-.01587.05556-.0026.0053-.01852.05556-.0026.0079-.01852.05556-.0026.0079-.01852.05556-.0026.0079-.01852.05556-.0026.0079-.01852.05556-.0026.0053-.01852.05556-.0026.0079-.01852.05556-.0026.0079-.01852.05556-.0026.0053-.01852.05556-.0026.0079-.01852.05556-.0026.0079-.02117.05292-.0026.0079-.01852.05292-.0026.0079-.01852.05292-.0026.0079-.01852.05556-.0026.0079-.02117.05556-.0026.0079-.02117.05292-.0026.0079-.02117.05292-.0026.0079-.02117.05292-.0026.0079-.02117.05292-.0026.0079-.02117.05292-.0026.0079-.02117.05292-.0026.0053-.02381.05292-.0026.0079-.02381.05556-.0026.0079-.02117.05292-.0026.0079-.02381.05292-.0026.0079-.02381.05292-.0026.0079-.02381.05292-.0026.0053-.02381.05292-.0026.0079-.02381.05292-.0026.0053-.02381.05292-.0026.0053-.02381.05292-.0026.0053-.02381.05292-.0026.0053-.02646.05292-.0026.0053-.02646.05027-.0026.0079-.02381.05292-.0026.0053-.02646.05027-.0026.0079-.02381.05292-.0026.0053-.02646.05292-.0026.0079-.02646.05292-.0026.0053-.02646.05027-.0026.0053-.02646.05292-.0026.0079-.02646.05292-.0026.0079-.02646.05292-.0053.0079-.02646.05027-.0026.0053-.02646.05292-.0026.0079-.02646.05292-.0026.0079-.0291.05027-.0053.0053-.0291.05027-.0026.0053-.0291.05027-.0026.0053-.0291.05027-.0026.0053-.0291.05027-.0026.0053-.0291.05027-.0026.0079-.0291.05027-.0026.0053-.0291.05027-.0026.0079-.0291.05027-.0053.0053-.0291.05027-.0053.0053-.0291.05027-.0026.0053-.0291.05027-.0026.0079-.03175.05027-.0026.0053-.0291.04762-.0026.0079-.0291.04762-.0053.0053-.03175.05027-.0026.0079-.03175.04762-.0053.0053-.03175.04762-.0026.0053-.03175.05027-.0053.0079-.03175.04763-.0053.0053-.03175.04762-.0026.0053-.03175.05027-.0026.0053-.03175.04762-.0053.0053-.0344.04763-.0026.0053-.03175.04763-.0026.0053-.0344.04762-.0026.0053-.03175.04762-.0053.0053-.03175.04762-.0053.0053-.0344.04763-.0053.0053-.03175.04763-.0026.0053-.0344.04762-.0053.0079-.03175.04762-.0053.0053-.0344.04762-.0053.0053-.0344.04763-.0053.0053-.0344.04763-.0053.0053-.0344.04762-.0026.0053-.0344.04498-.0053.0053-.0344.04498-.0026.0053-.03704.04498-.0053.0053-.0344.04498-.0026.0053-.0344.04763-.0053.0053-.03704.04763-.0053.0053-.03704.04498-.0053.0053-.03704.04498-.0026.0053-.03704.04498-.0053.0053-.03704.04498-.0053.0053-.03704.04498-.0053.0053-.03704.04498-.0053.0053-.03704.04498-.0026.0053-.03704.04498-.0053.0053-.03969.04498-.0053.0053-.03704.04498-.0053.0053-.03704.04498-.0053.0053-.03704.04498-.0053.0053-.03704.04498-.0053.0053-.03704.04233-.0053.0053-.03969.04498-.0053.0053-.03704.04498-.0053.0053-.03969.04498-.0053.0053-.03704.04498-.0053.0053-.03969.04233-.0053.0053-.03969.04233-.0053.0053-.03969.04233-.0053.0053-.03969.04233-.0053.0053-.03969.04233-.0053.0053-.03969.04233-.0053.0053-.03969.04233-.0053.0053-.03969.04233-.05293.05293-.03969.04233-.09262.09262-.0079.0053-.04763.04763-.04233.03969-.05293.05293-.04233.03969-.0053.0053-.04233.03969-.0053.0053-.04233.03969-.0053.0053-.04233.03969-.0053.0053-.04233.03969-.0053.0053-.04233.03969-.0053.0053-.04498.03969-.0053.0026-.04233.03969-.0053.0053-.04498.03969-.0053.0053-.04498.03969-.0053.0026-.04498.03969-.0053.0053-.04498.03704-.0079.0053-.04498.03704-.0053.0053-.04498.03969-.0053.0053-.04498.03969-.0053.0053-.04498.03969-.0053.0053-.04498.03704-.0053.0053-.04763.03704-.0053.0026-.04498.03704-.0053.0053-.04498.03704-.0079.0053-.04498.03704-.0053.0053-.04498.03704-.0053.0053-.04498.03704-.0053.0053-.04762.03704-.0053.0053-.04498.0344-.0053.0053-.04762.03704-.0053.0053-.04762.03704-.0053.0053-.04762.03704-.0053.0053-.04763.03704-.0053.0026-.04762.0344-.0053.0026-.04762.03439-.0053.0026-.04763.0344-.0079.0026-.04762.0344-.0053.0053-.04763.0344-.0053.0053-.04762.0344-.0053.0053-.04762.0344-.0079.0053-.04762.0344-.0053.0026-.05027.0344-.0079.0026-.05027.0344-.0053.0053-.05027.03439-.0053.0053-.05027.03175-.0053.0053-.05027.0344-.0053.0053-.04763.0344-.0079.0053-.05027.03175-.0053.0026-.05027.03175-.0079.0026-.05027.03175-.0053.0053-.05027.03175-.0053.0053-.05027.03175-.0053.0026-.05027.03175-.0079.0026-.05027.03175-.0053.0053-.05027.03175-.0079.0026-.05027.03175-.0079.0053-.05027.03175-.0079.0053-.05292.03175-.0053.0053-.05027.0291-.0079.0026-.05027.0291-.0053.0053-.05292.03175-.0079.0053-.05292.02911-.0053.0053-.05027.0291-.0079.0026-.05292.0291-.0079.0026-.05292.0291-.0053.0026-.05027.0291-.0026.0026-30.673 17.092h-.0026l-.04763.0291-.0079.0026-.05027.02911-.0079.0053-.05027.02646-.0079.0026-.05027.02646-.0053.0026-.05027.02646-.0079.0026-.05027.02646-.0079.0026-.05027.02646-.0079.0026-.05027.02646-.0053.0026-.05027.02646-.0053.0026-.05027.02381-.0053.0026-.05292.02646-.0053.0053-.05027.02646-.0053.0026-.05027.02381-.0053.0026-.05027.02381-.0053.0026-.05027.02646-.0053.0026-.05292.02381-.0053.0026-.05027.02381-.0053.0026-.05292.02381-.0053.0026-.05027.02381-.0053.0026-.05027.02381-.0079.0053-.05292.02381-.0053.0026-.05292.02117-.0053.0026-.05292.02381-.0053.0053-.05292.02381-.0079.0026-.05027.02117-.0053.0026-.05292.02381-.0053.0026-.05292.02117-.0053.0026-.05292.02117-.0053.0026-.05292.02117-.0079.0026-.05292.02117-.0079.0026-.05292.02117-.0079.0026-.05027.02117-.0053.0026-.05292.01852-.0053.0026-.05292.02117-.0079.0026-.05292.02117-.0079.0026-.05292.02117-.0079.0026-.05292.01852-.0079.0026-.05292.02117-.0079.0026-.05292.01852-.0053.0026-.05292.01852-.0079.0026-.05292.01852-.0079.0026-.05292.01852-.0079.0026-.05292.01852-.0053.0026-.10584.03704-.0079.0026-.05556.01587-.0079.0026-.05292.01588-.0053.0026-.05292.01852-.0053.0026-.05556.01588-.0079.0026-.05292.01587-.0079.0026-.05292.01587-.0079.0026-.05556.01852-.01058.0026-.10583.03175-.01323.0053-.10848.03175-.01323.0026-.10848.03175-.01323.0026-.10848.02911-.01323.0053-.10848.0291-.01323.0026-.10848.0291-.01588.0026-.10848.02646-.01323.0026-.10848.02646-.01588.0026-.10848.02646-.01323.0026-.10848.02381-.01323.0026-.11112.02381-.01588.0026-.11112.02381-.01323.0026-.11112.02117-.01323.0026-.10848.01852-.01323.0026-.10848.02117-.01323.0026-.11112.01852-.01323.0026-.11112.01852-.01323.0026-.11112.01588-.01323.0026-.11112.01587-.01323.0026-.11112.01587-.01323.0026-.11112.01588-.01588.0026-.11112.01323-.01323.0026-.11112.01323-.01323.0026-.11112.01323-.11112.01058h-.01323l-.11112.0079-.01323.0026-.11112.0079h-.01323l-.11112.0079h-.01323l-.11112.0079-.01588.0026-.11112.0079h-.01323l-.11112.0053h-.01323l-.11112.0053h-.01588l-.11112.0026h-.01323l-.11112.0026h-.01323l-.11112.0026h-.39264l-.22225-.0052h-.01588l-.11112-.0026h-.0024l-.11112-.0053-.01323-.0026-.11112-.0053h-.0132l-.11112-.0053-.01323-.0026-.11112-.0053h-.01323l-.11112-.0079-.01323-.0026-.11112-.01058-.01588-.0026-.11112-.01058-.01587-.0026-.11112-.01058-.01323-.0026-.11112-.01058h-.01323l-.11112-.01058-.01323-.0026-.11112-.01323h-.01587l-.11112-.01323-.01588-.0026-.11112-.01587-.01323-.0026-.11112-.01587-.01323-.0026-.11112-.01588-.01323-.0026-.11112-.01587-.01323-.0026-.10848-.01852h-.0079l-.11112-.02117-.01429-.0026-.10848-.02117-.01323-.0026-.10848-.02117-.01323-.0026-.10848-.02117-.01588-.0026-.11007-.02117-.01323-.0026-.10848-.02381-.01588-.0053-.10848-.02381-.01323-.0026-.10848-.02646-.01482-.0053-.10848-.02646-.01323-.0053-.10848-.0291-.01323-.0026-.10848-.0291-.01323-.0053-.10848-.0291-.01323-.0053-.10848-.0291-.01323-.0053-.10848-.03175-.01587-.0053-.10848-.03175-.01323-.0053-.10848-.03175-.01323-.0053-.10848-.03175-.01323-.0026-.1053-.0344-.01058-.0026-.05556-.01852h-.0071l-.05292-.01587-.0079-.0026-.05292-.01852-.0079-.0026-.05292-.01852-.0079-.0026-.05292-.01852-.0079-.0026-.05292-.01852-.0079-.0026-.05292-.01852-.0053-.0026-.05292-.01852-.0053-.0026-.05292-.01852-.0053-.0026-.05292-.02117-.0079-.0026-.05292-.02117-.0079-.0026-.05292-.02117-.0053-.0026-.05292-.02117-.0079-.0026-.05292-.02117-.0053-.0026-.05292-.02117-.0079-.0026-.05292-.02117-.0053-.0026-.05292-.02117-.0053-.0026-.05292-.02117-.0079-.0026-.05292-.02117-.0079-.0026-.05292-.02117-.0079-.0026-.05292-.02117-.0079-.0026-.05292-.02117-.0053-.0026-.05292-.02381-.0079-.0026-.05027-.02381-.0053-.0026-.05292-.02381-.0053-.0026-.05292-.02381-.0053-.0026-.05292-.02117-.0079-.0026-.05027-.02381-.0079-.0026-.05292-.02381-.0079-.0026-.05027-.02381-.0053-.0053-.05027-.02381-.0053-.0026-.05027-.02381-.0053-.0026-.05292-.02381-.0053-.0053-.05292-.02646-.0053-.0053-.05027-.02381-.0079-.0026-.05292-.02381-.0053-.0053-.05027-.02646-.0079-.0026-.05292-.02646-.0053-.0026-.05027-.02646-.0079-.0026-.05027-.02646-.0053-.0026-.05027-.02646-.0079-.0053-.05027-.02646-.0053-.0026-.05027-.02646-.0053-.0026-.05027-.02646-.0079-.0053-.05027-.02646-.0053-.0026-.05027-.0291-.0079-.0053-.05027-.02646-.0079-.0026-.05027-.02646-.0079-.0026-.05027-.02646-.0079-.0026-.05027-.0291-.0079-.0026-.04763-.0291-.0079-.0026-.04763-.0291-.0026-.0026-27.728-16.185-.00265-.0026-.058208-.0344-.00529-.0026-.058208-.0344-.00794-.0026-.060854-.0344-.00794-.0026-.058208-.03704-.00529-.0026-.058208-.03704-.00529-.0053-.058208-.03704-.00529-.0053-.058208-.03704-.00794-.0026-.058208-.0344-.00794-.0053-.058208-.03704-.00529-.0053-.058208-.03704h.013494l-.058208-.03704-.00794-.0053-.058208-.03704-.00529-.0053-.058208-.03704-.00741-.0053-.058208-.03969-.00794-.0053-.058208-.03969-.00529-.0053-.058208-.03704-.00529-.0053-.058208-.03969-.00529-.0053-.058208-.03969-.00529-.0053-.055562-.03969-.00794-.0053-.056885-.03969-.00529-.0053-.055562-.03969-.00661-.0053-.055562-.03969-.00714-.0053-.055563-.03969-.00529-.0026-.055562-.03969-.00529-.0053-.054769-.03969-.00529-.0053-.054504-.03969-.00794-.0026-.055563-.03969-.00529-.0053-.055562-.04233-.00529-.0053-.055563-.03969-.00688-.0053-.055563-.04233-.00688-.0053-.052917-.04233-.00529-.0053-.052917-.04233-.00529-.0026-.052917-.04233-.00529-.0053-.052917-.04233-.00529-.0053-.052917-.04233-.00529-.0053-.052917-.04233-.00529-.0053-.052917-.04233-.00529-.0053-.052917-.04233-.00529-.0053-.052917-.04498-.00529-.0026-.052917-.04233-.00529-.0053-.051329-.04233-.00529-.0053-.052917-.04498-.00529-.0053-.052917-.04233-.00529-.0053-.052917-.04498-.00529-.0026-.051858-.04233-.00529-.0053-.050271-.04233-.00529-.0053-.050271-.04498-.00529-.0053-.050271-.04498-.00529-.0053-.050271-.04498-.00529-.0053-.050271-.04498-.00529-.0053-.050271-.04498-.00529-.0053-.050271-.04762-.00529-.0026-.050271-.04498-.00794-.0053-.048948-.04762-.00529-.0053-.050271-.04498-.00529-.0053-.049212-.04762-.00529-.0053-.047625-.04763-.00529-.0053-.047625-.04762-.00529-.0053-.050271-.04762-.00529-.0053-.050271-.04763-.00529-.0026-.047625-.04763-.00529-.0053-.047625-.04762-.00529-.0053-.047625-.04762-.00529-.0053-.047625-.04763-.00529-.0053-.047625-.04763-.00529-.0053-.047625-.04763-.00529-.0053-.044979-.04762-.00529-.0053-.047625-.04762-.00529-.0053-.047625-.05027-.00529-.0053-.044979-.05027-.00529-.0053-.044979-.05027-.00529-.0053-.047625-.05027-.00529-.0053-.044979-.05027-.00529-.0053-.044979-.05027-.00529-.0053-.044979-.05027-.00529-.0053-.044979-.05027-.00529-.0053-.044979-.05027-.00265-.0053-.042333-.05027-.00529-.0053-.044979-.05027-.00529-.0053-.047625-.05292-.00529-.0053-.044979-.05027-.00529-.0053-.044979-.05292-.00529-.0053-.042333-.05027-.00265-.0053-.042333-.05027-.00529-.0053-.042333-.05292-.00529-.0053-.044979-.05292-.00529-.0053-.042333-.05027-.00529-.0053-.044979-.05027-.00529-.0053-.042333-.05027-.00529-.0053-.042333-.05292-.00529-.0053-.042333-.05292-.00529-.0053-.042333-.05292-.00529-.0053-.042333-.05292-.00529-.0053-.042333-.05292-.00265-.0053-.039687-.05292-.00529-.0053-.039688-.05292-.00265-.0053-.039686-.05292-.0053-.0053-.03969-.05556-.0053-.0053-.03969-.05292-.0053-.0053-.03969-.05292-.0026-.0053-.03969-.05556-.0026-.0053-.03969-.05556-.0026-.0053-.03969-.05292-.0026-.0053-.03969-.05292-.0053-.0053-.03969-.05556-.0053-.0053-.03969-.05556-.0053-.0079-.03704-.05556-.0053-.0053-.03704-.05556-.0053-.0053-.03704-.05556-.0053-.0053-.03704-.05556-.0026-.0053-.03704-.05556-.0053-.0079-.03704-.05556-.0053-.0053-.03704-.05556-.0053-.0053-.03704-.05556-.0053-.0053-.03704-.05556-.0053-.0053-.0344-.05556-.0026-.0053-.0344-.05556-.0053-.0079-.03704-.05556-.0053-.0079-.03704-.05556-.0026-.0053-.03704-.05821-.0026-.0079-.0344-.05556-.0053-.0053-.0344-.05556-.0053-.0053-.0344-.05821-.0053-.0079-.0344-.05556-.0026-.0053-.0344-.05821-.0026-.0053-.0344-.05556-.0053-.0079-.0344-.05821-.0053-.0079-.0344-.05821-.0053-.0079-.03175-.05821-.0053-.0053-.0344-.05821-.0026-.0053-.03175-.05821-.0026-.0053-.03175-.05821-.0026-.0079-.03175-.05821-.0053-.0079-.03175-.05821-.0026-.0079-.03175-.06085-.0026-.0053-.03175-.05821-.0026-.0079-.03175-.05821-.0026-.0079-.03175-.05821-.0026-.0079-.0291-.06085-.0026-.0053-.03175-.06085-.0026-.0079-.03175-.06085-.0053-.0053-.0291-.06085-.0026-.0053-.0291-.05821-.0026-.0079-.0291-.06086v.0026l-.0291-.06085-.0053-.0079-.0291-.06085-.0026-.0079-.0291-.05821-.0026-.0079-.0291-.06085-.0026-.0053-.0291-.06085-.0026-.0053-.02646-.06085-.0026-.0053-.0291-.06086-.0026-.0053-.0291-.06085-.0026-.0053-.0291-.06085-.0026-.0079-.02646-.06085-.0026-.0053-.0291-.06085-.0026-.0079-.0291-.06085-.0026-.0053-.02646-.06085-.0026-.0053-.02646-.06085-.0026-.0079-.02646-.06085-.0026-.0053-.02381-.06086-.0026-.0053-.02646-.06085-.0026-.0079-.02381-.0635-.0026-.0053-.02646-.06085-.0026-.0079-.02381-.05821-.0026-.0079-.02646-.0635-.0026-.0053-.02381-.0635-.0026-.0079-.02381-.0635-.0026-.0053-.02381-.0635-.0026-.0079-.02381-.0635-.0026-.0053-.02381-.0635-.0026-.0053-.02117-.0635-.0026-.0079-.02381-.0635-.0026-.0053-.02117-.0635-.0026-.0079-.02117-.0635-.0026-.0079-.02381-.0635-.0026-.0079-.02117-.0635-.0026-.0053-.02117-.0635-.0026-.0053-.02117-.0635-.0026-.0079-.02117-.0635-.0026-.0079-.02117-.0635-.0026-.0079-.02117-.0635-.0026-.0079-.02117-.0635-.0024-.0077-.01852-.0635-.0026-.0053-.02117-.06615-.0026-.0079-.01852-.06614-.0026-.0079-.01852-.0635-.0026-.0079-.01852-.0635-.0026-.0079-.01852-.06615-.0026-.0079-.01852-.06615-.0026-.0053-.01852-.06615-.0026-.0026-.01852-.06615-.0026-.0053-.01587-.0635-.0026-.0053-.01587-.0635v-.0053l-.01852-.06615v-.0079l-.01587-.0635-.0026-.0079-.01587-.0635-.0026-.0079-.01588-.06614h.0026l-.01587-.06615-.0026-.0053-.01587-.06615-.0026-.0053-.01587-.06615-.0026-.0053-.01587-.06615.0026-.0026-.01587-.06614-.0026-.0079-.01587-.06615-.0026-.0079-.01323-.06615-.0026-.0079-.01587-.06614-.0026-.0053-.01323-.06615-.0026-.0079-.01323-.06615-.0026-.0079-.01323-.06615-.01323-.06614v-.0079l-.01323-.06879v-.0079l-.01323-.06615-.0026-.0079-.01587-.0635v-.0079l-.01323-.07144-.0026-.0079-.01323-.06879-.0026-.0079-.01058-.06615-.0026-.0079-.01058-.06615v-.0079l-.01058-.06615v-.0079l-.01058-.06615-.0026-.0079-.01058-.06615v.0026l-.01058-.06615v-.0053l-.01058-.06615v-.0079l-.01058-.06615v-.0079l-.01058-.06614v-.0053l-.0079-.06879v-.0079l-.0079-.06615v-.0053l-.01058-.06879-.0026-.0079-.0079-.06615v-.0079l-.0079-.06879-.0026-.0079-.0079-.06879v-.0079l-.0079-.06879-.0026-.0079-.0079-.06879v-.0079l-.0079-.06879-.0026-.0053-.0079-.06879-.0053-.06879v-.0079l-.0079-.06879-.0026-.0079-.0079-.06879v-.0079l-.0053-.06879-.0026-.0079-.0053-.06879v-.0079l-.0053-.06879v-.0079l-.0106-.13758v-.0079l-.0053-.06879v-.0079l-.0053-.06879v-.08546l-.0026-.06879v-.0079l-.0026-.06879v-.0079l-.0026-.06879-.0026-.0079-.0026-.06879v-.07408l-.0026-.06879v-.0079l-.0026-.06879v-33.495l.0026-.066146v-.084667l.0026-.068792v-.24342l.0026-.068792v-.005292l.0026-.068792v-.007937l.0026-.068792v-.007938l.0026-.068792v-.005292l.0026-.068792v-.007937l.0026-.068792v-.007938l.0053-.071438v-.007937l.0053-.068792v-.005292l.0026-.068792v-.007938l.0053-.068792v-.00794l.0026-.068792v-.00794l.0026-.068792v-.00794l.0053-.068792v-.00794l.0053-.068792v-.00794l.0079-.068792v-.00794l.0053-.068792.0026-.00529.0053-.068792v-.00529l.0079-.068792v-.00529l.0079-.068792.0026-.00794.0079-.068792v-.00794l.0079-.068792v-.00529l.0079-.068792v-.00529l.0079-.068792.0026-.00794.0079-.068792v-.00794l.0079-.066146v-.00794l.0079-.068792v-.00794l.0079-.068792.0026-.00794.0079-.066146v-.00794l.01058-.068792v-.00794l.0079-.068792.0026-.00794.0079-.066146.0026-.00794.01058-.068792.0026-.00529.01058-.068792v-.00529l.01058-.068792v-.00529l.01058-.066146.0026-.00794.01058-.066146v-.00794l.01852-.068792.0026-.00794.01058-.066146v-.00794l.01323-.066146v-.00529l.01323-.066146v-.00529l.01323-.068792.0026-.00529.01323-.066146.0026-.00529.01323-.066146.0026-.00794.01323-.066146.0026-.00794.01323-.066146v-.00794l.01323-.066146v-.00529l.01323-.066146.0026-.00529.01323-.066146.0026-.00529.01587-.066146v-.00794l.01587-.066146.0026-.00794.01323-.066146.0026-.00794.01587-.066146v-.00794l.01587-.066146.0026-.00794.01587-.066146v-.00794l.01587-.066146.0026-.00529.01587-.066146v-.00529l.01588-.066146.0026-.00794.01852-.066146v-.00529l.01852-.066146v-.00529l.01852-.066146.0026-.00794.01852-.066146v-.00794l.01852-.066146.0026-.00794.01852-.0635.0026-.00529.01852-.066146.0026-.00661.01852-.066146.0026-.00794.01852-.064558.0026-.00529.02117-.066146.0026-.00529.01852-.0635.0026-.00529.01852-.064294.0026-.00529.01852-.065617.0026-.00794.02117-.064558.0026-.00794.02117-.0635v-.00529l.02117-.0635v-.00794l.02117-.0635.0026-.00529.02117-.0635.0026-.00794.02117-.0635.0026-.00794.02117-.0635.0026-.00794.02117-.0635.0026-.00529.02381-.0635.0026-.00529.02117-.0635.0026-.00661.02117-.0635.0026-.00529.02381-.0635.0026-.00529.02381-.0635v-.00529l.02381-.0635.0026-.00529.02381-.0635.0026-.00794.02381-.0635.0026-.00529.02381-.0635.0026-.00794.02646-.060854.0026-.00529.02646-.0635.0026-.00529.02646-.0635.0026-.00794.02646-.0635.0026-.00794.02646-.0635.0026-.00794.02646-.0635.0026-.00794.02646-.0635.0026-.00794.02646-.0635.0026-.00661.02646-.060854.0026-.00794.02646-.060854.0026-.00794.02646-.0635.0026-.00529.0291-.0635.0026-.00529.0291-.060854.0026-.00529.02646-.060854.0026-.00794.0291-.060854.0026-.00529.0291-.060854.0026-.00529.0291-.060854.0026-.00529.0291-.060854.0026-.00794.0291-.060854.0026-.00529.0291-.060854.0026-.00794.0291-.060854.0026-.00529.0291-.060854.0026-.00529.0291-.060854.0026-.00529.0291-.060854.0026-.00529.03175-.058208.0026-.00529.03175-.060854.0053-.00794.03175-.060854.0026-.00529.03175-.060854.0026-.00794.03175-.058208.0026-.00529.03175-.058208.0026-.00529.03175-.058208.0026-.00794.03175-.058208.0053-.00529.03175-.058208.0026-.00794.03175-.058208.0053-.00529.03175-.058208.0026-.00529.03175-.058208.0053-.00794.0344-.058208.0026-.00529.03175-.058208.0026-.00529.0344-.058208.0026-.00529.0344-.058208.0026-.00529.0344-.058208.0053-.00529.0344-.058208.0026-.00529.0344-.058208.0053-.00529.0344-.058208.0026-.00529.0344-.058208.0053-.00529.0344-.058208.0026-.00529.03704-.058208.0053-.00794.03704-.058208.0026-.00529.0344-.055563.0053-.00529.03704-.055563.0053-.0053.0344-.05821.0026-.0053.03704-.05556.0026-.0053.03704-.05556.0053-.0053.03704-.05821.0053-.0053.03704-.05556.0026-.0079.03704-.05556.0026-.0053.03704-.05556.0026-.0053.03969-.05556.0053-.0053.03704-.05556.0053-.0053.03969-.05556.0026-.0053.03969-.05556.0026-.0053.03969-.05556.0026-.0053.03969-.05556.0053-.0053.03969-.05556.0026-.0053.03969-.05556.0053-.0053.03969-.05292.0026-.0053.03969-.05556.0053-.0053.03969-.05292.0053-.0053.039687-.05292.00529-.0053.039687-.05292.00529-.0053.039687-.05292.00265-.0053.039688-.05292.00529-.0053.042333-.05292.00529-.0053.042333-.05292.00529-.0053.042333-.05292.00529-.0053.042333-.05292.00529-.0053.042333-.05292.00529-.0079.042333-.05292.00265-.0053.042333-.05292.00529-.0053.042333-.05292.00529-.0053.042333-.05027.00529-.0053.042333-.05292.00529-.0053.042333-.05292.00529-.0053.044979-.05027.00529-.0053.042333-.05292.00529-.0053.042333-.05027.00529-.0053.042333-.05292.00529-.0053.044979-.05292.00265-.0053.044979-.05027.00529-.0053.044979-.05027.00529-.0053.044979-.05027.00529-.0053.044979-.05027.00265-.0053.044979-.05027.00529-.0053.044979-.05027.00529-.0053.044979-.05027.00265-.0053.044979-.05027.00529-.0053.047625-.05027.00265-.0053.047625-.05027.00529-.0053.050271-.04763.00529-.0053.047625-.05027.00529-.0053.047625-.05027.00529-.0053.047625-.04763.00529-.0053.047625-.04763.00529-.0053.047625-.04763.00529-.0053.050271-.04763.00529-.0053.047625-.04763.00529-.0053.047625-.04763.00529-.0053.047625-.04763.00529-.0053.047625-.04763.00529-.0053.047625-.04763.00529-.0053.047625-.04763.00529-.0053.047625-.04763.00529-.0053.050271-.04498.00529-.0053.050271-.04498.00529-.0053.050271-.04763.00529-.0053.050271-.04763.00529-.0026.050271-.04498.00529-.0026.050271-.04498.00529-.0053.050271-.04498.00529-.0053.050271-.04498.00529-.0053.050271-.04498.00529-.0026.052917-.04498.00529-.0053.052917-.04498.00529-.0053.052917-.04498.00529-.0053.052917-.04233.00529-.0053.052917-.04233.00529-.0053.050271-.04233.00529-.0053.052917-.04233.00529-.0053.052917-.04233.00529-.0026.052917-.04233.00529-.0053.052917-.04233.00529-.0053.052917-.04233.00529-.0053.055562-.04233.00529-.0053.052917-.04233.00529-.0053.055562-.04233.00529-.0053.055563-.04233.00529-.0053.052917-.04233.00529-.0026.055562-.04233.00529-.0053.052917-.04233.00529-.0053.055562-.03969.00529-.0053.055563-.04233.00529-.0053.055562-.03969.00529-.0026.055562-.03969.00794-.0053.055563-.03969.00529-.0026.055562-.03969.00529-.0053.055562-.04233.00529-.0026.058208-.03969.00529-.0053.055563-.03969.00794-.0026.055562-.03969.00529-.0026.055563-.03969.00529-.0026.058208-.03969.00529-.0053.055562-.03969.00529-.0026.058208-.03704.00529-.0026.055562-.03969.00794-.0053.058208-.03704.00529-.0053.058208-.03969.00529-.0053.058208-.03704.00794-.0026.058208-.03704.00529-.0053.058208-.03704.00529-.0026.058208-.03704.00529-.0026.058208-.03704.00529-.0026.058208-.03704.00794-.0026.058208-.0344h.00265l26.593-16.404.0026-.0026.05556-.0344.0053-.0026.05821-.03704.0079-.0053.05821-.0344.0079-.0053.05821-.0344.0079-.0053.05821-.0344.0079-.0026.06085-.0344.0053-.0053.05821-.0344.0079-.0026.05821-.0344.0053-.0026.06085-.03175.0053-.0053.06086-.03175.0053-.0053.05821-.03175.0079-.0026.06085-.03175.0053-.0053.05821-.03175.0079-.0053.05821-.03175.0079-.0053.05821-.03175.0053-.0053.06085-.03175.0053-.0026.05821-.03175.0079-.0026.05821-.03175.0079-.0026.06085-.03175.0079-.0026.06085-.03175.0053-.0026.06085-.0291.0079-.0026.06085-.0291.0079-.0026.05821-.0291.0079-.0026.06085-.0291.0053-.0026.06085-.0291.0079-.0026.06085-.0291.0079-.0053.06085-.0291.0079-.0026.06085-.0291.0079-.0026.06085-.02646.0079-.0026.06085-.02646.0053-.0053.06085-.02646.0053-.0026.06085-.02646.0079-.0053.06085-.02646.0079-.0026.06085-.02646.0079-.0026.06085-.02646.0079-.0026.06085-.02646.0079-.0026.06085-.02646.0079-.0026.06085-.02381.0079-.0026.06085-.02646.0079-.0026.0635-.02646.0079-.0026.0635-.02646.0079-.0053.06085-.02381.0053-.0026.0635-.02381.0079-.0026.06085-.02381.0053-.0026.0635-.02381.0079-.0026.0635-.02117.0079-.0026.0635-.02381.0079-.0026.0635-.02381.0079-.0026.0635-.02117.0079-.0026.0635-.02117.0079-.0026.06085-.02117.0079-.0026.0635-.02117.0079-.0026.06085-.02117.0079-.0026.0635-.02117.0053-.0026.0635-.02117.0079-.0026.0635-.02117.0079-.0026.0635-.02117.0079-.0026.0635-.01852.0053-.0026.0635-.01852.0079-.0026.0635-.01852h.0079l.0635-.01852.0079-.0026.0635-.01852.0053-.0026.0635-.01852.0053-.0026.0635-.01852.0079-.0026.0635-.01852.0079-.0026.0635-.01852.0079-.0026.0635-.01588.0079-.0026.0635-.01587.0053-.0026.0635-.01852.0064-.0026.06615-.01588h.0053l.0635-.01852h.0079l.06535-.01588.0079-.0026.06615-.01588.0079-.0026.0635-.01588h.0079l.06615-.01588h.0079l.0635-.01588.0079-.0026.0635-.01323.0079-.0026.0635-.01588.0079-.0026.0635-.01323h.0079l.0635-.01323.0079-.0026.0635-.01323h.0053l.0635-.01323.0079-.0026.06614-.01323h.0053l.06615-.01323.0053-.0026.06614-.01323.0079-.0026.06615-.01323.0079-.0026.06615-.01058h.0079l.0635-.01058.0079-.0026.06615-.01323.0079-.0026.06615-.01058h.0079l.0635-.01058.0079-.0026.06615-.01058.0079-.0026.0635-.01058h.0053l.0635-.01058h.0079l.06615-.01058.0079-.0026.06615-.01058h.0079l.06615-.01058h.0079l.06615-.01058h.0079l.06615-.0079h.0079l.0635-.0079h.0079l.06615-.0079.0079-.0026.06615-.0079.0053-.0026.06615-.0053h.0079l.0635-.0079h.0079l.0635-.0079h.0079l.06615-.0079h.0079l.06615-.0079h.0079l.0635-.0053h.0079l.06615-.0079.0079-.0026.06615-.0053.0079-.0026.06615-.0053h.0079l.06509-.0053h.0079l.06615-.0053h.0079l.06615-.0026.0079-.0026.06615-.0053.0053-.0026.06615-.0026h.0079l.06615-.0053h.0053l.06615-.0026h.0079l.06614-.0026h.0079l.06615-.0026h.0079l.06615-.0026.0079-.0026.06614-.0026h.0079l.06615-.0026h.0079l.06615-.0026h.0079l.06615-.0026h.0079l.06615-.0026h.0053l.06615-.0026h.08202l.06615-.0026h.15346zm-.06085 7.1438h-.04339l-.04339.000529h-.04313l-.08996.0022-.04498.0013-.13494.0078-.04233.0026-.04498.0026-.12699.0078-.04498.0026-.04233.0026-.08996.0106-.04233.0053-.13494.0159-.04233.0053-.04498.0053-.08466.0106-.04498.0053-.16932.0212-.04498.0053-.04233.0079-.04233.0053-.04498.0079-.25398.0474-.04233.0053-.04498.0079-.04233.0079-.04498.0079-.12699.0237-.12699.03174-.08466.0158-.4233.1058-.04233.01323-.04233.01058-.04233.01323-.03969.01323-.21165.06615-.03969.01323-.04233.01323-.04233.01587-.08466.02646-.04233.01588-.08466.02646-.03969.01323-.04233.01588-.04233.01587-.04233.01588-.03969.01588-.04233.01587-.07938.03176-.04233.01852-.04233.01588-.04233.01587-.04233.01588-.03969.01852-.03969.01588-.04233.01852-.11907.05556-.04233.01852-.03969.01852-.04233.01852-.11907.05556-.04233.01852-.07938.03704-.07938.04234-.03969.01852-.03969.02117-.03969.01852-.19845.10585-.03969.02381-.03704.02117-.03969.02117-.03704.02117-.11907.07143-.03704.02117-.03969.02381-.03704.02381-.07938.04762-.04233.02646-26.564 16.372-.044979.029104-.042333.026458-.039687.026458-.079375.052916-.11906.079374-.079375.052916-.079375.052916-.039688.029104-.074084.052916-.039687.026458-.22225.15875-.037042.029104-.037042.026458-.22225.17462-.034396.029104-.074084.058208-.034396.029104-.074084.058208-.034396.029104-.037042.029104-.068792.058208-.068792.0635-.068792.058208-.37836.34925-.03175.03175-.034396.03175-.03175.034396-.034396.03175-.03175.034396-.03175.03175-.03175.034396-.03175.03175-.0635.068792-.066146.066146-.09525.10319-.029104.034396-.09525.10319-.03175.037042-.03175.034396-.058208.068792-.03175.037042-.029104.034396-.03175.034396-.029104.037042-.029104.034396-.17462.22225-.026458.037042-.11642.14817-.079374.11113-.026458.039687-.052916.074084-.026458.039688-.10583.14817-.023813.039688-.026458.039687-.026458.037042-.026458.039688-.023813.039687-.023813.037042-.071439.11906-.023813.039687-.026458.039688-.026458.039687-.047626.079376-.071439.11906-.071439.11906-.047626.079375-.023813.042333-.047626.079375-.023813.042333-.021167.039687-.063501.127-.042334.079375-.021167.042333-.021167.039687-.021167.042333-.018521.039688-.10584.21166-.16669.381-.015875.042333-.018521.042333-.018521.044979-.055563.127-.015875.042333-.018521.044979-.018521.042333-.015875.042333-.015875.044979-.015875.042333-.015875.044979-.015875.042333-.047625.13494-.013229.044979-.015875.042333-.015875.044979-.013229.044979-.013229.042333-.013229.044979-.015875.044979-.026458.084666-.013229.044979-.015875.044979-.013229.044979-.013229.042333-.066145.2249-.021166.089958-.013229.044979-.010583.044979-.013229.044979-.021166.089958-.010583.047625-.063498.26987-.00794.044979-.010583.044979-.00794.044979-.03176.1905-.01588.089958-.01588.09525-.02382.13494-.00794.047625-.01058.09525-.00529.044979-.00794.047625-.00794.044979-.03174.28575-.00529.044979-.01058.09525-.00265.047625-.01058.09525-.0265.47625v.047625l-.0053.09525v.047625l-.00265.047625v33.55l.00265.04763v.14288l.00265.04498.00265.04762.00265.04763.00265.04762.00265.04763.00265.04762.00265.04763.00265.04762.00265.04763.00529.04762.00265.04763.00265.04762.00265.04763.00529.04498.00529.04762.00529.04498.00265.04762.02116.17992.00529.04762.01058.08996.00529.04762.00529.04763.00529.04498.00529.04763.03176.17992.00794.04763.03176.17992.010583.04498.02382.13494.021166.08996.00794.04498.074081.31486.010583.04233.013229.04233.031749.13494.013229.04498.010583.04233.010583.04498.010583.04233.013229.04498.010583.04233.026458.08996.013229.04233.026458.08996.013229.04233.013229.04498.0635.16932.013229.04233.015875.04498.14288.38097.037042.08466.079375.21165.20373.46563.018521.03969.021167.04233.021167.03969.021167.04233.127.23814.023813.03969.063501.11907.047626.07938.063501.11907.023813.03969.021167.03969.023813.03704.023813.03969.023813.03704.047626.07938.095252.14816.047626.07938.026458.03704.023813.03704.023813.03969.047626.07408.052916.07408.026458.03969.18521.25928.058208.07408.10583.14816.058208.0688.029104.03704.029104.03439.029104.03704.087312.1032.029104.03439.14552.172.029104.03439.029104.0344.0635.0688.029104.0344.03175.03175.03175.0344.03175.03175.03175.03439.029104.0344.03175.0344.127.127.03175.0344.15875.15875.034396.03175.0635.0635.034396.03175.0635.0635.034396.03175.068792.0582.068792.0635.034396.0291.034396.02911.068792.0635.034396.0291.11113.0873.068792.0582.037042.0291.034396.0291.037042.02646.034396.0291.037042.02911.074084.0582.034396.02646.037042.0291.037042.02646.074084.0582.074084.05292.039688.02646.22225.15876.039688.02646.039687.02381.039688.02646.037042.02646.079375.05292.037042.02381.079375.04762.11906.07143.042333.02381.079375.04762.044979.02646 27.697 16.192.0344.02117.0291.01588.09525.04764.0291.01852.09525.04764.03175.01852.0635.03176.03175.01587.15875.0794.0291.01587.0635.03176.03175.01323.03175.01587.09525.03969.03175.01588.03175.01587.03175.01323.03175.01588.28575.11907.03175.01058.0344.01323.127.05292.03175.01058.03175.01323.0635.02116.0344.01058.03175.01058.0291.01058.06879.02117.06615.02117.46304.12964.19845.04764.06615.01323.06615.01588.19844.03969.06615.01058.06615.01323.1323.02116.06879.01058.06615.01058.20637.0237.06879.0053.06615.0053.06879.0053.06615.0053.13758.0106.06615.0053.1323.0052.06879.0026h.33867l.06879-.0026h.06879l.13758-.0052.13758-.0106.06879-.0026.20637-.0159.06615-.0053.13758-.0158.06615-.0079.06879-.0079.06615-.01058.06879-.01058.06615-.01058.06879-.01058.06615-.01058.06615-.01323.06615-.01058.06879-.01323.06615-.01323.06615-.01588.06615-.01323.06615-.01587.19845-.04764.2646-.07408.06879-.02117.09525-.03174.0344-.01058.03175-.01058.0344-.01058.0635-.02116.0344-.01058.0635-.02116.0344-.01323.03175-.01058.03439-.01058.03175-.01323.09525-.03174.0344-.01323.03175-.01058.3175-.1323.0635-.03176.03175-.01323.03175-.01587.03175-.01588.03175-.01323.0635-.03176.03175-.01587.0291-.01588.127-.06352.03175-.01587.09525-.04764.02911-.01588.03175-.01588.03175-.01587.0344-.01852 30.684-17.1.03704-.01852.0344-.01852.09525-.05556.03175-.02117.0344-.01852.09525-.05556.0635-.04234.09525-.05556.0635-.04234.03175-.01852.03175-.02117.03175-.01852.1455-.10585.03175-.02117.02911-.02117.03175-.02117.1455-.10585.03175-.02117.02911-.02381.0291-.02117.0291-.02381.0291-.02117.0582-.04762.02911-.02381.0582-.04234.0291-.02381.02646-.02381.02911-.02381.0291-.02381.02646-.02117.0291-.02381.0291-.02646.02646-.02381.0291-.02381.05292-.04762.02646-.02646.0291-.02381.02646-.02646.02646-.02381.05292-.05292.02646-.02381.02646-.02646.02646-.02381.10584-.10584.02381-.02646.02646-.02646.02381-.02646.07938-.07938.09524-.10584.02646-.02646.16667-.18522.04762-.0582.02381-.02911.07143-.07938.02381-.0291.02381-.02646.02381-.0291.02117-.02646.04234-.0582.02117-.02646.02381-.0291.25404-.3492.01852-.02911.01852-.03175.02117-.03175.02117-.0291.03704-.0582.02117-.03175.02117-.0291.01852-.0291.07408-.127.01852-.0291.03704-.0635.01852-.0291.05556-.09525.01588-.03175.01587-.03175.03704-.0635.01588-.03175.03704-.0635.03174-.0635.01588-.0344.01587-.03175.03704-.0635.01588-.03175.01587-.03175.01588-.03175.01587-.0344.01587-.03175.01588-.03175.01587-.0344.01588-.03175.01587-.03175.01587-.0344.01588-.0344.01587-.0344.01588-.03175.01323-.03175.01323-.0344.01323-.03439.01323-.0344.01323-.03175.03969-.1032.01323-.03175.01323-.0344.01323-.03439.03969-.1032.02116-.0688.01058-.03439.01058-.0344.05292-.1376.01058-.03439.01323-.0344.02116-.0688.01323-.0344.04232-.1376.0079-.0344.04232-.1376.0079-.0344.0079-.03704.01058-.0344.0079-.0344.0079-.03704.01058-.0344.0158-.0688.0079-.03439.0079-.03704.0158-.0688.0053-.03704.0079-.03704.0079-.0344.0053-.03704.0079-.03439.0158-.07408.0079-.0344.0079-.03704.0053-.03704.0079-.03704.0053-.03439.0079-.0344.0371-.25928.0026-.03704.0053-.03439.0026-.03704.0053-.03704.0053-.0344.0053-.03704.0104-.14816.0053-.03704.0286-.40744v-.07408l.0026-.03704v-36.627l-.0026-.032544-.0026-.034396v-.034396l-.0026-.034396v-.034396l-.0026-.034396v-.034396l-.0026-.034396-.0026-.03175-.0078-.10319-.0026-.03175-.0026-.034396-.0026-.03175-.0026-.034396-.0053-.034396-.0052-.0635-.0053-.03175-.0026-.03175-.0053-.034396-.0026-.03175-.0053-.03175-.0053-.034396-.0026-.034396-.0026-.03175-.0053-.029104-.01058-.069586-.0079-.067469-.01058-.068792-.01058-.066146-.02646-.13229-.01058-.066146-.01323-.066146-.03174-.13229-.01588-.066146-.01587-.066146-.01588-.066146-.01587-.066146-.01588-.066146-.05556-.19844-.02117-.066146-.01852-.0635-.08468-.254-.04762-.127-.02381-.060854-.07143-.1905-.02646-.060854-.02381-.0635-.07938-.18256-.02911-.060854-.02646-.060854-.0582-.12171-.0291-.058208-.03175-.060854-.02911-.060854-.03175-.060854-.15875-.29104-.1032-.17462-.03704-.058208-.0344-.055562-.0344-.055563-.11112-.16669-.11112-.16669-.19845-.26458-.16932-.21167-.04233-.050271-.04498-.050271-.04233-.050271-.2249-.25136-.09524-.09525-.04763-.047625-.09524-.09525-.10054-.09525-.25135-.2249-.05292-.044979-.10584-.084666-.05027-.042333-.05556-.044979-.02381-.018521-.10584-.084668-.02646-.018521-.05292-.042334-.0582-.042334-.07938-.063501-.02646-.018521-.02646-.021167-.0291-.021167-.05292-.037042-.0291-.021167-.0582-.037042-.02646-.018521-.1455-.092605-.02911-.018521-.0873-.055563-.0582-.03175-.0344-.018521-29.94-17.565-.04233-.02593-.03836-.02117-.07938-.04762-.03889-.02196-.03969-.02117-.03836-.02117-.11907-.06351-.03889-.02117-.23814-.12702-.04048-.01852-.03969-.02117-.07938-.03704-.03969-.02117-.04101-.01852-.07938-.03704-.04128-.01852-.03969-.01852-.03969-.01588-.04101-.01852-.04022-.01852-.03969-.01852-.04101-.01588-.03969-.01588-.04233-.01587-.04075-.01852-.0418-.01588-.04233-.01852-.04233-.01588-.04101-.01587-.04101-.01588-.04154-.01588-.04233-.01587-.04233-.01588-.03969-.01588-.07938-.02646-.04233-.01588-.04233-.01323-.03969-.01323-.08466-.02646-.03969-.01323-.12699-.03969-.03969-.01323-.12699-.03969-.04233-.01058-.04233-.01323-.04233-.01058-.04233-.01323-.12699-.03174-.04233-.01323-.08466-.02116-.04233-.0079-.12699-.03174-.04233-.0079-.04233-.01058-.08466-.0158-.04233-.01058-.25398-.0474-.04498-.0079-.16932-.0212-.08466-.0158-.04233-.0053-.04498-.0079-.04233-.0053-.04233-.0079-.21165-.0265-.04498-.0053-.04233-.0026-.08466-.0106-.21165-.013-.08996-.0052-.08466-.0052h-.04233l-.08466-.0052h-.04498l-.08466-.0052-.03969-.0026-.04233-.0026h-.08731l-.04233-.0026h-.08467z" fill="#c9177e" style="clip-rule:evenodd;fill-rule:evenodd;stroke-linejoin:round;stroke-miterlimit:1.414;stroke-width:.26458"/>
<path d="m10.885 43.448v-54.827h11.471v19.971h19.028v-19.971h11.504v54.827h-11.504v-23.973h-19.028v23.973z" fill="#fff" style="clip-rule:evenodd;stroke-linejoin:round;stroke-miterlimit:1.414;stroke-width:.26458"/>
</g>
</g>
</svg>
